<?xml version="1.0" encoding="utf-8"?>
<!-- Generator: Adobe Illustrator 27.5.0, SVG Export Plug-In . SVG Version: 6.00 Build 0)  -->
<svg version="1.1" id="_x3C_Layer_x3E_" xmlns="http://www.w3.org/2000/svg" xmlns:xlink="http://www.w3.org/1999/xlink" x="0px"
	 y="0px" viewBox="0 0 2760 1840" style="enable-background:new 0 0 2760 1840;" xml:space="preserve">
<rect style="fill:#FFFFFF;" width="2760" height="1840"/>
<g>
	<g>
		<path style="fill:#DEEBE9;" d="M2259.734,1692.893c-199.193,25.163-404.41,14.679-823.728-11.652
			c-235.455-14.785-708.873,9.711-945.18,11.652c-172.278,1.415-311.951-128.377-311.951-286.738V923.128V418.559
			c0-158.361,139.964-296.053,311.951-286.738c159.719,8.65,394.645,42.896,639.536,21.927
			c291.264-24.939,844.103-46.132,1129.371-21.927c171.555,14.557,311.949,128.377,311.949,286.738v987.595
			C2571.684,1564.516,2430.414,1671.331,2259.734,1692.893z"/>
	</g>
	<g>
		<g>
			<rect x="1361.658" y="383.955" style="fill:#2F1A31;" width="23.651" height="34.019"/>
		</g>
		<g>
			<path style="fill:#2F1A31;" d="M1414.628,366.71c0-22.043-17.869-39.912-39.911-39.912c-22.044,0-39.914,17.869-39.914,39.912
				s17.87,39.912,39.914,39.912C1396.759,406.621,1414.628,388.752,1414.628,366.71z"/>
		</g>
		<g>
			<path style="fill:#56335B;" d="M1394.672,366.71c0-13.879-11.252-25.13-25.13-25.13c-13.879,0-25.129,11.251-25.129,25.13
				s11.25,25.129,25.129,25.129C1383.42,391.839,1394.672,380.588,1394.672,366.71z"/>
		</g>
		<g>
			<path style="fill:#CFD3A3;" d="M1385.31,357.594c0-4.643-3.764-8.407-8.407-8.407s-8.408,3.764-8.408,8.407
				c0,4.643,3.765,8.408,8.408,8.408S1385.31,362.237,1385.31,357.594z"/>
		</g>
	</g>
	<g>
		<g>
			<g>
				<path style="fill:#B2C9C6;" d="M665.636,390.725c-11.902,11.715-19.164,11.418-23.756,6.753
					c-4.591-4.665-4.773-11.931,7.128-23.646c21.681-21.34,40.473-23.208,40.473-23.208S687.632,369.073,665.636,390.725z"/>
			</g>
			<g>
				<path style="fill:#B2C9C6;" d="M691.356,495.841c-7.47,14.936-14.438,17.004-20.292,14.076
					c-5.854-2.929-8.377-9.744-0.907-24.68c13.608-27.208,30.786-35.057,30.786-35.057S705.164,468.235,691.356,495.841z"/>
			</g>
			<g>
				<g>
					<g>
						<path style="fill:#B2C9C6;" d="M753.668,770.572l-3.122,0.501c-0.077-0.478-8.161-48.859-41.579-114.296
							c-30.837-60.377-90.166-148.039-197.706-222.79l1.803-2.596c108.134,75.164,167.783,163.34,198.781,224.075
							C745.455,721.316,753.589,770.086,753.668,770.572z"/>
					</g>
				</g>
				<g>
					<g>
						<path style="fill:#B2C9C6;" d="M625.655,531.608l-2.999-1.002c36.431-108.85-28.4-213.555-29.059-214.6l2.673-1.686
							C596.938,315.377,662.569,421.311,625.655,531.608z"/>
					</g>
				</g>
				<g>
					<g>
						<path style="fill:#B2C9C6;" d="M566.977,493.499c-31.133,7.839-58.585-1.823-58.9-1.939l1.073-2.973
							c0.349,0.126,35.52,12.464,70.81-2.815l1.257,2.9C576.442,490.739,571.665,492.318,566.977,493.499z"/>
					</g>
				</g>
				<g>
					<g>
						<path style="fill:#B2C9C6;" d="M731.11,702.817c-64.762,8.691-123.512-9.159-174.62-53.055
							c-1.771-1.521-3.442-2.956-3.888-3.177c0.005,0.003,0.136,0.066,0.356,0.082l0.235-3.15c0.931,0.069,1.656,0.669,5.355,3.848
							c50.396,43.282,108.311,60.886,172.14,52.318L731.11,702.817z"/>
					</g>
				</g>
				<g>
					<g>
						<path style="fill:#B2C9C6;" d="M633.779,692.227l-3.162-0.055c0.766-42.893-40.877-95.197-41.296-95.721l2.462-1.98
							c0.105,0.133,10.81,13.506,21.262,32.093C622.73,643.784,634.19,669.154,633.779,692.227z"/>
					</g>
				</g>
				<g>
					<g>
						<path style="fill:#B2C9C6;" d="M504.91,417.413c19.899,10.545,23.334,18.37,20.27,24.153
							c-3.065,5.784-11.469,7.336-31.368-3.208c-36.25-19.21-48.221-38.965-48.221-38.965S468.132,397.925,504.91,417.413z"/>
					</g>
				</g>
				<g>
					<g>
						<path style="fill:#B2C9C6;" d="M513.802,479.582c22.153,4.054,27.787,10.479,26.608,16.918
							c-1.178,6.44-8.722,10.452-30.876,6.398c-40.353-7.385-57.725-22.612-57.725-22.612S472.859,472.09,513.802,479.582z"/>
					</g>
				</g>
				<g>
					<g>
						<path style="fill:#B2C9C6;" d="M595.944,584.181c11.043,12.527,10.347,19.762,5.437,24.09
							c-4.91,4.329-12.175,4.11-23.219-8.416c-20.115-22.821-20.947-41.688-20.947-41.688S575.534,561.026,595.944,584.181z"/>
					</g>
				</g>
				<g>
					<g>
						<path style="fill:#B2C9C6;" d="M586.033,436.781c7.663,14.838,5.227,21.686-0.588,24.69
							c-5.815,3.003-12.81,1.025-20.474-13.813c-13.96-27.029-10.177-45.531-10.177-45.531S571.868,409.359,586.033,436.781z"/>
					</g>
				</g>
				<g>
					<g>
						<path style="fill:#B2C9C6;" d="M670.232,665.781c3.186,16.394-1.076,22.281-7.502,23.53
							c-6.426,1.247-12.582-2.616-15.766-19.011c-5.801-29.862,3.03-46.555,3.03-46.555S664.348,635.483,670.232,665.781z"/>
					</g>
				</g>
				<g>
					<g>
						<path style="fill:#B2C9C6;" d="M569.646,643.536c13.469,9.873,14.339,17.09,10.469,22.369
							c-3.869,5.278-11.013,6.622-24.481-3.251c-24.536-17.984-29.389-36.235-29.389-36.235S544.751,625.29,569.646,643.536z"/>
					</g>
				</g>
				<g>
					<g>
						<path style="fill:#B2C9C6;" d="M599.606,300.277c10.437,19.957,8.839,28.352,3.038,31.385
							c-5.8,3.034-13.605-0.443-24.043-20.4c-19.012-36.353-17.699-59.416-17.699-59.416S580.317,263.394,599.606,300.277z"/>
					</g>
				</g>
			</g>
		</g>
	</g>
	<g>
		<ellipse style="fill:#BED5DC;" cx="1383.262" cy="1456.897" rx="922.212" ry="116.237"/>
	</g>
	<g>
		<g>
			<path style="fill:#B2C9C6;" d="M1805.198,998.567c0,0,297.045-373.283,417.208-284.213
				c120.164,89.07-266.452,203.479-348.737,315.042L1805.198,998.567z"/>
		</g>
		<g>
			<g>
				<path style="fill:#74A1BD;" d="M1840.781,1014.328c30.753-43.321,91.411-110.564,205.762-184.897
					c68.36-44.436,124.295-70.678,124.852-70.936l1.045,2.239c-0.556,0.259-56.362,26.44-124.582,70.79
					c-114.003,74.111-174.438,141.093-205.06,184.233L1840.781,1014.328z"/>
			</g>
		</g>
	</g>
	<g style="opacity:0.4;">
		<g>
			<path style="fill:#B2C9C6;" d="M1697.538,543.258c0,0,215.479-357.372,329.78-293.69
				c114.302,63.682-208.133,206.62-266.901,312.694L1697.538,543.258z"/>
		</g>
		<g>
			<g>
				<path style="fill:#74A1BD;" d="M1730.187,552.907c21.779-41.053,66.797-106.238,157.588-183.641
					c54.275-46.272,99.83-75.356,100.284-75.644l1.158,1.824c-0.451,0.288-45.902,29.307-100.066,75.487
					c-90.515,77.172-135.366,142.104-157.054,182.986L1730.187,552.907z"/>
			</g>
		</g>
	</g>
	<g style="opacity:0.5;">
		<g>
			<path style="fill:#B2C9C6;" d="M1758.288,571.716c0,0,413.88-361.732,531.68-235.927
				c117.799,125.807-344.101,175.574-460.438,285.027L1758.288,571.716z"/>
		</g>
		<g>
			<g>
				<path style="fill:#74A1BD;" d="M1795.366,596.938c43.814-42.75,126.475-106.435,271.462-167.057
					c86.676-36.239,155.506-54.422,156.19-54.601l0.722,2.753c-0.684,0.179-69.355,18.322-155.855,54.492
					c-144.549,60.443-226.899,123.877-270.529,166.448L1795.366,596.938z"/>
			</g>
		</g>
	</g>
	<g>
		<g>
			<g>
				<path style="fill:#B2C9C6;" d="M2092.641,1427.02c-75.906-34.061-138.032,73.054-199.094-0.29
					c-56.604-68.065-52.364-73.192-99.122-68.813c-6.918,0.647-13.671,2.519-19.913,5.569c-13.294,6.496-40.735,16.246-62.605-0.017
					c-94.063-69.946-7.04-126.646-36.093-245.924c-8.136-33.401-14.762-65.593-19.724-95.273
					c16.882-11.805,45.98-26.139,83.509-20.988c13.774,1.867,28.687,6.413,44.54,14.656c85.964,44.769,83.915,97.858,211.586,51.741
					c127.709-46.125,114.157,144.902,169.24,178.408c55.083,33.505,112.071,51.567,111.998,136.036
					C2276.861,1466.642,2168.518,1461.129,2092.641,1427.02z"/>
			</g>
		</g>
		<g style="opacity:0.4;">
			<g>
				<g>
					<path style="fill:#74A1BD;" d="M1684.104,1154.719l0.235-5.465c2.408,0.102,245.106,13.061,590.442,255.266l-3.143,4.482
						C1927.599,1167.706,1686.502,1154.823,1684.104,1154.719z"/>
				</g>
			</g>
			<g>
				<g>
					<path style="fill:#74A1BD;" d="M1991.924,1179.251c-15.084-73.293,0.608-111.093,1.283-112.665l5.03,2.156
						c-0.159,0.37-15.651,37.986-0.951,109.409L1991.924,1179.251z"/>
				</g>
			</g>
			<g>
				<g>
					<path style="fill:#74A1BD;" d="M1964.66,1232.494c3.758-31.442,28.492-62.517,71.526-89.864
						c32.226-20.48,63.794-31.902,64.109-32.015l1.848,5.148c-1.232,0.442-123.409,45.086-132.05,117.383L1964.66,1232.494z"/>
				</g>
			</g>
			<g>
				<g>
					<path style="fill:#74A1BD;" d="M2059.652,1290.666c-2.043-8.387-2.787-13.408-2.82-13.638l5.418-0.759
						c0.147,1.061,15.943,106.786,107.561,170.126l-3.109,4.497C2092.876,1399.856,2067.264,1321.911,2059.652,1290.666z"/>
				</g>
			</g>
			<g>
				<g>
					<path style="fill:#74A1BD;" d="M2028.618,1424.973c-3.639-37.891,7.327-64.994,17.167-81.06
						c10.711-17.485,22.206-25.888,22.689-26.238l3.203,4.438c-0.442,0.321-44.276,32.964-37.612,102.34L2028.618,1424.973z"/>
				</g>
			</g>
			<g>
				<g>
					<path style="fill:#74A1BD;" d="M1802.103,1327.228c-19.287-79.181,15.378-148.459,15.778-149.235l4.872,2.49
						c-0.436,0.853-43.278,86.635-5.429,175.236l-5.035,2.151C1807.896,1347.577,1804.561,1337.319,1802.103,1327.228z"/>
				</g>
			</g>
			<g>
				<g>
					<path style="fill:#74A1BD;" d="M1800.831,1244.275l1.716-5.194c29.144,9.633,72.094,38.187,111.213,119.495
						c23.271,48.365,34.358,93.274,34.47,93.722l-5.319,1.296C1942.481,1451.828,1898.672,1276.62,1800.831,1244.275z"/>
				</g>
			</g>
		</g>
	</g>
	<g>
		<path style="fill:#B2C9C6;" d="M1012.764,1177.975c0,0-321.754-530.271-462.362-437.558
			c-140.607,92.713,294.335,307.557,383.108,464.889L1012.764,1177.975z"/>
	</g>
	<g>
		<g>
			<path style="fill:#9BBCB6;" d="M863.035,1083.378c0,0-370.326-392.814-497.398-280.99
				c-127.071,111.824,319.747,204.226,423.105,322.24L863.035,1083.378z"/>
		</g>
		<g>
			<g>
				<path style="fill:#74A1BD;" d="M821.68,1106.819c-69.898-82.802-173.721-148.034-248.509-188.177
					c-81.08-43.52-146.408-67.727-147.06-67.966l1.496-4.063c0.652,0.24,66.268,24.552,147.611,68.214
					c75.12,40.32,179.43,105.875,249.767,189.198L821.68,1106.819z"/>
			</g>
		</g>
	</g>
	<g>
		<g>
			<g>
				<path style="fill:#CFD3A3;" d="M420.478,1235.891c83.348,16.201,72.217,142.082,166.272,116.786
					c94.058-25.354,86.09-31.239,132.435,8.869c0,0,18.546,39.319,56.288,45.122c148.916,22.897,347.132-200.801,189.791-318.441
					c-11.361-8.494-27.703-11.512-45.773-13.953c-98.032-13.18-127.53,32.314-206.935-81.203
					c-79.432-113.551-180.414,53.785-246.063,49.36c-65.648-4.426-123.811-22.854-173.4,47.659
					C243.497,1160.66,337.126,1219.746,420.478,1235.891z"/>
			</g>
		</g>
		<g>
			<g>
				<g>
					<path style="fill:#C4C695;" d="M921.371,1248.855l3.018-4.697c-2.068-1.332-212.165-133.179-642.641-134.103l-0.013,5.586
						C710.596,1116.563,919.31,1247.532,921.371,1248.855z"/>
				</g>
			</g>
			<g>
				<g>
					<path style="fill:#C4C695;" d="M650.144,1088.385c55.667-52.281,64.794-93.041,65.154-94.749l-5.462-1.159
						c-0.087,0.402-9.272,40.892-63.518,91.838L650.144,1088.385z"/>
				</g>
			</g>
			<g>
				<g>
					<path style="fill:#C4C695;" d="M641.594,1148.828c15.346-28.439,12.976-68.902-6.852-117.014
						c-14.847-36.029-34.47-64.114-34.667-64.393l-4.566,3.209c0.768,1.093,76.455,110.154,41.167,175.549L641.594,1148.828z"/>
				</g>
			</g>
			<g>
				<g>
					<path style="fill:#C4C695;" d="M528.15,1141.523c6.633-5.796,10.206-9.548,10.367-9.72l-4.074-3.817
						c-0.745,0.797-76.07,79.718-189.736,78.707l-0.048,5.581C436.248,1213.09,503.434,1163.117,528.15,1141.523z"/>
				</g>
			</g>
			<g>
				<g>
					<path style="fill:#C4C695;" d="M475.095,1271.815c25.308-29.472,32.091-58.531,33.324-77.717
						c1.342-20.885-3.309-34.65-3.506-35.228l-5.281,1.818c0.181,0.529,17.563,53.528-28.777,107.489L475.095,1271.815z"/>
				</g>
			</g>
		</g>
	</g>
	<g>
		<g>
			<path style="fill:#56335B;" d="M1553.753,1336.028v-177.229h-357.496v177.229c0,46.057-30.649,83.393-68.457,83.393h-14.405
				v22.881h523.221v-22.881h-14.405C1584.402,1419.42,1553.753,1382.084,1553.753,1336.028z"/>
		</g>
		<g>
			<path style="fill:#2F1A31;" d="M1633.694,1442.301h-517.379c-6.318,0-11.44-5.122-11.44-11.441l0,0
				c0-6.318,5.122-11.44,11.44-11.44h517.379c6.319,0,11.44,5.122,11.44,11.44l0,0
				C1645.135,1437.179,1640.014,1442.301,1633.694,1442.301z"/>
		</g>
	</g>
	<g>
		<path style="fill:#6F4975;" d="M1983.965,1267.607l-1208.934-13.873c-25.881-0.297-46.704-21.361-46.704-47.242V468.624
			c0-25.811,20.715-46.846,46.522-47.24l1193.338-18.274c26-0.398,47.434,20.287,47.96,46.284l15.595,770.014
			C2032.283,1246.082,2010.643,1267.913,1983.965,1267.607z"/>
	</g>
	<g>
		<path style="fill:#E7F2F0;" d="M1945.038,1121.267H798.484c-12.874,0-23.313-10.438-23.313-23.313v-597.21
			c0-12.875,10.438-23.311,23.313-23.311h1146.554c12.874,0,23.312,10.436,23.312,23.311v597.21
			C1968.35,1110.829,1957.912,1121.267,1945.038,1121.267z"/>
	</g>
	<g>
		<path style="fill:#E28569;" d="M1541.229,538.913v218.104c0,13.243-10.163,24.116-23.122,25.238
			c-0.73,0.064-1.472,0.096-2.224,0.096H1193.34c-6.14,0-11.762-2.182-16.156-5.813c-5.61-4.646-9.188-11.666-9.188-19.521V538.913
			c0-13.995,11.349-25.345,25.345-25.345h322.543C1529.879,513.568,1541.229,524.918,1541.229,538.913z"/>
	</g>
	<g>
		<path style="fill:#96B4E0;" d="M1541.229,839.891v218.103c0,13.996-11.35,25.335-25.346,25.335H1193.34
			c-6.003,0-11.529-2.097-15.87-5.601c-5.779-4.627-9.475-11.741-9.475-19.734V839.891c0-13.996,11.349-25.346,25.345-25.346
			h322.543C1529.879,814.545,1541.229,825.894,1541.229,839.891z"/>
	</g>
	<g>
		<path style="fill:#CFD3A3;" d="M1936.187,538.913v218.104c0,10.427-6.3,19.385-15.31,23.269
			c-3.069,1.323-6.468,2.065-10.024,2.065h-322.555c-3.018,0-5.907-0.529-8.596-1.493c-9.762-3.525-16.739-12.863-16.739-23.841
			V538.913c0-13.995,11.34-25.345,25.335-25.345h322.555C1924.838,513.568,1936.187,524.918,1936.187,538.913z"/>
	</g>
	<g>
		<path style="fill:#7CA1CE;" d="M1936.187,839.891v218.103c0,9.593-5.325,17.924-13.181,22.223
			c-3.61,1.99-7.749,3.112-12.153,3.112h-322.555c-2.54,0-4.997-0.371-7.315-1.08c-10.429-3.134-18.02-12.799-18.02-24.255V839.891
			c0-13.996,11.34-25.346,25.335-25.346h322.555C1924.838,814.545,1936.187,825.894,1936.187,839.891z"/>
	</g>
	<g>
		<path style="fill:#96B4E0;" d="M847.21,1083.333h271.294c14.43,0,26.127-11.697,26.127-26.127V539.7
			c0-14.43-11.697-26.127-26.127-26.127H847.21c-14.431,0-26.128,11.697-26.128,26.127v517.506
			C821.082,1071.636,832.779,1083.333,847.21,1083.333z"/>
	</g>
	<g>
		<g>
			<path style="fill:#74A1BD;" d="M1668.217,687.81c-0.455-0.106-11.201-2.713-14.57-10.809c-1.937-4.654-0.997-10.138,2.794-16.297
				c1.613-2.622,3.101-4.993,4.462-7.164c9.214-14.689,12.661-20.186,10.181-32.005l1.037-0.217
				c2.567,12.236-0.942,17.831-10.32,32.783c-1.36,2.169-2.847,4.538-4.458,7.157c-3.601,5.851-4.515,11.01-2.719,15.331
				c3.156,7.595,13.729,10.164,13.837,10.19L1668.217,687.81z"/>
		</g>
		<g>
			<path style="fill:#74A1BD;" d="M1671.602,621.428c0,0,4.187,18.952-8.37,38.791c-12.557,19.839,1.11,34.336,18.121,26.706
				c17.011-7.631,23.496,14.058,45.243,2.069C1748.342,677.005,1671.602,621.428,1671.602,621.428z"/>
		</g>
		<g>
			<path style="fill:#E28569;" d="M1920.877,780.286c-3.069,1.323-6.468,2.065-10.024,2.065h-322.555
				c-3.018,0-5.907-0.529-8.596-1.493c13.582-23.768,48.244-63.236,131.204-73.643l0.116-0.021c7.242-0.9,14.643-2.234,22.371-2.795
				c12.989-0.921,25.927,0.159,38.716,0.836h0.031c0.043,0.012,0.075,0.012,0.117,0.012
				C1876.327,710.771,1910.174,756.053,1920.877,780.286z"/>
		</g>
		<g>
			<path style="fill:#F7B686;" d="M1772.108,705.234c-9.396-1.007-17.559-6.904-21.296-15.583l-11.713-27.199l-3.398-7.894
				l-19.983-46.417l3.464,48.103l2.084,28.872l0.594,8.232c0.484,6.715-4.21,12.657-10.837,13.849l-0.115,0.021
				c-3.556,5.783-8.469,17.538,6.206,22.208c17.245,5.488,45.137-8.086,55.146-24.174
				C1772.209,705.246,1772.159,705.239,1772.108,705.234z"/>
		</g>
		<g>
			<path style="fill:#2F1A31;" d="M1739.149,661.656c-0.008,0.265-0.025,0.53-0.05,0.796c-1.146,15.507-17.733,22.75-17.733,22.75
				l-0.101-0.086l-2.084-28.872c5.072-1.858,12.293-3.767,16.52-1.686C1737.91,655.644,1739.3,657.819,1739.149,661.656z"/>
		</g>
		<g>
			<ellipse style="fill:#F7B686;" cx="1713.533" cy="615.834" rx="45.195" ry="55.759"/>
		</g>
		<g>
			<path style="fill:#F7B686;" d="M1752.685,624.243c-5.119,4.89-12.278,5.39-15.988,1.12c-3.711-4.271-2.57-11.694,2.55-16.584
				c5.12-4.888,12.277-5.389,15.988-1.118C1758.945,611.932,1757.804,619.356,1752.685,624.243z"/>
		</g>
		<g>
			<path style="fill:#DB6B49;" d="M1689.194,651.915c0,0,15.438,0.357,30.877-5.067c0,0,1.283,15.217-15.438,16.237
				C1694.908,663.678,1689.194,651.915,1689.194,651.915z"/>
		</g>
		<g>
			<path style="fill:#FFFFFF;" d="M1689.194,651.915c0,0,3.735,3.1,12.452,3.063c8.716-0.038,18.425-8.13,18.425-8.13
				S1701.468,651.96,1689.194,651.915z"/>
		</g>
		<g>
			<g>
				<path style="fill:#060633;" d="M1709.162,616.372c-0.301-0.082-0.562-0.299-0.687-0.61c-0.21-0.527,0.044-1.124,0.571-1.336
					c0.31-0.125,7.229-3.683,13.309,2.967c0.383,0.42,0.375,1.064-0.037,1.455c-0.412,0.391-0.982,0.28-1.454-0.037
					c-4.721-3.173-10.794-2.578-11.053-2.475C1709.598,616.421,1709.37,616.429,1709.162,616.372z"/>
			</g>
		</g>
		<g>
			<path style="fill:#060633;" d="M1717.296,627.669c0.078,2.452-1.301,4.486-3.08,4.543c-1.779,0.057-3.285-1.886-3.362-4.338
				c-0.078-2.452,1.301-4.486,3.08-4.542C1715.713,623.274,1717.218,625.217,1717.296,627.669z"/>
		</g>
		<g>
			<g>
				<path style="fill:#060633;" d="M1672.469,621.731c-0.311,0.038-0.633-0.063-0.867-0.304c-0.395-0.407-0.388-1.056,0.019-1.452
					c0.239-0.233,5.281-6.159,13.436-2.326c0.514,0.242,0.751,0.841,0.521,1.357c-0.232,0.52-0.802,0.635-1.359,0.522
					c-5.574-1.136-10.961,1.728-11.162,1.921C1672.889,621.611,1672.683,621.704,1672.469,621.731z"/>
			</g>
		</g>
		<g>
			<path style="fill:#060633;" d="M1684.293,629.078c1.005,2.237,0.505,4.643-1.119,5.373c-1.623,0.73-3.755-0.492-4.762-2.729
				c-1.005-2.237-0.505-4.643,1.119-5.372C1681.154,625.619,1683.286,626.841,1684.293,629.078z"/>
		</g>
		<g>
			<path style="fill:#74A1BD;" d="M1694.343,570.183c0,0,0.974,19.345,25.134,22.644c24.16,3.298,35.211,17.025,31.965,34.431
				c-3.244,17.404-36.576,50.005-7.954,63.991c28.621,13.985,22.531-12.093,53.561-6.047c31.03,6.047,36.625-35.389,15.261-59.435
				c-21.365-24.047-12.712-87.68-92.832-84.857c-80.12,2.82-50.767,66.742-50.767,66.742S1694.391,591.548,1694.343,570.183z"/>
		</g>
		<g>
			<path style="fill:#FFFFFF;" d="M1751.728,694.83c-6.028-2.435-9.734-6.06-11.014-10.774
				c-3.522-12.975,11.599-32.574,24.938-49.866c3.512-4.552,6.828-8.85,9.767-12.952c8.156-11.389,8.858-24.433,1.876-34.893
				c-7.658-11.473-22.243-16.322-38.061-12.652c-15.764,3.657-26.609,0.354-32.933-3.059c-6.868-3.708-9.948-8.218-10.076-8.408
				l0.541-0.363c0.122,0.182,12.581,18.09,42.32,11.194c16.093-3.731,30.94,1.222,38.751,12.925
				c7.032,10.537,6.309,24.191-1.89,35.637c-2.944,4.111-6.265,8.414-9.779,12.971c-13.247,17.171-28.263,36.635-24.826,49.297
				c1.24,4.571,4.718,7.953,10.629,10.34L1751.728,694.83z"/>
		</g>
		<g>
			<path style="fill:#FFFFFF;" d="M1675.609,658.276c-1.584,0-3.197-0.297-4.813-0.892c-6.795-2.501-12.765-9.998-15.971-20.051
				c-5.217-16.359-1.546-34.594,8.184-40.646c3.604-2.243,7.66-2.637,11.721-1.141c6.795,2.502,12.766,9.997,15.971,20.051
				c5.217,16.359,1.546,34.595-8.183,40.646C1680.347,657.595,1678.012,658.276,1675.609,658.276z M1669.932,596.674
				c-2.039,0-4.02,0.577-5.86,1.722c-8.995,5.597-12.282,22.79-7.327,38.327c3.018,9.468,8.531,16.486,14.748,18.774
				c3.46,1.275,6.904,0.94,9.964-0.961c8.995-5.597,12.283-22.79,7.328-38.327l0,0c-3.019-9.467-8.532-16.485-14.748-18.775
				C1672.658,596.928,1671.281,596.674,1669.932,596.674z"/>
		</g>
		<g style="opacity:0.3;">
			<path style="fill:#FFFFFF;" d="M1742.981,604.935c3.626,15.921-2.169,33.015-12.944,38.18
				c-10.774,5.165-22.449-3.554-26.076-19.474c-3.626-15.921,2.17-33.015,12.945-38.181
				C1727.681,580.296,1739.355,589.015,1742.981,604.935z"/>
		</g>
		<g style="opacity:0.3;">
			<path style="fill:#FFFFFF;" d="M1691.128,616.912c3.636,15.994-1.205,33.338-10.812,38.737
				c-9.607,5.399-20.342-3.188-23.978-19.182c-3.636-15.994,1.205-33.337,10.812-38.737
				C1676.758,592.331,1687.493,600.918,1691.128,616.912z"/>
		</g>
		<g>
			<path style="fill:#FFFFFF;" d="M1722.437,645.09c-2.507,0-5.013-0.591-7.449-1.773c-6.941-3.368-12.242-10.977-14.543-20.872
				c-3.955-17.016,2.487-35.393,14.36-40.967c4.794-2.25,9.86-2.211,14.65,0.115c6.942,3.367,12.242,10.976,14.543,20.872
				c3.955,17.015-2.487,35.394-14.36,40.967C1727.282,644.537,1724.859,645.09,1722.437,645.09z M1722.006,581.837
				c-2.136,0-4.271,0.487-6.346,1.462c-11.062,5.192-17.009,22.548-13.256,38.689c2.13,9.166,7.162,16.461,13.461,19.518
				c4.224,2.051,8.691,2.087,12.917,0.104c11.062-5.192,17.009-22.549,13.256-38.69c-2.13-9.164-7.162-16.461-13.46-19.518
				C1726.428,582.359,1724.216,581.837,1722.006,581.837z"/>
		</g>
		<g>
			<path style="fill:#FFFFFF;" d="M1688.995,622.859c-0.543,0-1.081-0.231-1.451-0.683c-0.655-0.798-0.549-1.973,0.245-2.632
				c0.256-0.214,6.367-5.182,16.592-3.165c1.018,0.201,1.681,1.189,1.479,2.207c-0.2,1.017-1.191,1.682-2.205,1.479
				c-8.388-1.654-13.27,2.209-13.473,2.374C1689.834,622.723,1689.414,622.859,1688.995,622.859z"/>
		</g>
	</g>
	<g>
		<g>
			<path style="fill:#2F1A31;" d="M1923.006,1079.6c-3.61,2.384-7.749,3.729-12.153,3.729h-322.555c-2.54,0-4.997-0.444-7.315-1.294
				c22.35-21.713,65.364-55.777,124.154-67.28c4.318-0.85,8.723-1.585,13.212-2.169c4.172-0.546,8.417-0.977,12.736-1.28
				c15.034-1.041,30.046-0.178,44.772,1.763c3.663,0.481,7.241,1.002,10.746,1.56
				C1860.775,1026.447,1901.218,1054.83,1923.006,1079.6z"/>
		</g>
		<g>
			<path style="fill:#F7B686;" d="M1770.852,1026.916c6.66-10.242-2.909-11.129-5.936-21.481l-9.367-32.034l-2.725-9.326
				l-16.029-54.834l-3.095,54.24l-1.852,32.557l-0.587,10.306c-0.398,6.994-2.32,7.956-7.61,13.957
				c-2.144,2.431-10.146,12.263,0.088,17.203C1732.919,1041.936,1762.36,1039.974,1770.852,1026.916z"/>
		</g>
		<g>
			<path style="fill:#2F1A31;" d="M1767.765,961.069c0,0,53.402-18.639,45.438-58.37c-7.965-39.731-48.688,35.95-48.688,35.95
				l-2.153,20.78L1767.765,961.069z"/>
		</g>
		<g>
			<path style="fill:#2F1A31;" d="M1755.723,972.519c-0.048,0.294-0.105,0.589-0.174,0.881
				c-3.583,17.146-23.599,22.747-23.599,22.747l-0.102-0.11l1.852-32.557c6.067-1.315,14.6-2.363,19.124,0.594
				C1755.189,965.62,1756.457,968.258,1755.723,972.519z"/>
		</g>
		<g>
			<path style="fill:#F7B686;" d="M1685.434,917.463c4.145-31.575,28.733-54.384,54.918-50.946
				c26.186,3.438,44.053,31.821,39.907,63.396s-28.733,54.384-54.919,50.945C1699.154,977.42,1681.288,949.037,1685.434,917.463z"/>
		</g>
		<g>
			<path style="fill:#2F1A31;" d="M1774.187,922.331c0,0-15.759,3.185-22.449-8.559c-6.69-11.743-10.632-21.793-37.973-20.767
				c-27.341,1.026-49.503-15.017-48.347-29.579c1.155-14.564,16.119-19.343,29.853-12.381c13.732,6.962,0.196-8.329,15.899-17.08
				c15.703-8.751,34.294,15.995,49.504,15.019c15.209-0.979,61.438,13.109,52.528,53.715L1774.187,922.331z"/>
		</g>
		<g>
			<path style="fill:#F7B686;" d="M1780.156,933.973c-4.849,3.084-11.014,2.072-13.77-2.26c-2.757-4.332-1.061-10.345,3.787-13.429
				c4.849-3.085,11.013-2.074,13.77,2.259C1786.699,924.875,1785.004,930.888,1780.156,933.973z"/>
		</g>
		<g>
			<path style="fill:#FFFFFF;" d="M1700.991,871.269c-4.865,0-8.513-0.946-10.89-2.833c-4.143-3.289-4.418-6.222-3.296-7.867
				c1.331-1.951,4.991-2.646,8.813-0.429c6.546,3.796,11.346,3.186,11.397,3.178l0.091,0.647c-0.204,0.026-5.058,0.659-11.815-3.261
				c-3.494-2.026-6.783-1.474-7.946,0.23c-0.958,1.405-0.63,3.979,3.163,6.99c7.848,6.229,28.961-0.367,29.174-0.435l0.197,0.621
				c-0.054,0.019-5.449,1.717-11.763,2.606C1705.51,871.086,1703.132,871.269,1700.991,871.269z"/>
		</g>
		<g>
			<path style="fill:#FFFFFF;" d="M1787.788,861.571c-5.593-3.955-12.444-3.561-20.379-3.105c-4.019,0.232-8.172,0.472-12.706,0.222
				c-13.627-0.747-24.94-13.664-25.337-14.974l0.626-0.189l-0.313,0.095l0.313-0.096c0.276,0.808,11.07,13.762,24.748,14.512
				c4.491,0.247,8.631,0.01,12.633-0.221c8.055-0.464,15.013-0.864,20.794,3.224L1787.788,861.571z"/>
		</g>
		<g>
			<path style="fill:#FFFFFF;" d="M1803.579,895.287c-0.026,0-0.053-0.001-0.079-0.003c-2.048-0.132-5.29-6.207-5.395-9.296
				c-0.055-1.579,0.729-1.92,1.201-1.983c3.831-0.514,5.653,8.803,5.729,9.2l0.011,0.057l-0.01,0.057
				C1804.774,894.927,1804.115,895.287,1803.579,895.287z M1799.602,884.638c-0.069,0-0.139,0.004-0.209,0.015
				c-0.168,0.022-0.678,0.09-0.636,1.315c0.1,2.896,3.229,8.566,4.784,8.667c0.467,0.027,0.73-0.712,0.843-1.364
				C1803.895,890.767,1802.139,884.638,1799.602,884.638z"/>
		</g>
		<g>
			<g>
				<path style="fill:#060633;" d="M1723.861,921.273c-0.248-0.158-0.424-0.426-0.449-0.74c-0.044-0.534,0.351-1.001,0.884-1.046
					c0.313-0.027,7.535-1.318,11.173,6.359c0.229,0.483,0.044,1.062-0.436,1.301c-0.479,0.238-0.963-0.019-1.301-0.436
					c-3.376-4.168-9.015-5.313-9.276-5.292C1724.239,921.435,1724.032,921.38,1723.861,921.273z"/>
			</g>
		</g>
		<g>
			<path style="fill:#060633;" d="M1728.063,933.707c-0.608,2.232-2.415,3.683-4.034,3.24c-1.619-0.441-2.438-2.609-1.83-4.84
				c0.609-2.231,2.415-3.683,4.034-3.241C1727.854,929.308,1728.673,931.475,1728.063,933.707z"/>
		</g>
		<g>
			<g>
				<path style="fill:#060633;" d="M1688,918.394c-0.225-0.039-0.424-0.208-0.524-0.483c-0.171-0.463-0.003-1.049,0.377-1.31
					c0.224-0.155,5.199-4.311,9.883,1.122c0.296,0.342,0.31,0.94,0.02,1.355c-0.29,0.413-0.714,0.381-1.071,0.145
					c-3.573-2.369-8.021-1.069-8.207-0.942C1688.32,918.387,1688.154,918.421,1688,918.394z"/>
			</g>
		</g>
		<g>
			<path style="fill:#060633;" d="M1696.84,928.328c0.286,2.295-0.83,4.325-2.496,4.533c-1.666,0.208-3.249-1.483-3.536-3.778
				s0.83-4.325,2.495-4.533C1694.969,924.341,1696.552,926.033,1696.84,928.328z"/>
		</g>
		<g>
			<g>
				<path style="fill:#020202;" d="M1722.422,964.258c-8.609,0-15.33-5.258-15.428-5.335c-0.292-0.232-0.34-0.658-0.106-0.95
					c0.233-0.29,0.657-0.339,0.951-0.108c0.538,0.43,13.341,10.407,26.014,1.231c0.305-0.221,0.727-0.151,0.945,0.15
					c0.219,0.303,0.151,0.727-0.151,0.945C1730.477,963.211,1726.262,964.258,1722.422,964.258z"/>
			</g>
			<g>
				<path style="fill:#020202;" d="M1735.212,962.983c-0.023,0-0.047-0.001-0.071-0.004c-0.371-0.038-0.642-0.371-0.603-0.743
					c0.102-0.978-0.15-2.654-1.924-5.095c-0.064-0.089-0.108-0.152-0.128-0.184c-0.199-0.316-0.104-0.733,0.213-0.933
					c0.315-0.197,0.731-0.104,0.931,0.209l0.079,0.111c1.626,2.236,2.358,4.267,2.175,6.031
					C1735.848,962.725,1735.554,962.983,1735.212,962.983z"/>
			</g>
		</g>
		<g>
			<path style="fill:#FFFFFF;" d="M1683.74,957.019c-2.438,0.001-4.835-0.709-7.09-2.118c-6.141-3.835-10.456-12.392-11.544-22.889
				c-1.768-17.081,5.546-34.182,16.306-38.121c3.985-1.46,8.036-1.019,11.708,1.274c6.141,3.836,10.456,12.392,11.543,22.889
				c1.769,17.08-5.546,34.183-16.305,38.121C1686.82,956.738,1685.271,957.019,1683.74,957.019z M1686.016,895.065
				c-1.298,0-2.608,0.237-3.911,0.715c-9.948,3.642-16.677,19.803-14.996,36.025c1.023,9.884,4.989,17.88,10.607,21.389
				c3.128,1.953,6.569,2.33,9.95,1.092c9.949-3.642,16.676-19.804,14.995-36.025c-1.023-9.884-4.988-17.88-10.606-21.39
				C1690.132,895.67,1688.091,895.065,1686.016,895.065z"/>
		</g>
		<g style="opacity:0.3;">
			<path style="fill:#FFFFFF;" d="M1758.019,918.284c0.302,16.325-8.86,31.877-20.463,34.735
				c-11.603,2.858-21.253-8.06-21.554-24.386c-0.301-16.324,8.861-31.876,20.464-34.734
				C1748.068,891.042,1757.718,901.959,1758.019,918.284z"/>
		</g>
		<g style="opacity:0.3;">
			<path style="fill:#FFFFFF;" d="M1704.813,919.428c0.295,16.399-7.982,32.39-18.489,35.716
				c-10.507,3.325-19.264-7.273-19.558-23.671c-0.296-16.398,7.981-32.389,18.487-35.715
				C1695.761,892.432,1704.517,903.028,1704.813,919.428z"/>
		</g>
		<g>
			<path style="fill:#FFFFFF;" d="M1733.006,953.739c-3.662,0-7.139-1.213-10.225-3.594c-6.107-4.714-9.745-13.243-9.978-23.401
				c-0.399-17.464,9.657-34.141,22.418-37.174c5.153-1.224,10.104-0.151,14.319,3.102c6.108,4.715,9.745,13.244,9.977,23.401
				c0.4,17.465-9.657,34.141-22.417,37.174C1735.719,953.575,1734.35,953.739,1733.006,953.739z M1739.293,891.094
				c-1.184,0-2.389,0.143-3.606,0.433c-11.888,2.827-21.251,18.604-20.872,35.172c0.216,9.407,3.654,17.577,9.196,21.854
				c3.719,2.87,8.085,3.816,12.624,2.737c11.889-2.825,21.252-18.604,20.873-35.171c-0.216-9.407-3.653-17.576-9.196-21.853
				C1745.591,892.165,1742.522,891.094,1739.293,891.094z"/>
		</g>
		<g>
			<path style="fill:#FFFFFF;" d="M1717.162,925.22c-0.244,0-0.492-0.048-0.73-0.149c-7.969-3.368-13.605-0.46-13.662-0.43
				c-0.918,0.486-2.055,0.139-2.54-0.777c-0.487-0.916-0.14-2.053,0.776-2.54c0.294-0.156,7.294-3.771,16.89,0.288
				c0.955,0.404,1.401,1.506,0.997,2.461C1718.59,924.79,1717.895,925.22,1717.162,925.22z"/>
		</g>
		<g>
			<path style="fill:#2F1A31;" d="M1813.44,903.172l-0.477-0.946c7.714-3.881,5.741-12.379,5.721-12.464l1.028-0.251
				C1819.735,889.604,1821.897,898.916,1813.44,903.172z"/>
		</g>
		<g>
			<path style="fill:#2F1A31;" d="M1819.018,914.489c-0.041-0.065-4.173-6.397-8.668-7.396l0.23-1.033
				c4.92,1.094,9.149,7.578,9.327,7.854L1819.018,914.489z"/>
		</g>
	</g>
	<g>
		<g>
			<path style="fill:#56335B;" d="M1406.405,582.984c0,0,3.399,13.024,0,29.355c-3.399,16.33-20.009-23.81-20.009-23.81
				L1406.405,582.984z"/>
		</g>
		<g>
			<path style="fill:#7CA1CE;" d="M1518.106,782.255c-0.73,0.064-1.472,0.096-2.224,0.096H1193.34
				c-6.14,0-11.762-2.182-16.156-5.813c18.92-19.839,59.892-51.737,133.884-61.933c2.265-0.318,4.563-0.604,6.892-0.879
				c2.267-0.265,4.553-0.508,6.829-0.709c5.526-0.52,11.095-0.868,16.675-1.038c7.062-0.211,14.165-0.138,21.27,0.275
				c0.518,0.032,1.026,0.063,1.534,0.096c0.181,0.021,0.36,0.031,0.53,0.042c5.865,0.445,11.561,1.271,17.161,1.979
				c2.255,0.285,4.488,0.551,6.723,0.763C1459.401,721.931,1497.959,754.919,1518.106,782.255z"/>
		</g>
		<g>
			<path style="fill:#F7B686;" d="M1325.571,731.552c-13.741-7.876,0.3-16.178,3.326-26.53l9.367-32.034l2.726-9.326l16.027-54.835
				l3.095,54.24l1.853,32.557l0.587,10.307c0.397,6.994,4.688,8.397,9.979,14.398c2.144,2.43,5.953,0.448-10.521,3.227
				C1348.473,725.838,1335.29,737.123,1325.571,731.552z"/>
		</g>
		<g>
			<path style="fill:#F7B686;" d="M1408.38,617.049c-4.146-31.574-28.733-54.383-54.918-50.945
				c-26.186,3.438-44.052,31.821-39.907,63.396c4.146,31.574,28.733,54.383,54.918,50.945
				C1394.659,677.007,1412.525,648.623,1408.38,617.049z"/>
		</g>
		<g>
			<path style="fill:#2F1A31;" d="M1312.361,612.991l23.146-2.401c5.09-0.527,9.745-3.262,12.499-7.573
				c4.742-7.423,10.449-11.234,32.042-10.425c27.341,1.027,45.395-15.273,48.348-29.579c3.014-14.601-10.977-24.499-24.71-17.537
				c-13.732,6.963-7.838-10.111-21.043-11.923c-24.677-3.387-29.3,15.635-49.503,15.017c-26.492-0.809-73.944,19.32-51.438,65.953
				L1312.361,612.991z"/>
		</g>
		<g>
			<g>
				<path style="fill:#060633;" d="M1369.952,620.858c0.249-0.157,0.424-0.425,0.449-0.74c0.044-0.532-0.351-1.001-0.884-1.046
					c-0.313-0.025-7.535-1.317-11.174,6.359c-0.228,0.484-0.043,1.062,0.438,1.301c0.479,0.238,0.962-0.018,1.3-0.436
					c3.376-4.168,9.015-5.313,9.276-5.291C1369.574,621.023,1369.781,620.967,1369.952,620.858z"/>
			</g>
		</g>
		<g>
			<path style="fill:#060633;" d="M1365.75,633.293c0.608,2.231,2.415,3.683,4.034,3.241c1.62-0.442,2.438-2.609,1.83-4.841
				c-0.609-2.232-2.415-3.682-4.034-3.241C1365.96,628.894,1365.141,631.062,1365.75,633.293z"/>
		</g>
		<g>
			<g>
				<path style="fill:#060633;" d="M1405.814,617.981c0.225-0.039,0.422-0.209,0.523-0.483c0.172-0.463,0.004-1.049-0.377-1.311
					c-0.224-0.153-5.199-4.31-9.883,1.123c-0.295,0.342-0.31,0.941-0.02,1.355c0.29,0.415,0.714,0.383,1.071,0.145
					c3.573-2.369,8.021-1.069,8.207-0.943C1405.492,617.973,1405.659,618.008,1405.814,617.981z"/>
			</g>
		</g>
		<g>
			<path style="fill:#060633;" d="M1396.975,627.914c-0.287,2.296,0.83,4.325,2.495,4.534c1.666,0.208,3.249-1.483,3.536-3.779
				c0.287-2.295-0.83-4.324-2.495-4.532C1398.845,623.928,1397.262,625.62,1396.975,627.914z"/>
		</g>
		<g>
			<path style="fill:#56335B;" d="M1281.702,614.523c0,0,15.982,34.494,38.65,37.025c0,0-18.33-26.288,20.303-42.31
				C1340.655,609.238,1305.186,603.658,1281.702,614.523z"/>
		</g>
		<g>
			<path style="fill:#F7B686;" d="M1313.657,633.559c4.849,3.085,11.014,2.073,13.77-2.259c2.757-4.332,1.061-10.345-3.787-13.43
				c-4.849-3.084-11.013-2.073-13.769,2.26C1307.114,624.462,1308.81,630.474,1313.657,633.559z"/>
		</g>
		<g>
			<path style="fill:#56335B;" d="M1340.655,609.238c0,0-3.094,28.948,2.798,34.42c5.893,5.472,44.795,7.827,62.952,0.811l0,0
				c0.302,18.592-12.802,35.004-31.138,38.085c-6.066,1.019-12.342,1.026-18.575-0.064l0,0
				c-12.709-2.222-25.066-7.479-30.306-19.269c-1.595-3.588,3.044-25.658,3.044-25.658s1.743-12.952-5.791-19.692
				C1323.64,617.87,1332.338,610.052,1340.655,609.238z"/>
		</g>
		<g>
			<path style="fill:#FFFFFF;" d="M1396.821,654.91c0,0-14.905,4.034-31.192,2.457c0,0,2.39,15.082,18.869,12.076
				C1394.083,667.697,1396.821,654.91,1396.821,654.91z"/>
		</g>
		<g>
			<path style="fill:#2F1A31;" d="M1400.748,543.199c-7.17,0-7.816-6.189-7.821-6.254l1.299-0.117l-0.649,0.059l0.649-0.062
				c0.021,0.216,0.556,5.254,6.882,5.063l0.039,1.303C1401.012,543.197,1400.879,543.199,1400.748,543.199z"/>
		</g>
		<g>
			<path style="fill:#FFFFFF;" d="M1387.796,584.929l-0.182-0.626c0.294-0.086,29.384-8.71,30.588-23.686
				c0.341-4.235-0.367-7.046-2.165-8.595c-2.885-2.483-8.133-1.258-12.764-0.176c-0.713,0.165-1.408,0.328-2.077,0.473l-0.139-0.639
				c0.667-0.144,1.359-0.305,2.067-0.471c4.783-1.115,10.203-2.381,13.337,0.318c1.968,1.693,2.749,4.685,2.391,9.141
				c-0.516,6.404-6.063,12.632-16.046,18.014C1395.313,582.723,1387.87,584.907,1387.796,584.929z"/>
		</g>
		<g>
			<path style="fill:#FFFFFF;" d="M1330.5,554.555c-2.738,0-5.646-0.185-8.725-0.602l0.089-0.647
				c28.415,3.847,42.077-12.118,42.211-12.28l0.501,0.419C1364.453,541.592,1353.357,554.555,1330.5,554.555z"/>
		</g>
		<g>
			<path style="fill:#96B4E0;" d="M1311.054,714.615c0,0,10.119-20.511,18.022-17.636c4.485,1.629,8.617,16.471,21.881,21.036
				c13.265,4.567,12.178,6.523,11.96,10.872c-0.218,4.349,1.522,19.352-4.35,20.005
				C1352.696,749.545,1307.245,740.351,1311.054,714.615z"/>
		</g>
		<g>
			<path style="fill:#96B4E0;" d="M1361.578,703.13c-0.064-1.242,1.226-2.101,2.365-1.602c4.231,1.862,15.274,7.301,19.34,14.966
				c5.074,9.567-1.525,29.354-6.488,29.789c-4.964,0.436-15.911-20.017-14.786-22.729c1.126-2.711,3.348-9.119,1.892-12.534
				C1362.908,708.691,1361.696,705.398,1361.578,703.13z"/>
		</g>
	</g>
	<g>
		<g>
			<path style="fill:#E28569;" d="M1250.124,1064.213c-10.711,0-21.886-5.345-31.541-15.1c-9.153-9.248-16.328-21.951-19.685-34.852
				c-6.47-24.864,1.553-46.055,21.46-56.681c46.876-25.025,52.154-48.729,52.202-48.964l3.116,0.61
				c-0.197,1.021-5.407,25.309-53.822,51.154c-8.896,4.749-28.639,19.427-19.882,53.079c3.221,12.375,10.097,24.556,18.867,33.418
				c9.219,9.314,19.797,14.355,29.826,14.152l0.06,3.175C1250.525,1064.21,1250.324,1064.213,1250.124,1064.213z"/>
		</g>
		<g>
			<path style="fill:#E28569;" d="M1360.709,834.742c0,0,33.405,1.563,52.643,29.201c29,41.666-19.217,74.607,0.656,91.711
				c19.135,16.469,40.538,5.479,33.671,28.104c-6.868,22.627,41.937,13.537,22.124,57.614
				c-19.814,44.076-206.782,28.198-232.381,12.34c-18.4-11.398-52.616-57.44,2.802-100.987
				C1295.643,909.179,1257.878,824.045,1360.709,834.742z"/>
		</g>
		<g>
			<path style="fill:#CFD3A3;" d="M1505.158,1083.328H1193.34c-6.003,0-11.529-2.097-15.87-5.601
				c9.021-14.366,26.246-34.238,57.688-49.166c20.932-9.962,48.172-17.723,83.468-20.231c0.054,0,0.106-0.011,0.159-0.011h0.011
				c12.778-0.9,25.716-1.758,38.705-0.837c7.729,0.561,15.13,1.885,22.371,2.795l0.116,0.022
				c42.115,5.357,72.543,21.492,93.971,39.14C1487.943,1060.947,1498.086,1073.101,1505.158,1083.328z"/>
		</g>
		<g>
			<path style="fill:#F7B686;" d="M1323.754,1018.998c-4.185-6.277,5.536-12.672,8.1-21.768l8.033-28.503l2.328-8.273l13.704-48.643
				l2.895,48.142l1.732,28.895l0.489,8.141c0.303,5.054,1.873,8.778,5.525,10.721c3.776,2.008,6.74,5.314,7.72,9.477
				c1.235,5.248,0.846,11.723-6.591,15.223C1351.317,1040.117,1330.459,1029.056,1323.754,1018.998z"/>
		</g>
		<g>
			<path style="fill:#2F1A31;" d="M1339.732,967.944c0.043,0.262,0.094,0.523,0.154,0.782c3.176,15.221,20.571,20.22,20.571,20.22
				l0.089-0.099l-1.733-28.895c-5.271-1.176-12.683-2.118-16.599,0.501C1340.169,961.822,1339.078,964.161,1339.732,967.944z"/>
		</g>
		<g>
			<path style="fill:#F7B686;" d="M1403.898,913.204c-4.052-30.527-27.395-52.611-52.138-49.328
				c-24.743,3.285-41.519,30.693-37.467,61.221c4.052,30.526,27.395,52.612,52.138,49.327
				C1391.176,971.14,1407.949,943.731,1403.898,913.204z"/>
		</g>
		<g>
			<g>
				<path style="fill:#060633;" d="M1363.5,919.108c0.288-0.121,0.517-0.37,0.6-0.695c0.139-0.55-0.19-1.108-0.74-1.249
					c-0.323-0.082-7.651-2.7-12.803,4.692c-0.324,0.466-0.232,1.103,0.229,1.437c0.459,0.334,1.01,0.149,1.436-0.228
					c4.263-3.767,10.361-3.975,10.63-3.908C1363.075,919.214,1363.302,919.191,1363.5,919.108z"/>
			</g>
		</g>
		<g>
			<path style="fill:#060633;" d="M1356.923,931.378c0.246,2.441,1.88,4.275,3.652,4.098c1.771-0.179,3.008-2.302,2.763-4.743
				c-0.246-2.439-1.88-4.274-3.651-4.097C1357.915,926.813,1356.679,928.937,1356.923,931.378z"/>
		</g>
		<g>
			<g>
				<path style="fill:#060633;" d="M1400.58,919.593c0.313-0.003,0.619-0.145,0.82-0.414c0.337-0.455,0.245-1.098-0.21-1.438
					c-0.268-0.199-6.046-5.41-13.625-0.538c-0.478,0.308-0.634,0.932-0.337,1.415c0.299,0.483,0.877,0.522,1.415,0.337
					c5.377-1.858,11.095,0.272,11.318,0.436C1400.147,919.529,1400.365,919.594,1400.58,919.593z"/>
			</g>
		</g>
		<g>
			<path style="fill:#060633;" d="M1389.825,928.432c-0.702,2.352,0.109,4.669,1.815,5.18s3.658-0.981,4.361-3.332
				s-0.109-4.67-1.815-5.179C1392.481,924.59,1390.529,926.082,1389.825,928.432z"/>
		</g>
		<g>
			<path style="fill:#F7B686;" d="M1321.392,932.638c5.718,4.172,12.88,3.727,15.997-0.994c3.117-4.721,1.008-11.931-4.709-16.104
				c-5.719-4.172-12.881-3.727-15.998,0.995C1313.566,921.256,1315.674,928.466,1321.392,932.638z"/>
		</g>
		<g>
			<path style="fill:#E28569;" d="M1370.947,882.516c0,0,20.276-8.726,25.186,12.009c4.115,17.373,8.308,23.751,13.88,21.112
				c5.572-2.636-11.989-46.696-11.989-46.696l-31.872-8.603l-8.249,1.413L1370.947,882.516z"/>
		</g>
		<g>
			<path style="fill:#E28569;" d="M1370.947,882.516c0,0-17.478-11.987-30.742,4.579c-13.266,16.566-8.857,41.929-26.729,46.097
				c-17.872,4.169-31.029-54.883-7.421-67.887s38.273-16.515,45.678-10.339C1359.139,861.141,1370.947,882.516,1370.947,882.516z"/>
		</g>
		<g>
			<path style="fill:#FFFFFF;" d="M1293.896,934.293l-0.209-1.038c17.429-3.519,20.803-13.537,24.711-25.137
				c2.724-8.083,5.81-17.245,14.256-25.195c20.358-19.162,37.901-5.128,38.076-4.984l-0.673,0.817
				c-0.687-0.562-17.015-13.571-36.678,4.938c-8.253,7.768-11.164,16.407-13.978,24.762
				C1315.39,920.366,1311.924,930.652,1293.896,934.293z"/>
		</g>
		<g>
			<g>
				<path style="fill:#FFFFFF;" d="M1398.281,955.201c-2.02,0-4.023-0.456-5.957-1.369c-10.211-4.816-15.395-21.322-11.554-36.794
					l0,0c2.278-9.177,7.394-16.438,13.683-19.426c4.066-1.93,8.3-1.967,12.244-0.107c10.211,4.817,15.394,21.323,11.553,36.796
					c-2.277,9.177-7.394,16.439-13.683,19.424C1402.496,954.709,1400.38,955.201,1398.281,955.201z M1382.645,917.503
					c-3.629,14.625,1.082,30.139,10.504,34.583c3.402,1.606,7.066,1.567,10.591-0.105c5.771-2.74,10.496-9.524,12.637-18.146
					c3.63-14.625-1.082-30.138-10.504-34.583c-3.402-1.606-7.064-1.569-10.591,0.106
					C1389.51,902.1,1384.786,908.883,1382.645,917.503L1382.645,917.503z"/>
			</g>
			<g style="opacity:0.3;">
				<path style="fill:#FFFFFF;" d="M1328.011,917.975c-2.283,14.909,4.92,30.171,16.09,34.087
					c11.169,3.917,22.074-4.994,24.357-19.904c2.282-14.909-4.92-30.171-16.09-34.087
					C1341.2,894.153,1330.295,903.065,1328.011,917.975z"/>
			</g>
			<g style="opacity:0.3;">
				<path style="fill:#FFFFFF;" d="M1380.412,918.305c-2.286,14.978,3.986,30.541,14.011,34.764
					c10.024,4.223,20.005-4.496,22.291-19.474c2.286-14.978-3.986-30.541-14.011-34.764
					C1392.679,894.608,1382.699,903.328,1380.412,918.305z"/>
			</g>
			<g>
				<path style="fill:#FFFFFF;" d="M1350.468,953.362c-1.971,0-3.956-0.33-5.905-0.997c-12.302-4.207-20.255-20.626-17.729-36.601
					l0,0c1.406-8.898,5.798-16.161,12.049-19.927c4.669-2.813,10.07-3.394,15.211-1.636c12.301,4.208,20.254,20.627,17.729,36.602
					c-1.405,8.898-5.798,16.161-12.049,19.928C1356.874,952.477,1353.693,953.362,1350.468,953.362z M1348.147,895.12
					c-2.854,0-5.651,0.795-8.269,2.372c-5.762,3.471-9.82,10.24-11.138,18.574l0,0c-2.385,15.09,4.993,30.554,16.446,34.472
					c4.657,1.592,9.355,1.088,13.588-1.462c5.761-3.471,9.82-10.24,11.138-18.574c2.386-15.09-4.992-30.554-16.445-34.472
					C1351.69,895.422,1349.908,895.12,1348.147,895.12z"/>
			</g>
			<g>
				<path style="fill:#FFFFFF;" d="M1382.881,926.104c-0.368,0-0.74-0.108-1.066-0.334c-0.236-0.16-5.417-3.582-13.621-1.238
					c-0.997,0.288-2.037-0.291-2.322-1.29c-0.285-0.997,0.293-2.036,1.29-2.321c10.015-2.864,16.526,1.575,16.798,1.767
					c0.851,0.594,1.058,1.766,0.463,2.615C1384.058,925.823,1383.475,926.104,1382.881,926.104z"/>
			</g>
		</g>
		<g>
			<g>
				<path style="fill:#020202;" d="M1369.852,961.89c-3.84,0-8.056-1.047-12.226-4.066c-0.303-0.219-0.371-0.642-0.151-0.945
					c0.219-0.302,0.642-0.371,0.945-0.15c12.691,9.189,25.881-1.124,26.014-1.229c0.293-0.233,0.719-0.185,0.951,0.107
					c0.233,0.292,0.186,0.718-0.106,0.95C1385.182,956.632,1378.458,961.89,1369.852,961.89z"/>
			</g>
			<g>
				<path style="fill:#020202;" d="M1357.062,960.615c-0.344,0-0.637-0.26-0.673-0.607c-0.183-1.762,0.549-3.789,2.172-6.026
					l0.082-0.114c0.205-0.308,0.621-0.4,0.934-0.201c0.312,0.201,0.406,0.608,0.211,0.922c-0.02,0.032-0.064,0.098-0.131,0.188
					c-1.771,2.441-2.022,4.117-1.921,5.093c0.037,0.372-0.232,0.704-0.604,0.743
					C1357.107,960.614,1357.084,960.615,1357.062,960.615z"/>
			</g>
		</g>
	</g>
	<g>
		<g>
			<path style="fill:#56335B;" d="M891.941,823.7c0,7.78-3.164,14.833-8.264,19.931c-5.099,5.072-12.109,8.236-19.894,8.236
				c-7.784,0-14.796-3.164-19.896-8.236c-5.099-5.098-8.262-12.15-8.262-19.931c0-15.54,12.61-28.168,28.157-28.168
				C879.33,795.532,891.941,808.16,891.941,823.7z"/>
		</g>
		<g>
			<g>
				<path style="fill:#CFD3A3;" d="M853.419,815.154c0-5.722,4.641-10.359,10.364-10.359c5.724,0,10.364,4.638,10.364,10.359
					c0,5.721-4.641,10.358-10.364,10.358C858.06,825.513,853.419,820.875,853.419,815.154z"/>
			</g>
			<g>
				<path style="fill:#CFD3A3;" d="M883.678,843.631c-5.099,5.072-12.109,8.236-19.894,8.236c-7.784,0-14.796-3.164-19.896-8.236
					c2.391-8.76,10.381-15.199,19.896-15.199C873.299,828.432,881.288,834.871,883.678,843.631z"/>
			</g>
		</g>
	</g>
	<g>
		<g>
			<path style="fill:#56335B;" d="M1083.471,846.769h-149.06c-6.466,0-11.755-5.29-11.755-11.755v-22.629
				c0-6.465,5.289-11.755,11.755-11.755h149.06c6.466,0,11.756,5.29,11.756,11.755v22.629
				C1095.227,841.479,1089.937,846.769,1083.471,846.769z"/>
		</g>
		<g>
			<g>
				<path style="fill:#96B4E0;" d="M976.977,818.294h-38.976c-0.882,0-1.603-0.722-1.603-1.603v-0.745
					c0-0.882,0.722-1.604,1.603-1.604h38.976c0.883,0,1.605,0.722,1.605,1.604v0.745
					C978.582,817.572,977.859,818.294,976.977,818.294z"/>
			</g>
			<g>
				<path style="fill:#96B4E0;" d="M994.753,827.651h-56.438c-1.054,0-1.917-0.862-1.917-1.917v-0.117
					c0-1.055,0.863-1.917,1.917-1.917h56.438c1.054,0,1.917,0.862,1.917,1.917v0.117
					C996.67,826.789,995.807,827.651,994.753,827.651z"/>
			</g>
			<g>
				<path style="fill:#96B4E0;" d="M1057.939,827.651h-49.751c-0.992,0-1.804-0.812-1.804-1.803v-0.346
					c0-0.991,0.811-1.803,1.804-1.803h49.751c0.991,0,1.804,0.812,1.804,1.803v0.346
					C1059.743,826.84,1058.931,827.651,1057.939,827.651z"/>
			</g>
			<g>
				<path style="fill:#96B4E0;" d="M1028.429,818.294h-38.976c-0.883,0-1.604-0.722-1.604-1.603v-0.745
					c0-0.882,0.721-1.604,1.604-1.604h38.976c0.883,0,1.604,0.722,1.604,1.604v0.745
					C1030.033,817.572,1029.312,818.294,1028.429,818.294z"/>
			</g>
		</g>
	</g>
	<g>
		<g>
			<path style="fill:#56335B;" d="M891.941,734.442c0,7.781-3.164,14.835-8.264,19.931c-5.099,5.074-12.109,8.237-19.894,8.237
				c-7.784,0-14.796-3.163-19.896-8.237c-5.099-5.096-8.262-12.149-8.262-19.931c0-15.54,12.61-28.167,28.157-28.167
				C879.33,706.275,891.941,718.902,891.941,734.442z"/>
		</g>
		<g>
			
				<ellipse transform="matrix(1 -0.0025 0.0025 1 -1.8401 2.1953)" style="fill:#CFD3A3;" cx="863.783" cy="725.897" rx="10.364" ry="10.359"/>
		</g>
		<g>
			<path style="fill:#CFD3A3;" d="M883.678,754.373c-5.099,5.074-12.109,8.237-19.894,8.237c-7.784,0-14.796-3.163-19.896-8.237
				c2.391-8.76,10.381-15.198,19.896-15.198C873.299,739.175,881.288,745.613,883.678,754.373z"/>
		</g>
	</g>
	<g>
		<g>
			<path style="fill:#56335B;" d="M1083.471,757.512h-149.06c-6.466,0-11.755-5.289-11.755-11.756v-22.627
				c0-6.466,5.289-11.756,11.755-11.756h149.06c6.466,0,11.756,5.29,11.756,11.756v22.627
				C1095.227,752.223,1089.937,757.512,1083.471,757.512z"/>
		</g>
		<g>
			<g>
				<path style="fill:#96B4E0;" d="M976.977,729.037h-38.976c-0.882,0-1.603-0.722-1.603-1.604v-0.745
					c0-0.882,0.722-1.603,1.603-1.603h38.976c0.883,0,1.605,0.722,1.605,1.603v0.745
					C978.582,728.315,977.859,729.037,976.977,729.037z"/>
			</g>
			<g>
				<path style="fill:#96B4E0;" d="M994.753,738.396h-56.438c-1.054,0-1.917-0.862-1.917-1.918v-0.118
					c0-1.055,0.863-1.917,1.917-1.917h56.438c1.054,0,1.917,0.862,1.917,1.917v0.118
					C996.67,737.533,995.807,738.396,994.753,738.396z"/>
			</g>
			<g>
				<path style="fill:#96B4E0;" d="M1057.939,738.396h-49.751c-0.992,0-1.804-0.813-1.804-1.805v-0.345
					c0-0.992,0.811-1.804,1.804-1.804h49.751c0.991,0,1.804,0.812,1.804,1.804v0.345
					C1059.743,737.583,1058.931,738.396,1057.939,738.396z"/>
			</g>
			<g>
				<path style="fill:#96B4E0;" d="M1028.429,729.037h-38.976c-0.883,0-1.604-0.722-1.604-1.604v-0.745
					c0-0.882,0.721-1.603,1.604-1.603h38.976c0.883,0,1.604,0.722,1.604,1.603v0.745
					C1030.033,728.315,1029.312,729.037,1028.429,729.037z"/>
			</g>
		</g>
	</g>
	<g>
		<g>
			<path style="fill:#56335B;" d="M895.175,567.431c0,7.781-3.165,14.834-8.263,19.931c-5.1,5.074-12.11,8.236-19.895,8.236
				c-7.785,0-14.797-3.162-19.896-8.236c-5.1-5.097-8.264-12.149-8.264-19.931c0-15.54,12.61-28.167,28.159-28.167
				C882.563,539.264,895.175,551.891,895.175,567.431z"/>
		</g>
		<g>
			<path style="fill:#CFD3A3;" d="M856.653,558.886c0-5.722,4.64-10.359,10.364-10.359c5.723,0,10.363,4.638,10.363,10.359
				c0,5.721-4.641,10.358-10.363,10.358C861.293,569.244,856.653,564.606,856.653,558.886z"/>
		</g>
		<g>
			<path style="fill:#CFD3A3;" d="M886.912,587.361c-5.1,5.074-12.11,8.236-19.895,8.236c-7.785,0-14.797-3.162-19.896-8.236
				c2.39-8.76,10.38-15.198,19.896-15.198C876.532,572.163,884.521,578.602,886.912,587.361z"/>
		</g>
	</g>
	<g>
		<g>
			<path style="fill:#56335B;" d="M1086.705,590.5h-149.06c-6.466,0-11.756-5.29-11.756-11.755v-22.629
				c0-6.465,5.29-11.755,11.756-11.755h149.06c6.465,0,11.755,5.29,11.755,11.755v22.629
				C1098.46,585.21,1093.17,590.5,1086.705,590.5z"/>
		</g>
		<g>
			<g>
				<path style="fill:#96B4E0;" d="M980.211,562.025h-38.975c-0.882,0-1.604-0.721-1.604-1.604v-0.745
					c0-0.882,0.723-1.604,1.604-1.604h38.975c0.883,0,1.605,0.722,1.605,1.604v0.745
					C981.815,561.305,981.094,562.025,980.211,562.025z"/>
			</g>
			<g>
				<path style="fill:#96B4E0;" d="M997.986,571.383h-56.438c-1.055,0-1.917-0.862-1.917-1.917v-0.118
					c0-1.054,0.862-1.917,1.917-1.917h56.438c1.055,0,1.917,0.863,1.917,1.917v0.118
					C999.903,570.521,999.041,571.383,997.986,571.383z"/>
			</g>
			<g>
				<path style="fill:#96B4E0;" d="M1061.172,571.383h-49.75c-0.992,0-1.804-0.812-1.804-1.804v-0.345
					c0-0.991,0.811-1.804,1.804-1.804h49.75c0.992,0,1.805,0.813,1.805,1.804v0.345
					C1062.977,570.571,1062.164,571.383,1061.172,571.383z"/>
			</g>
			<g>
				<path style="fill:#96B4E0;" d="M1031.663,562.025h-38.976c-0.883,0-1.606-0.721-1.606-1.604v-0.745
					c0-0.882,0.723-1.604,1.606-1.604h38.976c0.883,0,1.604,0.722,1.604,1.604v0.745
					C1033.267,561.305,1032.546,562.025,1031.663,562.025z"/>
			</g>
		</g>
	</g>
	<g>
		<g>
			<path style="fill:#56335B;" d="M1131.275,911.812c0,7.78-3.163,14.834-8.263,19.931c-5.099,5.074-12.11,8.236-19.895,8.236
				s-14.796-3.162-19.896-8.236c-5.098-5.097-8.262-12.15-8.262-19.931c0-15.54,12.61-28.168,28.157-28.168
				S1131.275,896.271,1131.275,911.812z"/>
		</g>
		<g>
			
				<ellipse transform="matrix(0.0026 -1 1 0.0026 197.0408 2004.0754)" style="fill:#E28569;" cx="1103.118" cy="903.266" rx="10.359" ry="10.364"/>
		</g>
		<g>
			<path style="fill:#E28569;" d="M1123.013,931.742c-5.099,5.074-12.11,8.236-19.895,8.236s-14.796-3.162-19.896-8.236
				c2.391-8.76,10.381-15.199,19.896-15.199S1120.623,922.982,1123.013,931.742z"/>
		</g>
	</g>
	<g>
		<g>
			<path style="fill:#CFD3A3;" d="M1035.254,934.881h-149.06c-6.466,0-11.756-5.29-11.756-11.756v-22.628
				c0-6.466,5.29-11.756,11.756-11.756h149.06c6.465,0,11.755,5.29,11.755,11.756v22.628
				C1047.009,929.591,1041.719,934.881,1035.254,934.881z"/>
		</g>
		<g>
			<g>
				<path style="fill:#96B4E0;" d="M928.76,906.406h-38.976c-0.883,0-1.605-0.722-1.605-1.604v-0.744
					c0-0.883,0.723-1.604,1.605-1.604h38.976c0.883,0,1.603,0.722,1.603,1.604v0.744
					C930.363,905.685,929.643,906.406,928.76,906.406z"/>
			</g>
			<g>
				<path style="fill:#96B4E0;" d="M946.534,915.764h-56.438c-1.055,0-1.918-0.863-1.918-1.918v-0.117
					c0-1.055,0.863-1.917,1.918-1.917h56.438c1.055,0,1.917,0.862,1.917,1.917v0.117C948.451,914.9,947.589,915.764,946.534,915.764
					z"/>
			</g>
			<g>
				<path style="fill:#96B4E0;" d="M1009.721,915.764h-49.75c-0.993,0-1.805-0.812-1.805-1.804v-0.345
					c0-0.992,0.811-1.804,1.805-1.804h49.75c0.992,0,1.804,0.811,1.804,1.804v0.345
					C1011.524,914.952,1010.713,915.764,1009.721,915.764z"/>
			</g>
			<g>
				<path style="fill:#96B4E0;" d="M980.211,906.406h-38.975c-0.882,0-1.604-0.722-1.604-1.604v-0.744
					c0-0.883,0.723-1.604,1.604-1.604h38.975c0.883,0,1.605,0.722,1.605,1.604v0.744
					C981.815,905.685,981.094,906.406,980.211,906.406z"/>
			</g>
		</g>
	</g>
	<g>
		<g>
			<path style="fill:#56335B;" d="M1131.275,651.548c0,7.781-3.163,14.834-8.263,19.931c-5.099,5.073-12.11,8.236-19.895,8.236
				s-14.796-3.163-19.896-8.236c-5.098-5.097-8.262-12.149-8.262-19.931c0-15.54,12.61-28.168,28.157-28.168
				S1131.275,636.008,1131.275,651.548z"/>
		</g>
		<g>
			<path style="fill:#E28569;" d="M1092.754,643.003c0-5.722,4.641-10.359,10.364-10.359c5.725,0,10.364,4.638,10.364,10.359
				c0,5.721-4.64,10.358-10.364,10.358C1097.395,653.361,1092.754,648.724,1092.754,643.003z"/>
		</g>
		<g>
			<path style="fill:#E28569;" d="M1123.013,671.479c-5.099,5.073-12.11,8.236-19.895,8.236s-14.796-3.163-19.896-8.236
				c2.391-8.76,10.381-15.198,19.896-15.198S1120.623,662.719,1123.013,671.479z"/>
		</g>
	</g>
	<g>
		<g>
			<path style="fill:#CFD3A3;" d="M1035.254,674.617h-149.06c-6.466,0-11.756-5.29-11.756-11.756v-22.628
				c0-6.465,5.29-11.755,11.756-11.755h149.06c6.465,0,11.755,5.29,11.755,11.755v22.628
				C1047.009,669.327,1041.719,674.617,1035.254,674.617z"/>
		</g>
		<g>
			<g>
				<path style="fill:#96B4E0;" d="M928.76,646.143h-38.976c-0.883,0-1.605-0.722-1.605-1.603v-0.746
					c0-0.881,0.723-1.603,1.605-1.603h38.976c0.883,0,1.603,0.722,1.603,1.603v0.746
					C930.363,645.421,929.643,646.143,928.76,646.143z"/>
			</g>
			<g>
				<path style="fill:#96B4E0;" d="M946.534,655.5h-56.438c-1.055,0-1.918-0.862-1.918-1.917v-0.118
					c0-1.055,0.863-1.917,1.918-1.917h56.438c1.055,0,1.917,0.862,1.917,1.917v0.118C948.451,654.638,947.589,655.5,946.534,655.5z"
					/>
			</g>
			<g>
				<path style="fill:#96B4E0;" d="M1009.721,655.5h-49.75c-0.993,0-1.805-0.813-1.805-1.804v-0.345
					c0-0.992,0.811-1.804,1.805-1.804h49.75c0.992,0,1.804,0.811,1.804,1.804v0.345C1011.524,654.688,1010.713,655.5,1009.721,655.5
					z"/>
			</g>
			<g>
				<path style="fill:#96B4E0;" d="M980.211,646.143h-38.975c-0.882,0-1.604-0.722-1.604-1.603v-0.746
					c0-0.881,0.723-1.603,1.604-1.603h38.975c0.883,0,1.605,0.722,1.605,1.603v0.746
					C981.815,645.421,981.094,646.143,980.211,646.143z"/>
			</g>
		</g>
	</g>
	<g>
		<g>
			<g>
				<path style="fill:#E28569;" d="M1074.652,1281.734l-185.445-6.197l-210.168,5.46l-0.529,15.826l203.285-9.051
					c20.432,0.683,36.389,19.381,35.641,41.763l0,0c-0.749,22.382-17.918,39.972-38.349,39.289l-202.758-6.775l-0.39,11.689
					l395.197,13.207c26.521,0.887,48.809-21.947,49.779-51l0,0C1121.887,1306.892,1101.175,1282.621,1074.652,1281.734z"/>
			</g>
			<g>
				<path style="fill:#E28569;" d="M935.471,1329.748L935.471,1329.748c0.971-29.054-19.742-53.324-46.264-54.211l-210.168,5.46
					l-0.529,15.826l203.285-9.051c20.432,0.683,36.389,19.381,35.641,41.763l0,0c-0.749,22.382-17.918,39.972-38.349,39.289
					l-202.758-6.775l-0.39,11.689l209.752,7.01C912.213,1381.635,934.5,1358.801,935.471,1329.748z"/>
			</g>
			<g>
				<path style="fill:#E6EDFF;" d="M881.794,1287.815l-203.284,9.008l0,0c18.342,2.936,23.882,21.569,26.426,31.511
					c5.159,20.161-10.1,31.776-28.598,33.479l-0.01,0.278l202.757,6.775c20.431,0.684,37.6-16.907,38.349-39.289l0,0
					C918.182,1307.196,902.226,1288.499,881.794,1287.815z"/>
			</g>
			<g>
				
					<rect x="786.991" y="1259.001" transform="matrix(0.0334 -0.9994 0.9994 0.0334 -578.889 2083.1882)" style="fill:#2F1A31;" width="1.105" height="163.747"/>
			</g>
			<g style="opacity:0.4;">
				<g>
					<path style="fill:#436E8E;" d="M915.792,1375.783c-0.714,0-1.414-0.346-1.841-0.984c-0.677-1.016-0.404-2.387,0.607-3.067
						c0.162-0.107,16.139-11.191,18.709-42.167c2.552-30.776-19.024-42.581-19.242-42.696c-1.081-0.572-1.49-1.911-0.92-2.99
						c0.576-1.083,1.914-1.484,2.99-0.92c0.997,0.528,24.37,13.318,21.58,46.972c-2.762,33.272-19.938,45.003-20.67,45.488
						C916.633,1375.664,916.211,1375.783,915.792,1375.783z"/>
				</g>
			</g>
			<g>
				
					<rect x="704.927" y="1326.736" transform="matrix(0.9999 -0.0158 0.0158 0.9999 -20.8952 12.3087)" style="fill:#2F1A31;" width="125.734" height="1.107"/>
			</g>
			<g style="opacity:0.4;">
				<g>
					<path style="fill:#436E8E;" d="M981.204,1364.827c-0.024,0-0.048-0.003-0.074-0.003l-39.639-1.323
						c-0.776-0.026-1.483-0.46-1.86-1.14c-0.377-0.684-0.368-1.514,0.024-2.185c0.071-0.119,6.911-11.963,10.89-27.89
						c3.831-15.33-6.617-31.285-6.724-31.446c-0.46-0.689-0.496-1.579-0.091-2.3c0.403-0.726,1.101-1.093,2.006-1.135l37.605,1.255
						c0.693,0.024,1.339,0.372,1.737,0.942c23.529,33.627-1.934,64.142-2.192,64.445
						C982.466,1364.542,981.85,1364.827,981.204,1364.827z M945.197,1359.198l34.977,1.167c3.719-4.817,20.655-29.476,1.902-57.32
						l-32.504-1.085c3.152,5.997,8.45,18.656,5.267,31.397C951.909,1345.087,947.582,1354.514,945.197,1359.198z"/>
				</g>
			</g>
		</g>
		<g>
			<g>
				<path style="fill:#436E8E;" d="M680.586,1374.794h185.549l209.87,12.477v15.835l-202.871-15.835
					c-20.442,0-37.014,18.153-37.014,40.548l0,0c0,22.394,16.571,40.548,37.014,40.548h202.871v11.696H680.586
					c-26.536,0-48.048-23.565-48.048-52.634l0,0C632.538,1398.358,654.05,1374.794,680.586,1374.794z"/>
			</g>
			<g>
				<path style="fill:#436E8E;" d="M818.087,1427.429L818.087,1427.429c0-29.07,21.512-52.635,48.048-52.635l209.87,12.477v15.835
					l-202.871-15.835c-20.442,0-37.014,18.153-37.014,40.548l0,0c0,22.394,16.571,40.548,37.014,40.548h202.871v11.696h-209.87
					C839.599,1480.063,818.087,1456.497,818.087,1427.429z"/>
			</g>
			<g>
				<path style="fill:#E6EDFF;" d="M873.134,1387.313l202.871,15.792l0,0c-18.431,2.321-24.589,20.759-27.464,30.61
					c-5.83,19.978,9.033,32.096,27.464,34.416v0.278H873.134c-20.442,0-37.014-18.155-37.014-40.549l0,0
					C836.12,1405.467,852.691,1387.313,873.134,1387.313z"/>
			</g>
			<g>
				<rect x="883.687" y="1442.936" style="fill:#2F1A31;" width="163.746" height="1.107"/>
			</g>
			<g>
				<path style="fill:#2F1A31;" d="M835.014,1473.689c-0.714-0.506-17.489-12.807-19.137-46.152
					c-1.666-33.727,22.123-45.731,23.136-46.227l1.941,3.979l-0.971-1.989l0.976,1.986c-0.906,0.448-22.179,11.315-20.662,42.033
					c0.803,16.246,5.466,27.013,9.236,33.185c4.074,6.668,8.012,9.556,8.052,9.584L835.014,1473.689z"/>
			</g>
			<g>
				
					<rect x="985.199" y="1367.705" transform="matrix(0.05 -0.9987 0.9987 0.05 -492.3279 2343.5464)" style="fill:#2F1A31;" width="1.107" height="125.734"/>
			</g>
			<g>
				<path style="fill:#2F1A31;" d="M771.281,1396.974h37.625c0,0-11.694,16.37-8.135,32.952
					c3.56,16.583,10.169,28.824,10.169,28.824h-39.659C771.281,1458.75,747.385,1428.803,771.281,1396.974z"/>
			</g>
		</g>
	</g>
	<g>
		<g>
			<path style="fill:#FFFFFF;" d="M2244.407,982.298c-14.477-22.253-44.688-35.909-47.009-62.354
				c-0.861-9.814,2.398-20.604-2.711-29.025c-5.615-9.254-18.406-10.717-29.175-9.633c-11.844,1.192-24.387,4.797-31.677,14.207
				c-9.182,11.852-7.144,28.539-10.041,43.248c-6.982,35.457-41.903,57.253-73.775,74.284
				c-16.549,8.843-33.913,18.236-43.971,34.076c-17.025,26.809-7.637,61.634-9.057,93.36c-1.127,25.152-9.662,49.928-24.268,70.436
				c-8.602,12.074-17.521,23.929-27.207,35.151c-17.113,19.828-9.866,46.298,15.027,50.079c13.921,2.114,27.539-3.239,33.192-12.395
				c17.642-28.57,69.329-31.04,88.586-33.807s39.433-12.311,46.706-30.356c6.851-16.998,0.478-36.41,3.256-54.524
				c3.852-25.114,24.279-43.924,43.47-60.578c16.467-14.289,32.933-28.579,49.398-42.867c7.628-6.62,15.376-13.379,20.686-21.971
				C2256.443,1022.468,2255.408,999.208,2244.407,982.298z M2195.493,1041.417c-17.507,19.447-45.209,21.253-68.099,30.577
				c-17.797,7.248-33.174,16.021-53.196,15.073c-12.96-0.613-28.864-4.544-29.257-20.025c-0.678-26.739,35.699-31.431,54.587-32.573
				c11.739-0.71,23.825-1.596,34.363-6.817c7.784-3.856,14.404-10.023,18.804-17.515c3.012-5.129,5.076-10.952,9.275-15.166
				c2.779-2.792,6.372-4.71,10.173-5.748c11.113-3.035,23.944,2.136,29.848,12.027
				C2209.436,1013.725,2205.211,1030.621,2195.493,1041.417z"/>
		</g>
		<g>
			<path style="fill:#E28569;" d="M1851.408,1321.819c0,0,26.937,189.162,46.621,190.907c19.686,1.744,93.451,5.695,115.942,0
				c22.491-5.696,34.899-193.629,28.694-198.158C2036.463,1310.041,1843.181,1300.248,1851.408,1321.819z"/>
		</g>
		<g>
			<path style="fill:#E28569;" d="M2036.809,1436.239l-8.763-17.208c24.187-12.334,59.688-36.365,62.879-51.174
				c0.439-2.037,0.124-3.439-1.124-4.999c-9.551-11.938-25.428-8.009-30.645-6.718c-11.75,2.91-21.563,8.844-21.657,8.903
				l-10.144-16.434c0.496-0.307,12.32-7.541,27.162-11.215c27.353-6.771,42.484,3.55,50.362,13.399
				c4.886,6.107,6.588,13.416,4.922,21.138c-2.903,13.457-16.002,28.027-40.042,44.541
				C2053.146,1427.886,2037.469,1435.903,2036.809,1436.239z"/>
		</g>
		<g>
			<path style="fill:#D3745E;" d="M1914.167,1414.005c-6.438-35.047,26.043-48.994,50.93-48.994
				c24.886,0,43.482,18.028,43.482,42.915c0,24.885-24.466,51.14-49.351,51.14
				C1934.342,1459.065,1918.663,1438.481,1914.167,1414.005z"/>
		</g>
		<g>
			<path style="fill:#FFFFFF;" d="M1953.935,1453.027c-11.968,0-22.674-4.736-30.965-13.696
				c-7.533-8.142-12.772-19.291-15.151-32.243c-2.341-12.747,0.144-23.618,7.387-32.312c11.024-13.234,30.266-17.95,44.598-17.95
				c25.818,0,44.556,18.5,44.556,43.988C2004.358,1426.677,1978.911,1453.027,1953.935,1453.027z M1959.803,1358.972
				c-13.846,0-32.399,4.514-42.949,17.178c-6.815,8.181-9.145,18.459-6.925,30.551h0.001c2.305,12.552,7.358,23.331,14.615,31.174
				c7.874,8.51,18.036,13.007,29.39,13.007c23.913,0,48.278-25.268,48.278-50.066
				C2002.213,1376.568,1984.377,1358.972,1959.803,1358.972z"/>
		</g>
	</g>
	<g>
		<g>
			<g>
				<path style="fill:#CFD3A3;" d="M971.524,1025.365c0,18.878-15.143,32.095-33.945,32.414c-0.198,0.003-0.398,0.005-0.598,0.005
					c-0.63,0-1.257-0.018-1.877-0.049c-18.205-0.976-34.529-13.922-34.529-32.37c0-19.078,17.433-34.68,36.406-36.668
					C962.801,985.992,971.524,1006.287,971.524,1025.365z"/>
			</g>
		</g>
		<g>
			<path style="fill:#E28569;" d="M913.967,1009.657c0,0,8.326-6.19,15.156-4.482c6.831,1.708,25.616,21.347,27.965,26.684
				c2.348,5.337-0.641,14.112-3.842,13.994c-3.203-0.119-12.169-6.95-11.315-9.725c0.854-2.775,5.337-3.416,4.697-5.551
				c-0.641-2.135-16.224-16.864-17.505-16.224c-1.28,0.641-3.202,5.977-8.111,4.056
				C916.102,1016.488,912.098,1010.88,913.967,1009.657z"/>
		</g>
	</g>
	<g>
		<g>
			<g>
				<path style="fill:#E28569;" d="M1063.056,1025.365c0,18.878-15.144,32.095-33.946,32.414c-0.197,0.003-0.397,0.005-0.598,0.005
					c-0.629,0-1.256-0.018-1.877-0.049c-18.204-0.976-34.056-13.36-32.666-34.494c1.251-19.038,20.838-34.787,39.917-34.787
					C1052.963,988.454,1063.056,1006.287,1063.056,1025.365z"/>
			</g>
		</g>
		<g>
			<path style="fill:#CFD3A3;" d="M1001.451,1031.946c0,0,1.835-10.212,7.984-13.64c6.151-3.43,33.287-1.963,38.651,0.322
				c5.364,2.284,9.19,10.729,6.774,12.834c-2.416,2.104-13.628,3.258-14.904,0.649c-1.277-2.607,1.554-6.142-0.373-7.26
				c-1.928-1.119-23.371-1.196-23.866,0.147c-0.496,1.343,1.755,6.549-3.141,8.508
				C1007.682,1035.467,1000.925,1034.117,1001.451,1031.946z"/>
		</g>
	</g>
</g>
</svg>
