<?xml version="1.0" encoding="utf-8"?>
<!-- Generator: Adobe Illustrator 27.5.0, SVG Export Plug-In . SVG Version: 6.00 Build 0)  -->
<svg version="1.1" xmlns="http://www.w3.org/2000/svg" xmlns:xlink="http://www.w3.org/1999/xlink" x="0px" y="0px"
	 viewBox="0 0 500 500" style="enable-background:new 0 0 500 500;" xml:space="preserve">
<g id="Floor">
	<path id="Floor_1_" style="fill:#F5F5F5;" d="M90.188,426.193c89.937,43.278,235.754,43.279,325.69,0.001
		c89.937-43.279,89.937-113.447,0-156.725c-89.937-43.279-235.754-43.279-325.691-0.001C0.25,312.746,0.25,382.915,90.188,426.193z"
		/>
</g>
<g id="Shadow">
	<path id="XMLID_527_" style="fill:#E0E0E0;" d="M442.364,381.978c-21.709,10.258-56.85,10.14-78.489-0.265
		c-21.64-10.402-21.583-27.151,0.126-37.41c21.709-10.256,56.85-10.137,78.489,0.265
		C464.129,354.973,464.073,371.723,442.364,381.978z"/>
</g>
<g id="Clouds">
	<g id="Clouds_4_">
		<path id="XMLID_526_" style="fill:#EBEBEB;" d="M320.508,65.56l6.813,3.933c-0.034-0.304-0.057-0.606-0.057-0.902v-1.974
			c0-3.512,2.466-4.936,5.508-3.18c1.232,0.711,2.365,1.838,3.283,3.156c0.498-4.416,3.963-6.062,8.172-3.632
			c4.551,2.627,8.24,9.017,8.24,14.271v2.953c0,1.361-0.252,2.507-0.698,3.421l5.659,3.267c1.687,0.974,3.055,3.343,3.055,5.291
			c0,1.948-1.368,2.738-3.055,1.764l-36.917-21.314c-1.687-0.974-3.055-3.343-3.055-5.291
			C317.453,65.375,318.82,64.586,320.508,65.56z"/>
		<path id="XMLID_523_" style="fill:#EBEBEB;" d="M291.353,85.41l5.141,2.968c-0.025-0.23-0.043-0.458-0.043-0.681v-1.49
			c0-2.651,1.861-3.725,4.157-2.4c0.93,0.537,1.785,1.387,2.477,2.382c0.376-3.333,2.991-4.575,6.167-2.741
			c3.434,1.983,6.218,6.805,6.218,10.771v2.228c0,1.027-0.19,1.892-0.526,2.582l4.271,2.466c1.273,0.735,2.306,2.523,2.306,3.993
			c0,1.47-1.032,2.066-2.306,1.331l-27.862-16.086c-1.273-0.735-2.306-2.523-2.306-3.993
			C289.047,85.271,290.079,84.674,291.353,85.41z"/>
	</g>
</g>
<g id="Plants">
	<g id="Plants_1_">
		<g id="XMLID_75_">
			<g id="XMLID_80_">
				<path id="XMLID_81_" style="fill:#27DEBF;" d="M108.596,338.203l6.628-3.787c0,0,3.179-17.519,0.802-32.579
					c-3.343-21.173-17.759-28.477-22.995-26.372c-5.236,2.105-6.466,8.377,2.989,20.611
					C101.599,303.294,108.775,318.552,108.596,338.203z"/>
			</g>
			<g id="XMLID_78_" style="opacity:0.1;">
				<path id="XMLID_79_" d="M108.596,338.203l6.628-3.787c0,0,3.179-17.519,0.802-32.579c-3.343-21.173-17.759-28.477-22.995-26.372
					c-5.236,2.105-6.466,8.377,2.989,20.611C101.599,303.294,108.775,318.552,108.596,338.203z"/>
			</g>
			<g id="XMLID_76_">
				<path id="XMLID_77_" style="fill:#FFFFFF;" d="M110.998,329.793c-0.022,0-0.043-0.002-0.065-0.005
					c-0.258-0.036-0.439-0.274-0.403-0.533c2.739-19.823-5.232-41.541-14.189-50.293c-0.187-0.182-0.19-0.482-0.007-0.668
					c0.183-0.185,0.482-0.19,0.668-0.007c9.12,8.912,17.244,30.984,14.464,51.098C111.433,329.622,111.23,329.793,110.998,329.793z"
					/>
			</g>
		</g>
		<g id="XMLID_56_">
			<g id="XMLID_73_">
				<path id="XMLID_74_" style="fill:#27DEBF;" d="M90.206,348.827c-1.047,0.601-3.206-0.713-4.033-1.268
					c-1.415-0.95-2.562-2.294-3.324-3.816c-0.886-1.77-1.11-3.667-0.832-5.625c0.144-1.015,0.428-2.005,0.711-2.991
					c0.278-0.968,0.557-1.936,0.835-2.904c0.275-0.955,0.552-1.943,0.426-2.928c-0.254-1.986-2.017-3.377-3.619-4.577
					c-1.772-1.327-3.617-3.078-3.607-5.469c0.008-1.845,0.963-3.558,2.106-5.005c1.143-1.448,2.5-2.727,3.533-4.255
					c0.744-1.1,1.324-2.392,1.203-3.715c-0.075-0.822-0.416-1.596-0.809-2.321c-0.844-1.557-1.958-2.982-2.54-4.655
					c-0.582-1.672-0.499-3.752,0.806-4.949c1.071-0.982,2.663-1.119,4.114-1.023c1.342,0.089,2.652,0.694,3.826,1.347
					c3.795,2.11,5.962,6.605,9.989,8.229c1.553,0.626,3.255,0.764,4.875,1.191c1.619,0.428,3.27,1.255,4.02,2.753
					c1.478,2.953-1.265,6.592-0.226,9.726c0.92,2.774,3.615,3.835,5.129,6.335c0.662,1.094,0.815,2.357,0.708,3.631
					c-0.181,2.156-0.496,3.738-1.531,6.136c-0.855,1.981-3.368,5.528-3.368,5.528C108.533,338.265,90.366,348.734,90.206,348.827z"
					/>
			</g>
			<g id="XMLID_62_">
				<path id="XMLID_66_" style="fill:#FFFFFF;" d="M100.965,343.094c-0.007,0-0.013,0-0.013,0c-0.268-0.011-0.47-0.232-0.46-0.492
					c0.781-18.762-8.06-39.476-14.488-45.494c-0.19-0.178-0.2-0.477-0.022-0.668c0.179-0.19,0.477-0.199,0.668-0.022
					c6.558,6.139,15.578,27.197,14.787,46.223C101.427,342.895,101.217,343.094,100.965,343.094z"/>
			</g>
			<g id="XMLID_57_">
				<path id="XMLID_59_" style="fill:#FFFFFF;" d="M98.154,320.927c-0.046,0-0.093-0.007-0.139-0.021
					c-6.028-1.863-13.541-2.192-13.616-2.195c-0.261-0.011-0.463-0.232-0.453-0.492c0.011-0.26,0.209-0.466,0.492-0.453
					c0.077,0.004,7.709,0.337,13.856,2.237c0.249,0.077,0.39,0.342,0.312,0.591C98.543,320.797,98.356,320.927,98.154,320.927z"/>
			</g>
		</g>
	</g>
</g>
<g id="MailBox_1_">
	<g id="MailBox">
		<path id="XMLID_12_" style="fill:#263238;" d="M87.749,361.716v-7.37h1.817c2.119-4.291,6.086-8.341,11.937-11.719
			c18.351-10.594,48.1-10.594,66.45,0c5.851,3.379,9.818,7.429,11.937,11.719h1.797v7.136c0.147,7.051-4.415,14.129-13.734,19.509
			c-18.35,10.594-48.1,10.594-66.45,0.001C92.288,375.67,87.708,368.689,87.749,361.716z"/>
		<path id="XMLID_16532_" style="fill:#455A64;" d="M167.953,335.162c-18.349-10.594-48.1-10.594-66.449,0
			c-18.349,10.594-18.349,27.771,0,38.364c18.349,10.594,48.1,10.594,66.449,0C186.303,362.933,186.303,345.756,167.953,335.162z"/>
		<path id="XMLID_6_" style="fill:#37474F;" d="M146.83,222.075l-0.008,129.052c0,1.787-1.181,3.573-3.542,4.937
			c-4.723,2.727-12.38,2.727-17.103,0c-2.361-1.363-3.541-3.15-3.541-4.937l0.008-129.052H146.83z"/>
		<polygon id="XMLID_2_" style="fill:#263238;" points="122.636,252.583 122.636,261.325 146.826,275.258 146.83,266.577 		"/>
		<path id="XMLID_46_" style="fill:#455A64;" d="M260.322,138.689v0.009l-2.065,4.13l-22.143,44.405l-10.509,21.083l-35.574,71.342
			l-3.918,7.863c-0.23,0.018-0.461,0.028-0.691,0.028c-1.447,0-2.895-0.323-3.992-0.959L39.632,204.573
			c-2.203-1.272-3.992-4.37-3.992-6.914v-61.146c0-30.55,20.115-66.926,44.94-81.261c11.763-6.794,22.447-7.347,30.458-2.848
			l0.028-0.065L260.322,138.689z"/>
		<path id="XMLID_25_" style="fill:#37474F;" d="M230.371,141.915c-10.022,3.718-46.478,33.826-46.478,81.238
			c0,39.852,0.046,60.545,0.056,64.267c0.483,0.076,0.975,0.128,1.473,0.128c0.23,0,0.461-0.009,0.691-0.028l3.918-7.863
			l35.574-71.342l10.509-21.083l2.408-4.829L230.371,141.915z"/>
		<path id="XMLID_36_" style="fill:#37474F;" d="M273.357,237.446c0,0.009,0,0.018-0.009,0.018c-0.295,0.525-0.857,1.088-1.65,1.595
			c-0.129,0.092-0.267,0.175-0.406,0.258l-81.878,47.272c-0.922,0.535-2.093,0.848-3.3,0.931c-0.23,0.018-0.461,0.028-0.691,0.028
			v-64.4c0-10.988,2.618-22.714,7.117-33.924l4.038,2.332l29.029,16.759l45.069,26.033c0,0,1.033,0.599,2.305,1.327
			C273.661,236.073,273.762,236.727,273.357,237.446z"/>
		<path id="XMLID_27_" style="fill:#455A64;" d="M260.322,138.698c-7.946-4.167-18.437-3.438-29.951,3.217
			c-12.915,7.43-24.558,20.871-32.744,36.33c-1.89,3.568-3.595,7.246-5.089,10.979c-4.498,11.21-7.117,22.936-7.117,33.924v64.4
			c0.23,0,0.461-0.009,0.691-0.028c1.208-0.083,2.378-0.396,3.3-0.931l81.878-47.272c0.138-0.083,0.277-0.166,0.406-0.258
			c0.599-0.415,1.161-0.968,1.65-1.595c0.009,0,0.009-0.009,0.009-0.018c1.162-1.466,1.927-3.374,1.927-5.043v-61.137
			C275.283,154.904,269.503,143.519,260.322,138.698z M269.476,235.04l-78.248,45.18c-0.661,0.382-1.197,0.072-1.197-0.691v-56.38
			c0-9.827,2.268-20.732,6.545-31.592c0.074-0.203,0.157-0.415,0.24-0.618c1.604-4.01,3.429-7.891,5.457-11.606
			c7.946-14.694,18.815-26.761,30.403-33.426c5.955-3.448,11.597-5.19,16.759-5.19c3.263,0,6.222,0.728,8.822,2.111
			c7.836,4.176,12.417,14.298,12.417,28.439v61.699C270.674,233.73,270.138,234.658,269.476,235.04z"/>
		<g id="XMLID_3_">
			<path id="XMLID_29_" style="fill:#263238;" d="M351.154,304.769l-0.002-5.634h-0.535v0.804c-0.33-1.527-0.813-3.05-1.468-4.559
				c-2.959-6.905-9.191-13.523-18.704-19.018l-52.951-30.568c-2.203-1.272-5.771-1.272-7.983,0l-80.956,46.738
				c-0.855-0.763-1.788-1.517-2.574-2.836l0,5.676v0.002l0,0c0.001,0.834,0.551,1.667,1.652,2.303l52.951,30.568
				c14.169,8.186,32.698,12.205,50.646,11.966c15.533-0.203,30.633-3.595,42.138-10.251c11.904-6.842,17.771-15.922,17.771-25.189
				H351.154z"/>
			<path id="XMLID_28_" style="fill:#455A64;" d="M349.148,295.38c-2.959-6.905-9.191-13.523-18.704-19.018l-52.951-30.568
				c-2.203-1.272-5.771-1.272-7.983,0l-80.956,46.738l52.029,30.043c14.169,8.186,32.698,12.205,50.646,11.966
				c15.533-0.212,30.633-3.604,42.138-10.251c10.684-6.149,16.52-14.086,17.598-22.355
				C350.697,299.74,350.089,297.546,349.148,295.38z"/>
			<path id="XMLID_41_" style="fill:#37474F;" d="M350.964,301.934c-0.267-2.194-0.876-4.388-1.816-6.554
				c-2.959-6.905-9.191-13.523-18.704-19.018l-52.951-30.568c-2.203-1.272-5.771-1.272-7.983,0l-80.956,46.738l-0.922-0.525
				c-2.203-1.272-2.203-3.337,0-4.609l81.878-47.272c2.213-1.272,5.78-1.272,7.983,0l52.951,30.568
				c9.513,5.494,15.745,12.113,18.704,19.018c0.996,2.295,1.622,4.628,1.871,6.96C351.213,298.431,351.195,300.192,350.964,301.934z
				"/>
		</g>
		<path id="XMLID_31_" style="fill:#263238;" d="M270.674,171.267v63.082l-74.098-42.792c0.074-0.203,0.157-0.415,0.24-0.618
			c7.946-19.847,21.341-36.68,35.86-45.032c5.955-3.448,11.597-5.19,16.759-5.19C262.534,140.717,270.674,152.424,270.674,171.267z"
			/>
		<g id="XMLID_16553_">
			<path id="XMLID_16606_" style="fill:#E0E0E0;" d="M137.267,219.644l6.518-3.762l0.006-0.003l0.046-0.027l0.005,0.008
				c2.233-1.26,5.296-1.07,8.685,0.886c6.824,3.94,12.356,13.522,12.356,21.402c0,3.933-1.38,6.698-3.608,7.991v0.002l-0.01,0.006
				l-0.002,0.001l-6.066,3.474l-1.093-1.829c-1.129-0.26-2.304-0.662-3.544-1.378c-6.823-3.94-12.356-13.522-12.358-21.402
				c0-1.17,0.158-2.201,0.388-3.156L137.267,219.644z"/>
			<path id="XMLID_16603_" style="fill:#FAFAFA;" d="M146.259,220.348c6.825,3.94,12.357,13.522,12.357,21.402
				c0.001,7.88-5.532,11.074-12.356,7.133c-6.824-3.94-12.357-13.522-12.357-21.402
				C133.902,219.602,139.434,216.408,146.259,220.348z"/>
		</g>
		<g id="XMLID_16605_">
			<path id="XMLID_23_" style="fill:#EBEBEB;" d="M146.259,238.01c-1.979,0-3.583-1.604-3.583-3.583V133.141
				c0-1.979,1.605-3.583,3.583-3.583c1.979,0,3.583,1.604,3.583,3.583v101.285C149.842,236.406,148.238,238.01,146.259,238.01z"/>
		</g>
		<polygon id="XMLID_4_" style="fill:#27DEBF;" points="142.675,143.146 106.785,122.426 118.021,144.045 106.785,152.692 
			142.675,173.413 		"/>
	</g>
</g>
<g id="Letter_1_">
	<g id="Letter">
		<g id="XMLID_16503_">
			<g id="XMLID_16505_">
				<path id="XMLID_16554_" style="fill:#27DEBF;" d="M330.121,236.704c0-1.243-0.872-2.754-1.949-3.375l-99.688-57.555
					c-1.076-0.621-2.821-0.621-3.897,0l-2.196,1.268c-1.076,0.621-1.949,2.132-1.949,3.375v76.413c0,1.238,0.877,2.756,1.949,3.375
					l99.688,57.555c1.072,0.619,2.826,0.619,3.897,0l2.196-1.268c1.072-0.619,1.949-2.137,1.949-3.375L330.121,236.704z"/>
			</g>
		</g>
		<path id="XMLID_60_" style="opacity:0.4;fill:#FFFFFF;" d="M329.553,234.785l-5.531,3.19l-103.007-59.478
			c0.35-0.608,0.839-1.143,1.374-1.457l2.203-1.263c1.069-0.627,2.821-0.627,3.89,0l99.688,57.551
			C328.714,233.642,329.202,234.176,329.553,234.785z"/>
		<path id="XMLID_58_" style="opacity:0.1;" d="M330.124,236.702v76.412c0,1.245-0.876,2.756-1.954,3.374l-2.194,1.272
			c-0.166,0.092-0.341,0.175-0.535,0.24c-0.249,0.083-0.516,0.147-0.802,0.184c-0.507,0.065-1.042,0.046-1.539-0.055
			c-0.129-0.028-0.258-0.064-0.378-0.101c-0.083-0.028-0.157-0.055-0.23-0.092c0.359,0.129,0.673,0.111,0.931-0.018
			c0.369-0.194,0.599-0.636,0.599-1.281v-76.412c0-0.802-0.406-1.41-1.014-1.659l1.014-0.59l5.531-3.19
			C329.903,235.393,330.124,236.085,330.124,236.702z"/>
		<path id="XMLID_26_" style="opacity:0.2;" d="M324.022,237.975l-46.166,17.248c-3.291,1.226-6.987,0.009-8.905-2.932
			l-7.414-11.358l-40.891-62.648l39.413,63.074l-39.616,15.504c0.009,0.627,0.24,1.328,0.609,1.945l39.118-17.272l8.615,13.787
			c1.982,3.162,5.983,4.397,9.394,2.885l6.134-2.708l39.11,62.415c0.369-0.194,0.599-0.636,0.599-1.281v-1.272l-39.518-59.946
			L324.022,237.975z"/>
	</g>
</g>
<g id="Character">
	<g id="Character_1_">
		<g id="XMLID_96_">
			<g id="XMLID_100_">
				<g id="XMLID_179_">
					<path id="XMLID_211_" style="fill:#FFA8A7;" d="M434.871,332.98l-1.711-2.526l0,0c0,0-14.964-25.704-18.079-30.759
						c-3.115-5.054-14.185-12.825-14.185-12.825l1.169-47.278l-26.106,3.809c-0.21,5.635,0.672,27.198,4.747,37.998
						c3.816,10.111,7.281,15.524,8.499,17.625c1.219,2.101,37.695,37.82,37.695,37.82l0,0l1.064,1.169
						c1.473,1.618,3.933,2.102,5.773,0.917c0.032-0.02,0.063-0.041,0.094-0.062C435.757,337.571,436.173,334.902,434.871,332.98z"/>
					<path id="XMLID_48_" style="fill:#F0F0F0;" d="M431.89,328.273l-4.676-8.012c0,0,0.062,3.762-2.453,5.992
						c-2.516,2.229-5.696,2.893-5.696,2.893l6.411,6.301C425.475,335.445,431.823,335.332,431.89,328.273z"/>
					<path id="XMLID_52_" style="fill:#263238;" d="M440.961,339.242c-0.207-1.168-1.623-2.794-2.531-3.822
						c-1.828-2.295-6.045-9.317-6.862-10.225c-0.816-0.908-1.473,0-1.473,0l0.617,1.057c0,0,0.872,1.853-1.454,4.96
						c-1.004,1.341-4.047,2.876-5.566,2.483l-0.84-0.825c-0.631,1.294,0.387,1.972,2.265,3.851c1.865,1.865,1.203,5.515,0.611,7.161
						c-1.034,2.454-2.711,4.821-5.23,7.057c-4.5,3.994-4.669,5.439-2.664,6.743c1.693,1.101,6.692,1.633,10.431,0.035
						c3.412-1.458,4.696-3.408,5.334-6.693c0.638-3.285,2.643-4.352,4.373-5.845C439.7,343.685,441.266,340.97,440.961,339.242z"/>
					<path id="XMLID_504_" style="fill:#FFA8A7;" d="M415.4,243.535l-34.349-4.646l-2.336-0.008c0,0-0.902,6.998,4.777,14.901
						c3.904,5.43,6.798,7.883,6.798,7.883s-4.08,24.479-5.512,36.253c-1.157,9.515-5.01,43.751-5.96,52.197
						c-0.142,1.263-0.356,2.515-0.642,3.753l-1.52,6.584l7.459,1.722l2.127-4.978c0.578-2.502,1.372-4.946,2.37-7.311
						c2.761-6.54,7.494-20.191,9.906-29.486c2.033-7.831,1.173-16.676,1.002-18.78c0,0,12.338-25.981,15.409-41.203
						C416.597,252.144,415.95,246.791,415.4,243.535z"/>
					<path id="XMLID_30_" style="fill:#F0F0F0;" d="M378.707,350.99l1.076-9.452c0,0,4.34,3.177,11.587,1.238
						c-1.101,3.005-2.414,6.366-3.828,9.895c0,0-3.65,4.291-6.615,3.255C377.962,354.892,378.707,350.99,378.707,350.99z"/>
					<path id="XMLID_34_" style="fill:#263238;" d="M388.445,350.406l-0.398,1.017c0,0-1.825,2.409-6.611,1.252
						c-2.886-0.698-2.529-3.44-2.529-3.44s-1.085,0.015-1.2,0.888c-0.491,3.708-2.012,6.918-4.083,9.522
						c-1.046,1.314-3.491,2.903-4.75,3.678c-4.27,2.629-8.229,4.287-8.714,5.852c-0.799,2.577,2.617,4.881,7.971,5.19
						c2.389,0.138,5.189-0.178,7.355-1.204c2.335-1.107,3.686-2.549,5.465-4.332c1.308-1.31,5.295-2.623,6.286-4.207
						c0.425-0.679,0.647-3.371,0.638-4.847v-1.079c0.001-1.994,1.097-5.304,1.472-6.477
						C389.724,351.041,388.445,350.406,388.445,350.406z"/>
					<path id="XMLID_32_" style="fill:#455A64;" d="M375.96,243.401c0,0-0.215,13.562-0.029,19.535
						c0.186,5.973,1.322,21.291,1.322,21.291s3.539,1.828,9.17,1.829l-0.35,2.394c0,0,10.164,6.317,24.128,3.326
						c0,0,5.297-18.863,6.122-32.176c0.825-13.313-0.923-16.066-0.923-16.066L375.96,243.401z"/>
					<path id="XMLID_37_" style="fill:#37474F;" d="M386.601,284.882c0,0,10.941,6.015,24.672,2.832l-0.301,1.172
						c0,0-11.131,3.861-24.549-2.83L386.601,284.882z"/>
					<path id="XMLID_33_" style="fill:#37474F;" d="M376.969,280.286c0,0,5.563,1.985,10.024,1.901l-0.155,1.044
						c0,0-5.851-0.214-9.794-1.882L376.969,280.286z"/>
					<g id="XMLID_183_">
						<path id="XMLID_408_" style="fill:#F28F8F;" d="M385.745,290.71c0,0,3.684-25.55,4.544-29.046c0,0-6.335-2.438-8.277-4.66
							c0,0,1.382,3.104,5.909,5.873L385.745,290.71z"/>
					</g>
					<g id="XMLID_42_">
						<path id="XMLID_45_" style="fill:#263238;" d="M386.073,288.451L386.073,288.451c0.002-0.016,0.005-0.03,0.007-0.047
							L386.073,288.451z"/>
						<path id="XMLID_47_" style="fill:#263238;" d="M382.013,257.004c0,0,1.382,3.104,5.909,5.873l-1.813,23.178
							c0.107,0.007,0.22,0.001,0.314,0.002l0,0c1.102-7.515,3.236-21.831,3.866-24.393
							C390.289,261.664,383.954,259.226,382.013,257.004z"/>
					</g>
					<g id="XMLID_181_">
						<path id="XMLID_407_" style="fill:#F28F8F;" d="M399.52,301.618c1.012-1.371,2.954-6.007,4.179-9.056l0.246-0.008
							l-2.988,9.754c0.981,3.692,0.865,9.777,0.865,9.777l-2.001-1.756C399.88,308.865,399.52,301.618,399.52,301.618z"/>
					</g>
				</g>
				<g id="XMLID_103_">
					<g id="XMLID_175_">
						<path id="XMLID_405_" style="fill:#FFA8A7;" d="M379.843,232.744c5.026-16.733,4.027-30.9,4.971-35.239l-12.876,17.989
							c0,0-0.938,10.373-2.632,17.652c-1.488,6.395-3.516,14.367-5.948,19.324c-0.431,0.878-1.19,1.549-2.096,1.918
							c-2.43,0.991-3.557,2.246-5.507,3.688c-1.527,1.129-2.686,1.276-2.59,1.735c0.123,0.591,0.89,1.646,2.557,1.438
							c0.839-0.105,1.976-0.55,3.402-1.148c0,0-1.384,2.534-4.133,4.922c-3.726,3.236-4.262,5.526,1.934,6.656
							c3.882,0.708,7.4-1.153,11.81-9.214c1.27-2.322,3.265-5.99,4.399-9.148C376.09,245.094,378.323,237.803,379.843,232.744z"/>
					</g>
					<g id="XMLID_174_">
						<path id="XMLID_404_" style="fill:#E0E0E0;" d="M389.195,190.043c-6.032,0.042-11.973,1.375-14.038,7.79
							c-2.016,6.263-4.652,24.442-4.652,24.442s2.528,3.372,10.986,2.85L389.195,190.043z"/>
					</g>
					<g id="XMLID_173_">
						<path id="XMLID_403_" style="fill:#F5F5F5;" d="M401.578,190.447c4.236,1.035,9.128,1.884,13.223,3.91
							c2.851,1.41-1.321,25.038-1.321,25.038l1.92,24.14c-5.645,6.099-27.19,8.877-39.44-0.133c0,0,0.111-32.847,0.132-39.094
							c0.021-6.247,3.517-13.74,13.103-14.264L401.578,190.447z"/>
					</g>
					<g id="XMLID_501_">
						<path id="XMLID_500_" style="fill:#27DEBF;" d="M385.234,198.203c0.772,1.833,2.194,2.58,4.774,2.869
							c2.58,0.289,5.715-0.989,7.137-2.484l-3.21-3.194l-4.068,3.066l-0.347-3.415L385.234,198.203z"/>
						<path id="XMLID_482_" style="opacity:0.1;" d="M385.234,198.203c0.772,1.833,2.194,2.58,4.774,2.869
							c2.58,0.289,5.715-0.989,7.137-2.484l-3.21-3.194l-4.068,3.066l-0.347-3.415L385.234,198.203z"/>
					</g>
					<g id="XMLID_170_">
						<polygon id="XMLID_402_" style="fill:#E0E0E0;" points="413.502,218.93 409.818,208.661 414.093,227.108 						"/>
					</g>
					<g id="XMLID_127_">
						<g id="XMLID_137_">
							<g id="XMLID_169_">
								<path id="XMLID_401_" style="fill:#263238;" d="M408.334,168.736l-2.693,10.483c-0.577,2.246-2.605,3.813-4.923,3.805
									l-3.11-0.01l0.049-14.635L408.334,168.736z"/>
							</g>
							<g id="XMLID_162_">
								<path id="XMLID_400_" style="fill:#263238;" d="M375.757,164.778c-0.021,6.208,4.995,11.258,11.203,11.279
									c6.208,0.021,11.258-4.995,11.279-11.203c0.021-6.208-4.995-11.258-11.203-11.279
									C380.828,153.554,375.778,158.57,375.757,164.778z"/>
							</g>
							<g id="XMLID_147_">
								<path id="XMLID_399_" style="fill:#263238;" d="M404.385,158.486c0,0,1.988-0.334,3.532,1.255
									c1.513,1.558,1.189,4.432-0.039,11.034l-4.695,0.523L404.385,158.486z"/>
							</g>
							<g id="XMLID_145_">
								<path id="XMLID_398_" style="fill:#FFA8A7;" d="M402.139,171.298c0.696,0.419,1.694-0.917,2.557-1.813
									c0.862-0.896,3.672-2.116,5.061,0.838c1.416,3.01-0.829,6.967-2.971,7.843c-3.003,1.228-4.323-1.389-4.323-1.389
									l-0.886,13.671c0,0-4.957,7.121-11.709,8.013c-1.532-3.317-2.899-5.698-0.673-8.418l0.024-4.178c0,0-3.46,0.564-5.132,0.246
									c-2.463-0.469-4.841-2.557-5.58-5.615c-1.454-6.021-1.688-11.525-0.473-18.445c1.827-10.408,13.506-10.554,20.081-6.385
									C404.691,159.835,402.139,171.298,402.139,171.298z"/>
							</g>
							<g id="XMLID_143_">
								<path id="XMLID_397_" style="fill:#263238;" d="M402.135,172.47c0.351,0.008,1.69-2.199,2.561-2.985
									c1.206-1.09-0.311-10.999-0.311-10.999c-0.584-8.118-12.554-8.776-15.861-9.024c-7.583-0.57-12.757,3.611-10.715,8.904
									c1.367,2.407,4.166,3.077,6.792,3.406c4.457,0.558,12.064-1.811,13.014-1.938c1.294-0.173,1.565,1.082,2.251,4.507
									C400.467,167.349,400.958,172.444,402.135,172.47z"/>
							</g>
							<g id="XMLID_142_">
								<path id="XMLID_396_" style="fill:#263238;" d="M404.375,159.256l4.221-2.248c-0.594-1.209-2.02-1.687-3.186-1.066
									C404.245,156.564,403.781,158.047,404.375,159.256z"/>
							</g>
							<g id="XMLID_141_">
								<path id="XMLID_278_" style="fill:#F28F8F;" d="M389.219,185.864c0,0,6.253-1.238,8.441-2.392
									c1.465-0.772,2.674-2.115,3.03-2.977c0,0-0.415,1.853-1.728,3.518c-1.604,2.037-9.749,3.513-9.749,3.513L389.219,185.864z"
									/>
							</g>
						</g>
						<g id="XMLID_128_">
							<g id="XMLID_136_">
								<path id="XMLID_277_" style="fill:#263238;" d="M389.071,171.026c-0.002,0.719,0.556,1.301,1.248,1.302
									c0.692,0.001,1.254-0.581,1.257-1.3c0.003-0.718-0.556-1.301-1.248-1.302C389.636,169.726,389.073,170.308,389.071,171.026z
									"/>
							</g>
							<g id="XMLID_135_">
								<path id="XMLID_276_" style="fill:#263238;" d="M390.415,166.303l2.674,1.488c0.398-0.769,0.122-1.724-0.617-2.135
									C391.733,165.245,390.813,165.535,390.415,166.303z"/>
							</g>
							<g id="XMLID_134_">
								<path id="XMLID_274_" style="fill:#F28F8F;" d="M389.807,179.401l-2.862,1.063c0.28,0.82,1.147,1.247,1.938,0.954
									C389.674,181.125,390.087,180.221,389.807,179.401z"/>
							</g>
							<g id="XMLID_133_">
								<path id="XMLID_273_" style="fill:#263238;" d="M378.568,167.306l2.449-1.873c-0.496-0.701-1.446-0.85-2.122-0.333
									C378.219,165.617,378.072,166.605,378.568,167.306z"/>
							</g>
							<g id="XMLID_132_">
								<path id="XMLID_272_" style="fill:#263238;" d="M379.293,170.309c-0.002,0.689,0.533,1.247,1.196,1.247
									c0.663,0.001,1.202-0.557,1.204-1.246c0.002-0.689-0.534-1.247-1.196-1.248C379.835,169.062,379.296,169.62,379.293,170.309
									z"/>
							</g>
							<g id="XMLID_130_">
								<polygon id="XMLID_271_" style="fill:#F28F8F;" points="384.557,170.503 385.711,177.956 381.587,177.457 								"/>
							</g>
						</g>
					</g>
				</g>
			</g>
			<g id="XMLID_502_">
				<path id="XMLID_497_" style="fill:#27DEBF;" d="M387.256,197.203c0,0-0.158,1.812,0.054,3.477
					c0.227,1.783,1.146,2.861,1.146,2.861s1.024,0.814,2.773,0.301c1.367-1.261,2.266-3.326,2.161-5.785l-3.522,0.402
					L387.256,197.203z"/>
				<path id="XMLID_479_" style="fill:#27DEBF;" d="M388.456,203.542c0,0-4.151,15.395-4.32,17.254
					c-0.169,1.86,3.467,11.78,5.059,11.836c1.592,0.056,4.485-6.707,4.532-8.398c0.047-1.691-2.498-20.391-2.498-20.391
					L388.456,203.542z"/>
				<path id="XMLID_268_" style="opacity:0.1;" d="M391.229,203.843c0,0-1.423,0.704-2.773-0.301l-0.073,0.27
					c0,0,1.21,1.115,2.927,0.629L391.229,203.843z"/>
			</g>
			<g id="XMLID_498_">
				<g id="XMLID_98_">
					<path id="XMLID_483_" style="fill:#E0E0E0;" d="M389.868,198.46l11.765-8.866l0.171-2.63c0,0,2.549,0.971,3.164,5.797
						c-1.676,3.894-4.646,7.159-9.107,9.702l-2.47-4.405L389.868,198.46z"/>
					<path id="XMLID_499_" style="fill:#E0E0E0;" d="M389.205,188.073c0,0-2.676,0.376-3.856,2.321
						c-1.177,1.941-0.907,9.365-0.907,9.365l2.814-2.556l2.612,1.257c-0.251-2.474-0.674-6.636-0.674-6.636L389.205,188.073z"/>
				</g>
			</g>
		</g>
		<g id="XMLID_471_">
			<path id="XMLID_481_" style="fill:#37474F;" d="M399.624,162.625c0,0-8.54,6.438-18.607,4.363
				c-10.654-2.196-3.418-8.605-3.418-8.605L399.624,162.625z"/>
			<g id="XMLID_472_">
				<g id="XMLID_478_">
					<path id="XMLID_480_" style="fill:#27DEBF;" d="M372.533,150.538c2.861-3.555,14.833-7.953,25.076-5.586
						c10.243,2.368,12.969,7.757,12.969,7.757s-5.593,3.912-13.732,3.467C388.706,155.73,372.533,150.538,372.533,150.538z"/>
					<path id="XMLID_474_" style="opacity:0.4;fill:#FFFFFF;" d="M372.533,150.538c2.861-3.555,14.833-7.953,25.076-5.586
						c10.243,2.368,12.969,7.757,12.969,7.757s-5.593,3.912-13.732,3.467C388.706,155.73,372.533,150.538,372.533,150.538z"/>
				</g>
				<path id="XMLID_477_" style="fill:#27DEBF;" d="M409.293,155.926c0,0,1.122-1.941,1.283-3.217c0,0-1.21,1.17-8.142,0.11
					c-6.582-1.006-13.439-4.827-20.741-5.143c-7.303-0.316-9.161,2.865-9.161,2.865s1.251,3.655,4.369,6.366
					c0,0,3.244,4.408,11.803,4.623C397.265,161.744,409.293,155.926,409.293,155.926z"/>
				<path id="XMLID_82_" style="fill:#F5F5F5;" d="M385.371,154.363c0,1.993-1.361,3.391-3.039,3.123
					c-1.678-0.268-3.039-2.101-3.039-4.094c0-1.993,1.36-3.391,3.039-3.123C384.01,150.538,385.371,152.371,385.371,154.363z"/>
				<path id="XMLID_475_" style="fill:#455A64;" d="M409.293,155.926l-0.09,1.373c-0.056,0.847-0.626,1.862-1.374,2.264
					c-2.587,1.389-9.205,4.549-18.903,3.833c-6.078-0.449-9.045-1.635-10.347-2.625c-1.277-0.971-1.52-1.72-1.581-2.549
					l-0.096-1.315c0,0,2.365,2.26,12.328,3.095C399.192,160.837,409.293,155.926,409.293,155.926z"/>
			</g>
		</g>
		<g id="XMLID_537_">
			<g id="XMLID_536_">
				<path id="XMLID_3285_" style="fill:#27DEBF;" d="M385.422,190.273c0,0-4.796,3.57-1.879,18.614
					c3.644,18.792,14.63,38.442,14.63,38.442s-4.805,2.161-5.543,1.397c-0.738-0.763-7.513-16.13-10.357-24.927
					c-2.844-8.797-6.959-23.008-1.665-32.215C380.608,191.585,383.119,189.612,385.422,190.273z"/>
				<path id="XMLID_53_" style="opacity:0.1;" d="M385.422,190.273c0,0-4.796,3.57-1.879,18.614
					c3.644,18.792,14.63,38.442,14.63,38.442s-4.805,2.161-5.543,1.397c-0.738-0.763-7.513-16.13-10.357-24.927
					c-2.844-8.797-6.959-23.008-1.665-32.215C380.608,191.585,383.119,189.612,385.422,190.273z"/>
			</g>
			<g id="XMLID_83_">
				<path id="XMLID_38_" style="fill:#27DEBF;" d="M422.159,239.22c0,0-28.384,7.62-29.405,9.136
					c-1.021,1.516,1.075,23.569,4.596,26.257c1.249,0.953,4.936,2.61,7.861,2.573c10.591-0.133,26.353-5.757,26.83-9.767
					C433.608,254.243,422.159,239.22,422.159,239.22z"/>
				<path id="XMLID_54_" style="opacity:0.1;" d="M422.159,239.22c0,0-28.384,7.62-29.405,9.136
					c-1.021,1.516,1.075,23.569,4.596,26.257c1.249,0.953,4.936,2.61,7.861,2.573c10.591-0.133,26.353-5.757,26.83-9.767
					C433.608,254.243,422.159,239.22,422.159,239.22z"/>
				<path id="XMLID_3288_" style="fill:#27DEBF;" d="M422.159,239.22c2.9,0.79,7.534,9.499,7.54,11.345
					c0.012,3.9-4.46,8.152-17.905,10.992c-9.578,2.023-12.743,0.361-14.077-2.454c-2.021-4.264-3.203-9.465-4.962-10.746
					C394.704,245.947,419.478,238.49,422.159,239.22z"/>
			</g>
		</g>
		<g id="XMLID_534_">
			<g id="XMLID_84_">
				<path id="XMLID_85_" style="fill:#FFA8A7;" d="M430.51,231.744c-0.463-7.096-3.5-15.879-5.262-20.233l-11.736,4.422
					c0,0,4.331,10.502,5.35,15.296c0,5.509-2.271,15.072-4.479,20.133c-0.391,0.896-1.12,1.6-2.008,2.01
					c-2.383,1.099-3.453,2.402-5.337,3.93c-1.475,1.196-2.626,1.394-2.51,1.849c0.149,0.585,0.963,1.605,2.619,1.322
					c0.833-0.143,1.949-0.638,3.347-1.299c0,0-1.269,2.594-3.909,5.101c-3.578,3.398-4.011,5.711,2.229,6.563
					c3.91,0.534,7.341-1.482,11.387-9.732c1.166-2.377,3.355-6.432,4.553-9.566C428.701,241.214,430.181,236.34,430.51,231.744z"/>
			</g>
			<g id="XMLID_97_">
				<path id="XMLID_267_" style="fill:#F5F5F5;" d="M411.718,193.167c4.767,0.231,7.934,2.165,11.07,8.404
					c3.074,6.117,6.726,18.958,6.726,18.958s-5.011,4.922-13.717,4.65c0,0-6.11-16.318-7.145-20.186
					C407.527,200.79,408.544,194.605,411.718,193.167z"/>
			</g>
		</g>
	</g>
</g>
</svg>
