<svg width="300" height="200" viewBox="0 0 300 200" fill="none" xmlns="http://www.w3.org/2000/svg">
<g clip-path="url(#clip0_5_264)">
<path d="M300 0H0V200H300V0Z" fill="url(#paint0_linear_5_264)"/>
<path d="M193.264 50.5146H191.013V53.7523H193.264V50.5146Z" fill="#2F1A31"/>
<path d="M196.053 48.8712C196.053 46.7734 194.352 45.0728 192.255 45.0728C190.157 45.0728 188.456 46.7734 188.456 48.8712C188.456 50.9691 190.157 52.6697 192.255 52.6697C194.352 52.6696 196.053 50.969 196.053 48.8712Z" fill="#2F1A31"/>
<path d="M194.156 48.8741C194.156 47.5532 193.085 46.4824 191.764 46.4824C190.443 46.4824 189.372 47.5532 189.372 48.8741C189.372 50.1949 190.443 51.2656 191.764 51.2656C193.085 51.2656 194.156 50.1949 194.156 48.8741Z" fill="#56335B"/>
<path d="M193.263 48.0052C193.263 47.5633 192.904 47.2051 192.463 47.2051C192.021 47.2051 191.662 47.5633 191.662 48.0052C191.662 48.4471 192.021 48.8054 192.463 48.8054C192.904 48.8054 193.263 48.4471 193.263 48.0052Z" fill="#CFD3A3"/>
<path d="M124.77 51.1587C123.637 52.2737 122.946 52.2454 122.509 51.8014C122.072 51.3575 122.054 50.6659 123.187 49.551C125.25 47.5201 127.039 47.3423 127.039 47.3423C127.039 47.3423 126.863 49.0981 124.77 51.1587Z" fill="#58338B"/>
<path d="M127.218 61.1645C126.507 62.5859 125.844 62.7827 125.287 62.5041C124.73 62.2253 124.49 61.5767 125.201 60.1553C126.496 57.5658 128.131 56.8188 128.131 56.8188C128.131 56.8188 128.532 58.5372 127.218 61.1645Z" fill="#58338B"/>
<path d="M133.148 87.309L132.851 87.3567C132.843 87.3112 132.074 82.7067 128.894 76.479C125.959 70.7329 120.312 62.39 110.077 55.2759L110.249 55.0288C120.54 62.1822 126.217 70.574 129.167 76.3543C132.366 82.6213 133.14 87.2628 133.148 87.309Z" fill="#58338B"/>
<path d="M120.966 64.5677L120.681 64.4723C124.148 54.113 117.978 44.1481 117.915 44.0486L118.169 43.8882C118.233 43.9888 124.479 54.0706 120.966 64.5677Z" fill="#58338B"/>
<path d="M115.381 60.9395C112.418 61.6855 109.805 60.766 109.775 60.755L109.877 60.472C109.91 60.484 113.258 61.6582 116.616 60.2041L116.736 60.4801C116.282 60.6768 115.827 60.8271 115.381 60.9395Z" fill="#58338B"/>
<path d="M131.002 80.858C124.838 81.6851 119.247 79.9863 114.383 75.8087C114.214 75.6639 114.055 75.5274 114.013 75.5063C114.013 75.5066 114.026 75.5126 114.047 75.5141L114.069 75.2144C114.158 75.2209 114.227 75.278 114.579 75.5806C119.375 79.6998 124.887 81.3752 130.962 80.5597L131.002 80.858Z" fill="#58338B"/>
<path d="M121.738 79.8538L121.438 79.8486C121.51 75.7664 117.547 70.7886 117.507 70.7387L117.742 70.5503C117.752 70.563 118.77 71.8357 119.765 73.6046C120.687 75.2435 121.778 77.658 121.738 79.8538Z" fill="#58338B"/>
<path d="M109.473 53.6988C111.367 54.7024 111.693 55.4471 111.402 55.9975C111.11 56.548 110.31 56.6957 108.416 55.6922C104.966 53.8639 103.827 51.9838 103.827 51.9838C103.827 51.9838 105.972 51.8441 109.473 53.6988Z" fill="#58338B"/>
<path d="M110.319 59.6119C112.428 59.9978 112.964 60.6092 112.852 61.222C112.74 61.8349 112.022 62.2168 109.913 61.8309C106.073 61.1281 104.419 59.6789 104.419 59.6789C104.419 59.6789 106.423 58.8989 110.319 59.6119Z" fill="#58338B"/>
<path d="M118.139 69.5705C119.19 70.7627 119.123 71.4513 118.656 71.8632C118.189 72.2752 117.497 72.2543 116.446 71.0622C114.532 68.8903 114.453 67.0947 114.453 67.0947C114.453 67.0947 116.196 67.3668 118.139 69.5705Z" fill="#58338B"/>
<path d="M117.196 55.5432C117.925 56.9553 117.693 57.6071 117.14 57.8929C116.586 58.1787 115.921 57.9905 115.191 56.5783C113.863 54.006 114.223 52.2451 114.223 52.2451C114.223 52.2451 115.848 52.9334 117.196 55.5432Z" fill="#58338B"/>
<path d="M125.209 77.3356C125.512 78.8958 125.107 79.4561 124.495 79.5749C123.883 79.6936 123.298 79.326 122.995 77.7656C122.442 74.9237 123.283 73.335 123.283 73.335C123.283 73.335 124.649 74.4521 125.209 77.3356Z" fill="#58338B"/>
<path d="M115.634 75.2192C116.916 76.1588 116.999 76.8457 116.631 77.3481C116.263 77.8504 115.583 77.9783 114.301 77.0387C111.966 75.3271 111.504 73.5902 111.504 73.5902C111.504 73.5902 113.265 73.4827 115.634 75.2192Z" fill="#58338B"/>
<path d="M118.486 42.5511C119.48 44.4505 119.328 45.2494 118.776 45.5381C118.224 45.8268 117.481 45.4959 116.487 43.5966C114.678 40.1368 114.803 37.9419 114.803 37.9419C114.803 37.9419 116.651 39.0409 118.486 42.5511Z" fill="#58338B"/>
<path d="M193.069 163.69C241.543 163.69 280.838 158.737 280.838 152.628C280.838 146.518 241.543 141.565 193.069 141.565C144.596 141.565 105.301 146.518 105.301 152.628C105.301 158.737 144.596 163.69 193.069 163.69Z" fill="#1E0C37"/>
<g opacity="0.4">
<path d="M222.979 65.6742C222.979 65.6742 243.486 31.6628 254.365 37.7234C265.243 43.7841 234.556 57.3877 228.963 67.4829L222.979 65.6742Z" fill="#58338B"/>
<path d="M226.087 66.5944C228.16 62.6873 232.445 56.4836 241.085 49.1171C246.251 44.7133 250.586 41.9454 250.63 41.918L250.74 42.0916C250.697 42.119 246.371 44.8807 241.216 49.2757C232.602 56.6203 228.333 62.7999 226.269 66.6907L226.087 66.5944Z" fill="#1C0042"/>
</g>
<g opacity="0.5">
<path d="M228.76 68.3843C228.76 68.3843 268.15 33.9579 279.361 45.9309C290.573 57.9041 246.613 62.6404 235.541 73.0572L228.76 68.3843Z" fill="#58338B"/>
<path d="M232.289 70.7839C236.459 66.7153 244.326 60.6544 258.125 54.8849C266.374 51.436 272.925 49.7055 272.99 49.6885L273.059 49.9505C272.994 49.9675 266.458 51.6942 258.226 55.1365C244.468 60.889 236.631 66.926 232.479 70.9776L232.289 70.7839Z" fill="#1C0042"/>
</g>
<path d="M209.293 141.12V124.253H175.269V141.12C175.269 145.504 172.352 149.057 168.754 149.057H167.383V151.235H217.179V149.057H215.808C212.21 149.057 209.293 145.504 209.293 141.12Z" fill="url(#paint1_linear_5_264)"/>
<path d="M216.903 151.237H167.662C167.061 151.237 166.574 150.749 166.574 150.148C166.574 149.547 167.061 149.059 167.662 149.059H216.903C217.504 149.059 217.991 149.547 217.991 150.148C217.991 150.749 217.504 151.237 216.903 151.237Z" fill="#58279C"/>
<path d="M250.237 134.611L135.181 133.291C132.717 133.262 130.736 131.258 130.736 128.795V58.571C130.736 56.1146 132.707 54.1126 135.163 54.0751L248.736 52.336C251.21 52.2981 253.25 54.2667 253.3 56.7409L254.784 130.024C254.836 132.563 252.776 134.64 250.237 134.611Z" fill="url(#paint2_linear_5_264)"/>
<path d="M246.533 120.686H137.413C136.188 120.686 135.195 119.693 135.195 118.468V61.6306C135.195 60.4053 136.188 59.4121 137.413 59.4121H246.533C247.759 59.4121 248.752 60.4053 248.752 61.6306V118.468C248.752 119.693 247.759 120.686 246.533 120.686Z" fill="#E7F2F0"/>
<path d="M208.102 65.2598V86.0169C208.102 87.2773 207.135 88.3121 205.901 88.4189C205.832 88.425 205.761 88.428 205.69 88.428H174.992C174.408 88.428 173.873 88.2203 173.455 87.8748C172.921 87.4326 172.58 86.7645 172.58 86.0169V65.2598C172.58 63.9279 173.66 62.8477 174.992 62.8477H205.69C207.022 62.8477 208.102 63.9279 208.102 65.2598Z" fill="#E28569"/>
<path d="M208.102 93.9049V114.662C208.102 115.994 207.021 117.073 205.689 117.073H174.992C174.421 117.073 173.895 116.874 173.482 116.54C172.932 116.1 172.58 115.423 172.58 114.662V93.9049C172.58 92.5729 173.66 91.4927 174.992 91.4927H205.689C207.021 91.4927 208.102 92.5728 208.102 93.9049Z" fill="#96B4E0"/>
<path d="M245.691 65.2598V86.0169C245.691 87.0093 245.092 87.8618 244.234 88.2315C243.942 88.3574 243.619 88.428 243.28 88.428H212.582C212.295 88.428 212.02 88.3777 211.764 88.2859C210.835 87.9504 210.171 87.0617 210.171 86.0169V65.2598C210.171 63.9279 211.25 62.8477 212.582 62.8477H243.28C244.611 62.8477 245.691 63.9279 245.691 65.2598Z" fill="#CFD3A3"/>
<path d="M245.691 93.9049V114.662C245.691 115.575 245.184 116.368 244.437 116.777C244.093 116.966 243.699 117.073 243.28 117.073H212.582C212.34 117.073 212.106 117.038 211.886 116.97C210.893 116.672 210.171 115.752 210.171 114.662V93.9049C210.171 92.5729 211.25 91.4927 212.582 91.4927H243.28C244.611 91.4927 245.691 92.5728 245.691 93.9049Z" fill="#7CA1CE"/>
<path d="M142.052 117.073H167.871C169.245 117.073 170.358 115.96 170.358 114.586V65.3347C170.358 63.9614 169.245 62.8481 167.871 62.8481H142.052C140.678 62.8481 139.565 63.9614 139.565 65.3347V114.586C139.565 115.96 140.678 117.073 142.052 117.073Z" fill="#96B4E0"/>
<path d="M220.188 79.4287C220.144 79.4186 219.122 79.1705 218.801 78.4C218.617 77.9571 218.706 77.4351 219.067 76.849C219.22 76.5995 219.362 76.3738 219.492 76.1672C220.368 74.7692 220.696 74.2461 220.46 73.1212L220.559 73.1006C220.803 74.2651 220.47 74.7976 219.577 76.2206C219.448 76.427 219.306 76.6525 219.153 76.9017C218.81 77.4586 218.723 77.9495 218.894 78.3608C219.194 79.0836 220.201 79.3281 220.211 79.3306L220.188 79.4287Z" fill="#74A1BD"/>
<path d="M220.511 73.1123C220.511 73.1123 220.91 74.916 219.715 76.8041C218.52 78.6922 219.82 80.0719 221.439 79.3457C223.058 78.6195 223.676 80.6836 225.745 79.5426C227.815 78.4016 220.511 73.1123 220.511 73.1123Z" fill="#74A1BD"/>
<path d="M244.236 88.2322C243.943 88.3581 243.62 88.4287 243.282 88.4287H212.583C212.296 88.4287 212.021 88.3784 211.765 88.2866C213.058 86.0246 216.357 82.2684 224.252 81.2779L224.263 81.2759C224.952 81.1903 225.657 81.0633 226.392 81.0099C227.628 80.9223 228.86 81.0251 230.077 81.0895H230.08C230.084 81.0906 230.087 81.0906 230.091 81.0906C239.996 81.6164 243.217 85.9259 244.236 88.2322Z" fill="#E28569"/>
<path d="M230.075 81.0905C229.18 80.9947 228.403 80.4335 228.048 79.6075L226.933 77.0189L226.61 76.2677L224.708 71.8501L225.037 76.4281L225.236 79.1759L225.292 79.9593C225.338 80.5984 224.892 81.1639 224.261 81.2774L224.25 81.2794C223.912 81.8297 223.444 82.9485 224.841 83.3929C226.482 83.9152 229.136 82.6234 230.089 81.0923C230.084 81.0917 230.079 81.091 230.075 81.0905Z" fill="#F7B686"/>
<path d="M226.938 76.9433C226.937 76.9686 226.935 76.9938 226.933 77.0191C226.824 78.4949 225.245 79.1842 225.245 79.1842L225.235 79.176L225.037 76.4283C225.52 76.2514 226.207 76.0698 226.609 76.2678C226.82 76.3712 226.952 76.5782 226.938 76.9433Z" fill="#2F1A31"/>
<path d="M224.501 77.8897C226.877 77.8897 228.803 75.5138 228.803 72.583C228.803 69.6522 226.877 67.2764 224.501 67.2764C222.126 67.2764 220.2 69.6522 220.2 72.583C220.2 75.5138 222.126 77.8897 224.501 77.8897Z" fill="#F7B686"/>
<path d="M228.226 73.3836C227.739 73.849 227.058 73.8966 226.705 73.4902C226.352 73.0838 226.46 72.3773 226.948 71.9119C227.435 71.4467 228.116 71.399 228.469 71.8055C228.822 72.212 228.714 72.9185 228.226 73.3836Z" fill="#F7B686"/>
<path d="M222.185 76.0149C222.185 76.0149 223.655 76.0489 225.124 75.5327C225.124 75.5327 225.246 76.9809 223.655 77.078C222.729 77.1344 222.185 76.0149 222.185 76.0149Z" fill="#DB6B49"/>
<path d="M222.185 76.0149C222.185 76.0149 222.541 76.31 223.37 76.3065C224.2 76.3028 225.124 75.5327 225.124 75.5327C225.124 75.5327 223.353 76.0192 222.185 76.0149Z" fill="white"/>
<path d="M224.086 72.6334C224.057 72.6256 224.033 72.605 224.021 72.5754C224.001 72.5252 224.025 72.4684 224.075 72.4482C224.105 72.4363 224.763 72.0977 225.342 72.7306C225.378 72.7706 225.377 72.8319 225.338 72.8691C225.299 72.9063 225.245 72.8957 225.2 72.8655C224.75 72.5636 224.172 72.6202 224.148 72.63C224.128 72.6381 224.106 72.6389 224.086 72.6334Z" fill="#060633"/>
<path d="M224.859 73.7058C224.866 73.9392 224.735 74.1328 224.566 74.1382C224.396 74.1436 224.253 73.9587 224.246 73.7254C224.238 73.492 224.369 73.2984 224.539 73.2931C224.708 73.2876 224.851 73.4725 224.859 73.7058Z" fill="#060633"/>
<path d="M220.594 73.1428C220.564 73.1464 220.533 73.1368 220.511 73.1139C220.474 73.0752 220.474 73.0134 220.513 72.9757C220.536 72.9535 221.016 72.3895 221.792 72.7543C221.841 72.7774 221.863 72.8344 221.841 72.8835C221.819 72.933 221.765 72.9439 221.712 72.9332C221.181 72.8251 220.669 73.0976 220.65 73.116C220.634 73.1314 220.614 73.1403 220.594 73.1428Z" fill="#060633"/>
<path d="M221.717 73.8428C221.813 74.0557 221.766 74.2847 221.611 74.3541C221.456 74.4236 221.254 74.3073 221.158 74.0944C221.062 73.8815 221.11 73.6525 221.264 73.5831C221.419 73.5136 221.622 73.6299 221.717 73.8428Z" fill="#060633"/>
<path d="M222.675 68.235C222.675 68.235 222.768 70.0761 225.067 70.3901C227.366 70.704 228.418 72.0104 228.109 73.6669C227.8 75.3233 224.628 78.4259 227.352 79.757C230.076 81.088 229.496 78.6061 232.45 79.1815C235.403 79.757 235.935 75.8135 233.902 73.525C231.869 71.2364 232.692 65.1804 225.067 65.4491C217.442 65.7175 220.235 71.801 220.235 71.801C220.235 71.801 222.679 70.2684 222.675 68.235Z" fill="#74A1BD"/>
<path d="M228.136 80.1014C227.562 79.8696 227.209 79.5247 227.087 79.076C226.752 77.8412 228.191 75.9759 229.461 74.3302C229.795 73.897 230.111 73.4879 230.39 73.0976C231.167 72.0137 231.233 70.7722 230.569 69.7768C229.84 68.6849 228.452 68.2234 226.947 68.5727C225.446 68.9207 224.414 68.6063 223.812 68.2815C223.159 67.9286 222.865 67.4994 222.853 67.4813L222.905 67.4468C222.916 67.4641 224.102 69.1684 226.932 68.5121C228.464 68.157 229.877 68.6284 230.62 69.7422C231.29 70.745 231.221 72.0445 230.441 73.1338C230.16 73.5251 229.844 73.9346 229.51 74.3683C228.249 76.0025 226.82 77.8549 227.147 79.0599C227.265 79.495 227.596 79.8168 228.159 80.044L228.136 80.1014Z" fill="white"/>
<path d="M220.892 76.6173C220.742 76.6173 220.588 76.5891 220.434 76.5324C219.788 76.2944 219.22 75.5809 218.914 74.6242C218.418 73.0673 218.767 71.3318 219.693 70.7559C220.036 70.5424 220.422 70.5049 220.809 70.6473C221.455 70.8854 222.024 71.5987 222.329 72.5555C222.825 74.1124 222.476 75.848 221.55 76.4239C221.343 76.5525 221.121 76.6173 220.892 76.6173ZM220.352 70.7546C220.158 70.7546 219.97 70.8095 219.794 70.9185C218.938 71.4512 218.626 73.0875 219.097 74.5661C219.384 75.4672 219.909 76.1351 220.501 76.3529C220.83 76.4742 221.158 76.4423 221.449 76.2614C222.305 75.7287 222.618 74.0925 222.146 72.6138C221.859 71.7128 221.334 71.0449 220.743 70.8269C220.612 70.7788 220.481 70.7546 220.352 70.7546Z" fill="white"/>
<g opacity="0.3">
<path d="M227.305 71.5462C227.65 73.0614 227.098 74.6883 226.073 75.1799C225.047 75.6714 223.936 74.8416 223.591 73.3265C223.246 71.8113 223.798 70.1844 224.823 69.6928C225.849 69.2013 226.96 70.0311 227.305 71.5462Z" fill="white"/>
</g>
<g opacity="0.3">
<path d="M222.369 72.6833C222.715 74.2054 222.254 75.8561 221.34 76.3699C220.425 76.8837 219.404 76.0665 219.057 74.5443C218.711 73.0222 219.172 71.3716 220.086 70.8577C221.001 70.3439 222.023 71.1611 222.369 72.6833Z" fill="white"/>
</g>
<path d="M225.349 75.3643C225.111 75.3643 224.872 75.308 224.64 75.1955C223.98 74.875 223.475 74.1508 223.256 73.2091C222.88 71.5897 223.493 69.8407 224.623 69.3102C225.079 69.0961 225.561 69.0998 226.017 69.3212C226.678 69.6416 227.182 70.3658 227.401 71.3076C227.778 72.9269 227.164 74.6761 226.035 75.2065C225.81 75.3116 225.58 75.3643 225.349 75.3643ZM225.308 69.3444C225.105 69.3444 224.902 69.3907 224.704 69.4835C223.651 69.9777 223.085 71.6295 223.443 73.1656C223.645 74.0379 224.124 74.7322 224.724 75.0232C225.126 75.2184 225.551 75.2218 225.953 75.0331C227.006 74.5389 227.572 72.887 227.215 71.3509C227.012 70.4787 226.533 69.7843 225.934 69.4933C225.729 69.3941 225.518 69.3444 225.308 69.3444Z" fill="white"/>
<path d="M222.165 73.2518C222.113 73.2518 222.062 73.2298 222.027 73.1868C221.965 73.1109 221.975 72.999 222.05 72.9363C222.075 72.916 222.656 72.4432 223.629 72.6351C223.726 72.6542 223.789 72.7483 223.77 72.8452C223.751 72.9419 223.657 73.0052 223.56 72.9859C222.762 72.8285 222.297 73.1961 222.278 73.2118C222.245 73.2389 222.205 73.2518 222.165 73.2518Z" fill="white"/>
<path d="M244.438 116.719C244.094 116.946 243.701 117.074 243.281 117.074H212.583C212.341 117.074 212.108 117.031 211.887 116.951C214.014 114.884 218.108 111.642 223.703 110.547C224.114 110.467 224.533 110.397 224.96 110.341C225.357 110.289 225.761 110.248 226.172 110.219C227.603 110.12 229.032 110.202 230.434 110.387C230.782 110.433 231.123 110.482 231.456 110.535C238.515 111.66 242.364 114.361 244.438 116.719Z" fill="#2F1A31"/>
<path d="M229.956 111.702C230.59 110.727 229.679 110.643 229.391 109.657L228.499 106.609L228.24 105.721L226.715 100.502L226.42 105.665L226.244 108.763L226.188 109.744C226.15 110.409 225.967 110.501 225.464 111.072C225.26 111.303 224.498 112.239 225.472 112.709C226.346 113.131 229.148 112.944 229.956 111.702Z" fill="#F7B686"/>
<path d="M229.664 105.436C229.664 105.436 234.746 103.662 233.988 99.8812C233.23 96.1 229.354 103.303 229.354 103.303L229.149 105.28L229.664 105.436Z" fill="#2F1A31"/>
<path d="M228.515 106.528C228.511 106.556 228.505 106.584 228.499 106.612C228.158 108.244 226.253 108.777 226.253 108.777L226.243 108.767L226.419 105.668C226.997 105.543 227.809 105.443 228.239 105.725C228.464 105.872 228.585 106.123 228.515 106.528Z" fill="#2F1A31"/>
<path d="M221.826 101.289C222.221 98.2839 224.561 96.1131 227.053 96.4403C229.545 96.7675 231.245 99.4688 230.851 102.474C230.456 105.479 228.116 107.65 225.624 107.322C223.132 106.995 221.432 104.294 221.826 101.289Z" fill="#F7B686"/>
<path d="M230.274 101.751C230.274 101.751 228.774 102.054 228.137 100.936C227.5 99.8184 227.125 98.862 224.523 98.9596C221.921 99.0573 219.812 97.5304 219.922 96.1446C220.032 94.7585 221.456 94.3037 222.763 94.9662C224.07 95.6288 222.782 94.1736 224.276 93.3407C225.771 92.5079 227.54 94.863 228.988 94.7701C230.435 94.6769 234.835 96.0177 233.987 99.8822L230.274 101.751Z" fill="#2F1A31"/>
<path d="M230.841 102.857C230.38 103.151 229.793 103.055 229.531 102.642C229.268 102.23 229.43 101.658 229.891 101.364C230.352 101.071 230.939 101.167 231.202 101.579C231.464 101.992 231.302 102.564 230.841 102.857Z" fill="#F7B686"/>
<path d="M223.308 96.8913C222.845 96.8913 222.498 96.8013 222.272 96.6217C221.877 96.3087 221.851 96.0296 221.958 95.873C222.085 95.6873 222.433 95.6212 222.797 95.8322C223.42 96.1934 223.877 96.1354 223.881 96.1346L223.89 96.1962C223.871 96.1987 223.409 96.2589 222.766 95.8858C222.433 95.693 222.12 95.7456 222.009 95.9077C221.918 96.0415 221.949 96.2864 222.31 96.573C223.057 97.1658 225.067 96.5381 225.087 96.5316L225.106 96.5907C225.101 96.5925 224.587 96.7541 223.986 96.8387C223.738 96.8739 223.512 96.8913 223.308 96.8913Z" fill="white"/>
<path d="M231.568 95.9695C231.035 95.5931 230.383 95.6306 229.628 95.674C229.246 95.6961 228.85 95.7189 228.419 95.6951C227.122 95.624 226.045 94.3947 226.008 94.27L226.067 94.2521L226.037 94.2611L226.067 94.252C226.093 94.3289 227.121 95.5617 228.422 95.6331C228.85 95.6566 229.244 95.634 229.625 95.612C230.391 95.5679 231.054 95.5298 231.604 95.9189L231.568 95.9695Z" fill="white"/>
<path d="M233.072 99.1758C233.07 99.1758 233.067 99.1757 233.065 99.1755C232.87 99.1629 232.561 98.5848 232.551 98.2908C232.546 98.1405 232.621 98.108 232.666 98.102C233.03 98.0531 233.204 98.9398 233.211 98.9776L233.212 98.983L233.211 98.9885C233.186 99.1415 233.123 99.1758 233.072 99.1758ZM232.694 98.1623C232.687 98.1623 232.681 98.1627 232.674 98.1637C232.658 98.1658 232.609 98.1723 232.613 98.2889C232.623 98.5645 232.921 99.1041 233.069 99.1137C233.113 99.1163 233.138 99.046 233.149 98.9839C233.102 98.7456 232.935 98.1623 232.694 98.1623Z" fill="white"/>
<path d="M225.483 101.651C225.459 101.636 225.442 101.611 225.44 101.581C225.436 101.53 225.473 101.486 225.524 101.481C225.554 101.479 226.241 101.356 226.588 102.087C226.609 102.133 226.592 102.188 226.546 102.21C226.5 102.233 226.454 102.209 226.422 102.169C226.101 101.772 225.564 101.663 225.539 101.665C225.519 101.667 225.499 101.662 225.483 101.651Z" fill="#060633"/>
<path d="M225.884 102.832C225.826 103.044 225.654 103.182 225.5 103.14C225.346 103.098 225.268 102.892 225.326 102.679C225.384 102.467 225.556 102.329 225.71 102.371C225.864 102.413 225.942 102.619 225.884 102.832Z" fill="#060633"/>
<path d="M222.07 101.377C222.049 101.374 222.03 101.358 222.021 101.332C222.004 101.287 222.02 101.232 222.056 101.207C222.078 101.192 222.551 100.797 222.997 101.314C223.025 101.346 223.026 101.403 222.999 101.443C222.971 101.482 222.931 101.479 222.897 101.456C222.557 101.231 222.134 101.355 222.116 101.367C222.101 101.377 222.085 101.38 222.07 101.377Z" fill="#060633"/>
<path d="M222.913 102.323C222.94 102.542 222.834 102.735 222.675 102.755C222.517 102.774 222.366 102.613 222.339 102.395C222.311 102.177 222.418 101.983 222.576 101.964C222.735 101.944 222.885 102.105 222.913 102.323Z" fill="#060633"/>
<path d="M225.348 105.742C224.528 105.742 223.889 105.242 223.879 105.234C223.852 105.212 223.847 105.172 223.869 105.144C223.892 105.116 223.932 105.112 223.96 105.134C224.011 105.174 225.23 106.124 226.436 105.251C226.465 105.23 226.505 105.236 226.526 105.265C226.546 105.294 226.54 105.334 226.511 105.355C226.114 105.642 225.713 105.742 225.348 105.742Z" fill="#020202"/>
<path d="M226.565 105.621C226.563 105.621 226.56 105.621 226.558 105.621C226.523 105.617 226.497 105.586 226.501 105.55C226.51 105.457 226.486 105.298 226.317 105.065C226.311 105.057 226.307 105.051 226.305 105.048C226.286 105.018 226.295 104.978 226.326 104.959C226.356 104.94 226.395 104.949 226.414 104.979L226.422 104.99C226.576 105.202 226.646 105.396 226.629 105.563C226.625 105.597 226.597 105.621 226.565 105.621Z" fill="#020202"/>
<path d="M221.667 105.05C221.435 105.05 221.207 104.983 220.992 104.849C220.408 104.484 219.997 103.669 219.893 102.67C219.725 101.045 220.421 99.4171 221.445 99.0422C221.825 98.9033 222.21 98.9452 222.56 99.1635C223.144 99.5285 223.555 100.343 223.658 101.342C223.827 102.967 223.13 104.595 222.106 104.97C221.96 105.023 221.813 105.05 221.667 105.05ZM221.884 99.1539C221.76 99.1539 221.635 99.1765 221.511 99.222C220.565 99.5686 219.924 101.107 220.084 102.651C220.181 103.591 220.559 104.352 221.094 104.686C221.391 104.872 221.719 104.908 222.041 104.79C222.987 104.443 223.628 102.905 223.468 101.362C223.37 100.421 222.993 99.6599 222.458 99.3258C222.275 99.2115 222.081 99.1539 221.884 99.1539Z" fill="white"/>
<g opacity="0.3">
<path d="M228.734 101.367C228.763 102.921 227.891 104.401 226.787 104.673C225.682 104.945 224.764 103.906 224.735 102.352C224.707 100.798 225.579 99.3182 226.683 99.0462C227.787 98.7743 228.706 99.8132 228.734 101.367Z" fill="white"/>
</g>
<g opacity="0.3">
<path d="M223.672 101.475C223.7 103.036 222.912 104.557 221.912 104.874C220.912 105.19 220.079 104.182 220.051 102.621C220.023 101.061 220.811 99.5387 221.81 99.2222C222.811 98.9056 223.644 99.9141 223.672 101.475Z" fill="white"/>
</g>
<path d="M226.354 104.737C226.005 104.737 225.674 104.622 225.381 104.395C224.799 103.947 224.453 103.135 224.431 102.168C224.393 100.506 225.35 98.9189 226.565 98.6303C227.055 98.5138 227.526 98.6159 227.927 98.9255C228.509 99.3742 228.855 100.186 228.877 101.153C228.915 102.815 227.958 104.402 226.743 104.69C226.612 104.722 226.482 104.737 226.354 104.737ZM226.952 98.7753C226.839 98.7753 226.725 98.7889 226.609 98.8165C225.478 99.0856 224.586 100.587 224.623 102.164C224.643 103.059 224.97 103.837 225.498 104.244C225.852 104.517 226.267 104.607 226.699 104.504C227.831 104.235 228.722 102.734 228.686 101.157C228.665 100.262 228.338 99.4842 227.81 99.0772C227.552 98.8772 227.259 98.7753 226.952 98.7753Z" fill="white"/>
<path d="M224.845 102.024C224.822 102.024 224.798 102.019 224.776 102.009C224.017 101.689 223.481 101.966 223.476 101.969C223.388 102.015 223.28 101.982 223.234 101.895C223.188 101.807 223.221 101.699 223.308 101.653C223.336 101.638 224.002 101.294 224.915 101.68C225.006 101.719 225.049 101.824 225.01 101.914C224.981 101.983 224.915 102.024 224.845 102.024Z" fill="white"/>
<path d="M234.01 99.9286L233.965 99.8385C234.699 99.4692 234.511 98.6604 234.509 98.6523L234.607 98.6284C234.609 98.6373 234.815 99.5235 234.01 99.9286Z" fill="#2F1A31"/>
<path d="M234.541 101.003C234.537 100.997 234.143 100.394 233.716 100.299L233.737 100.201C234.206 100.305 234.608 100.922 234.625 100.948L234.541 101.003Z" fill="#2F1A31"/>
<path d="M195.27 69.4526C195.27 69.4526 195.594 70.6921 195.27 72.2464C194.947 73.8005 193.366 69.9804 193.366 69.9804L195.27 69.4526Z" fill="#56335B"/>
<path d="M205.901 88.4204C205.832 88.4265 205.761 88.4295 205.689 88.4295H174.992C174.408 88.4295 173.873 88.2218 173.455 87.8763C175.255 85.9882 179.155 82.9524 186.197 81.982C186.412 81.9518 186.631 81.9246 186.853 81.8984C187.069 81.8732 187.286 81.85 187.503 81.8309C188.029 81.7814 188.559 81.7483 189.09 81.7321C189.762 81.712 190.438 81.719 191.114 81.7583C191.163 81.7613 191.212 81.7643 191.26 81.7674C191.277 81.7694 191.294 81.7704 191.31 81.7714C191.869 81.8138 192.411 81.8924 192.944 81.9598C193.158 81.9869 193.371 82.0122 193.584 82.0324C200.314 82.6793 203.984 85.8188 205.901 88.4204Z" fill="#7CA1CE"/>
<path d="M187.579 83.5959C186.271 82.8463 187.607 82.0562 187.895 81.071L188.787 78.0223L189.046 77.1347L190.571 71.916L190.866 77.0781L191.042 80.1766L191.098 81.1575C191.136 81.8231 191.544 81.9567 192.048 82.5278C192.252 82.759 192.614 82.5704 191.047 82.8349C189.758 83.0521 188.504 84.1261 187.579 83.5959Z" fill="#F7B686"/>
<path d="M195.458 72.699C195.064 69.6941 192.724 67.5233 190.232 67.8505C187.739 68.1777 186.039 70.8789 186.434 73.884C186.828 76.8889 189.168 79.0596 191.66 78.7324C194.152 78.4053 195.853 75.7039 195.458 72.699Z" fill="#F7B686"/>
<path d="M186.322 72.3111L188.525 72.0826C189.009 72.0324 189.452 71.7721 189.714 71.3619C190.165 70.6554 190.709 70.2927 192.764 70.3697C195.366 70.4674 197.084 68.9161 197.365 67.5546C197.652 66.165 196.32 65.223 195.013 65.8856C193.706 66.5483 194.267 64.9233 193.011 64.7509C190.662 64.4285 190.222 66.2389 188.299 66.1801C185.778 66.1031 181.262 68.0188 183.404 72.4569L186.322 72.3111Z" fill="#2F1A31"/>
<path d="M191.802 73.0605C191.825 73.0456 191.842 73.0201 191.844 72.9901C191.849 72.9395 191.811 72.8948 191.76 72.8905C191.73 72.8882 191.043 72.7652 190.697 73.4957C190.675 73.5418 190.693 73.5968 190.738 73.6195C190.784 73.6422 190.83 73.6178 190.862 73.5781C191.183 73.1814 191.72 73.0724 191.745 73.0745C191.766 73.0762 191.785 73.0709 191.802 73.0605Z" fill="#060633"/>
<path d="M191.403 74.2441C191.461 74.4564 191.633 74.5946 191.787 74.5526C191.941 74.5105 192.019 74.3043 191.961 74.0918C191.903 73.8794 191.731 73.7414 191.577 73.7834C191.423 73.8255 191.345 74.0318 191.403 74.2441Z" fill="#060633"/>
<path d="M195.214 72.7881C195.235 72.7844 195.254 72.7682 195.264 72.7421C195.28 72.6981 195.264 72.6423 195.228 72.6174C195.206 72.6028 194.733 72.2072 194.287 72.7242C194.259 72.7568 194.258 72.8138 194.285 72.8532C194.313 72.8927 194.353 72.8896 194.387 72.867C194.727 72.6415 195.151 72.7653 195.168 72.7773C195.183 72.7873 195.199 72.7907 195.214 72.7881Z" fill="#060633"/>
<path d="M194.374 73.7312C194.346 73.9497 194.453 74.1429 194.611 74.1627C194.77 74.1825 194.92 74.0216 194.948 73.8031C194.975 73.5847 194.869 73.3916 194.71 73.3718C194.552 73.3519 194.401 73.5129 194.374 73.7312Z" fill="#060633"/>
<path d="M183.404 72.4557C183.404 72.4557 184.925 75.7386 187.082 75.9794C187.082 75.9794 185.338 73.4776 189.014 71.9527C189.014 71.9527 185.639 71.4217 183.404 72.4557Z" fill="#56335B"/>
<path d="M186.444 74.2651C186.906 74.5587 187.492 74.4624 187.755 74.0501C188.017 73.6379 187.856 73.0656 187.394 72.772C186.933 72.4785 186.346 72.5747 186.084 72.9871C185.821 73.3994 185.983 73.9715 186.444 74.2651Z" fill="#F7B686"/>
<path d="M189.013 71.9546C189.013 71.9546 188.719 74.7096 189.28 75.2304C189.841 75.7512 193.543 75.9753 195.271 75.3076C195.3 77.077 194.053 78.6389 192.308 78.9322C191.73 79.0291 191.133 79.0298 190.54 78.9261C189.33 78.7146 188.154 78.2143 187.655 77.0922C187.504 76.7507 187.945 74.6503 187.945 74.6503C187.945 74.6503 188.111 73.4177 187.394 72.7762C187.394 72.7762 188.222 72.0321 189.013 71.9546Z" fill="#56335B"/>
<path d="M194.358 76.3022C194.358 76.3022 192.939 76.6862 191.389 76.5361C191.389 76.5361 191.617 77.9715 193.185 77.6854C194.097 77.5192 194.358 76.3022 194.358 76.3022Z" fill="white"/>
<path d="M194.732 65.6657C194.05 65.6657 193.988 65.0767 193.988 65.0705L194.111 65.0594L194.049 65.065L194.111 65.0591C194.113 65.0796 194.164 65.5591 194.766 65.5409L194.77 65.6649C194.757 65.6655 194.744 65.6657 194.732 65.6657Z" fill="#2F1A31"/>
<path d="M193.501 69.6388L193.484 69.5792C193.512 69.571 196.28 68.7503 196.395 67.325C196.427 66.922 196.36 66.6544 196.189 66.507C195.914 66.2707 195.415 66.3873 194.974 66.4903C194.906 66.506 194.84 66.5215 194.776 66.5353L194.763 66.4745C194.827 66.4608 194.892 66.4454 194.96 66.4296C195.415 66.3235 195.931 66.203 196.229 66.4599C196.416 66.621 196.491 66.9058 196.457 67.3299C196.408 67.9393 195.88 68.5321 194.929 69.0443C194.216 69.4289 193.508 69.6367 193.501 69.6388Z" fill="white"/>
<path d="M188.046 66.7509C187.785 66.7509 187.509 66.7333 187.216 66.6937L187.224 66.6321C189.928 66.9982 191.229 65.4788 191.241 65.4634L191.289 65.5033C191.277 65.5172 190.221 66.7509 188.046 66.7509Z" fill="white"/>
<path d="M186.197 81.9801C186.197 81.9801 187.16 80.0281 187.912 80.3017C188.339 80.4567 188.732 81.8692 189.994 82.3037C191.257 82.7383 191.153 82.9245 191.133 83.3384C191.112 83.7523 191.277 85.1802 190.719 85.2423C190.16 85.3044 185.834 84.4294 186.197 81.9801Z" fill="#96B4E0"/>
<path d="M191.006 80.8888C190.999 80.7706 191.122 80.6889 191.231 80.7364C191.633 80.9136 192.684 81.4312 193.071 82.1607C193.554 83.0712 192.926 84.9544 192.454 84.9958C191.981 85.0373 190.94 83.0907 191.047 82.8326C191.154 82.5746 191.365 81.9648 191.227 81.6397C191.132 81.4181 191.017 81.1047 191.006 80.8888Z" fill="#96B4E0"/>
<path d="M180.398 115.252C179.378 115.252 178.315 114.743 177.396 113.815C176.525 112.935 175.842 111.726 175.522 110.498C174.906 108.132 175.67 106.115 177.565 105.104C182.026 102.722 182.528 100.466 182.533 100.444L182.829 100.502C182.811 100.599 182.315 102.911 177.707 105.37C176.86 105.822 174.981 107.219 175.815 110.422C176.121 111.6 176.776 112.759 177.61 113.602C178.488 114.489 179.495 114.968 180.449 114.949L180.455 115.251C180.436 115.252 180.417 115.252 180.398 115.252Z" fill="#E28569"/>
<path d="M190.922 93.4124C190.922 93.4124 194.101 93.5611 195.932 96.1914C198.692 100.157 194.103 103.292 195.994 104.92C197.816 106.487 199.853 105.441 199.199 107.594C198.545 109.748 203.19 108.883 201.305 113.078C199.419 117.272 181.625 115.761 179.188 114.252C177.437 113.167 174.181 108.785 179.455 104.641C184.729 100.497 181.135 92.3943 190.922 93.4124Z" fill="#E28569"/>
<path d="M204.669 117.074H174.993C174.421 117.074 173.896 116.874 173.482 116.541C174.341 115.174 175.98 113.282 178.973 111.862C180.965 110.914 183.557 110.175 186.917 109.936C186.922 109.936 186.927 109.935 186.932 109.935H186.933C188.149 109.85 189.38 109.768 190.616 109.856C191.352 109.909 192.056 110.035 192.745 110.122L192.757 110.124C196.765 110.633 199.661 112.169 201.7 113.849C203.031 114.944 203.996 116.101 204.669 117.074Z" fill="#CFD3A3"/>
<path d="M187.405 110.948C187.006 110.351 187.932 109.742 188.176 108.876L188.94 106.164L189.162 105.376L190.466 100.747L190.741 105.329L190.906 108.079L190.953 108.854C190.982 109.335 191.131 109.689 191.479 109.874C191.838 110.065 192.12 110.38 192.213 110.776C192.331 111.275 192.294 111.892 191.586 112.225C190.028 112.958 188.043 111.905 187.405 110.948Z" fill="#F7B686"/>
<path d="M188.927 106.091C188.932 106.116 188.936 106.141 188.942 106.166C189.244 107.614 190.9 108.09 190.9 108.09L190.908 108.081L190.743 105.331C190.242 105.219 189.536 105.129 189.164 105.378C188.969 105.509 188.865 105.731 188.927 106.091Z" fill="#2F1A31"/>
<path d="M195.032 100.883C194.647 97.9773 192.425 95.8756 190.07 96.188C187.715 96.5006 186.119 99.1091 186.504 102.014C186.89 104.92 189.112 107.022 191.467 106.709C193.822 106.396 195.418 103.788 195.032 100.883Z" fill="#F7B686"/>
<path d="M191.187 101.445C191.215 101.434 191.237 101.41 191.244 101.379C191.258 101.327 191.226 101.273 191.174 101.26C191.143 101.252 190.446 101.003 189.956 101.707C189.925 101.751 189.933 101.812 189.977 101.843C190.021 101.875 190.073 101.858 190.114 101.822C190.52 101.463 191.1 101.443 191.126 101.45C191.147 101.455 191.169 101.453 191.187 101.445Z" fill="#060633"/>
<path d="M190.562 102.613C190.585 102.845 190.74 103.02 190.909 103.003C191.078 102.986 191.195 102.784 191.172 102.552C191.149 102.32 190.993 102.145 190.825 102.162C190.656 102.179 190.538 102.381 190.562 102.613Z" fill="#060633"/>
<path d="M194.717 101.489C194.746 101.489 194.775 101.475 194.795 101.449C194.827 101.406 194.818 101.345 194.775 101.313C194.749 101.294 194.199 100.798 193.478 101.261C193.432 101.291 193.418 101.35 193.446 101.396C193.474 101.442 193.529 101.446 193.58 101.428C194.092 101.251 194.636 101.454 194.658 101.47C194.675 101.483 194.696 101.489 194.717 101.489Z" fill="#060633"/>
<path d="M193.695 102.331C193.628 102.555 193.705 102.775 193.867 102.824C194.03 102.873 194.216 102.731 194.282 102.507C194.349 102.283 194.272 102.062 194.11 102.014C193.947 101.965 193.762 102.107 193.695 102.331Z" fill="#060633"/>
<path d="M187.18 102.732C187.724 103.129 188.405 103.087 188.702 102.637C188.999 102.188 188.798 101.502 188.254 101.105C187.71 100.708 187.028 100.75 186.731 101.199C186.435 101.649 186.635 102.335 187.18 102.732Z" fill="#F7B686"/>
<path d="M191.897 97.9628C191.897 97.9628 193.826 97.1323 194.294 99.1057C194.685 100.759 195.084 101.366 195.615 101.115C196.145 100.864 194.474 96.6708 194.474 96.6708L191.44 95.8521L190.655 95.9865L191.897 97.9628Z" fill="#E28569"/>
<path d="M191.898 97.9598C191.898 97.9598 190.234 96.819 188.972 98.3956C187.709 99.9722 188.129 102.386 186.428 102.783C184.727 103.179 183.475 97.5594 185.722 96.3218C187.969 95.0842 189.364 94.75 190.069 95.3378C190.774 95.9255 191.898 97.9598 191.898 97.9598Z" fill="#E28569"/>
<path d="M184.565 102.887L184.545 102.788C186.204 102.453 186.525 101.5 186.897 100.396C187.156 99.6265 187.45 98.7545 188.254 97.9979C190.191 96.1742 191.861 97.5099 191.877 97.5236L191.813 97.6013C191.748 97.5478 190.194 96.3097 188.322 98.0713C187.537 98.8106 187.26 99.6327 186.992 100.428C186.61 101.561 186.281 102.54 184.565 102.887Z" fill="white"/>
<path d="M194.5 104.881C194.307 104.881 194.117 104.838 193.933 104.751C192.961 104.292 192.467 102.721 192.833 101.249C193.05 100.376 193.537 99.6845 194.135 99.4002C194.522 99.2165 194.925 99.213 195.301 99.39C196.272 99.8484 196.766 101.419 196.4 102.892C196.183 103.765 195.696 104.456 195.098 104.74C194.901 104.834 194.699 104.881 194.5 104.881ZM193.011 101.293C192.666 102.685 193.114 104.162 194.011 104.585C194.335 104.737 194.684 104.734 195.019 104.575C195.568 104.314 196.018 103.668 196.222 102.848C196.567 101.456 196.119 99.9793 195.222 99.5562C194.898 99.4034 194.55 99.4069 194.214 99.5663C193.665 99.8273 193.215 100.473 193.011 101.293Z" fill="white"/>
<g opacity="0.3">
<path d="M187.81 101.337C187.592 102.756 188.278 104.209 189.341 104.581C190.404 104.954 191.442 104.106 191.659 102.687C191.876 101.268 191.191 99.8155 190.128 99.4429C189.065 99.07 188.027 99.9181 187.81 101.337Z" fill="white"/>
</g>
<g opacity="0.3">
<path d="M192.797 101.368C192.579 102.794 193.176 104.275 194.13 104.677C195.084 105.079 196.034 104.249 196.252 102.823C196.469 101.398 195.873 99.9168 194.918 99.5149C193.964 99.113 193.015 99.9429 192.797 101.368Z" fill="white"/>
</g>
<path d="M189.947 104.704C189.76 104.704 189.571 104.673 189.385 104.609C188.215 104.209 187.458 102.646 187.698 101.126C187.832 100.279 188.25 99.588 188.845 99.2296C189.289 98.9618 189.803 98.9066 190.293 99.0739C191.463 99.4743 192.22 101.037 191.98 102.557C191.846 103.404 191.428 104.095 190.833 104.454C190.557 104.62 190.254 104.704 189.947 104.704ZM189.727 99.1613C189.455 99.1613 189.189 99.237 188.94 99.3871C188.391 99.7174 188.005 100.362 187.88 101.155C187.653 102.591 188.355 104.063 189.445 104.436C189.888 104.587 190.335 104.539 190.738 104.296C191.286 103.966 191.672 103.322 191.798 102.529C192.025 101.093 191.323 99.6208 190.233 99.2479C190.064 99.1901 189.894 99.1613 189.727 99.1613Z" fill="white"/>
<path d="M193.034 102.111C192.999 102.111 192.963 102.101 192.932 102.08C192.91 102.064 192.417 101.739 191.636 101.962C191.541 101.989 191.442 101.934 191.415 101.839C191.388 101.744 191.443 101.645 191.538 101.618C192.491 101.346 193.11 101.768 193.136 101.786C193.217 101.843 193.237 101.954 193.18 102.035C193.146 102.085 193.09 102.111 193.034 102.111Z" fill="white"/>
<path d="M191.794 105.514C191.428 105.514 191.027 105.414 190.63 105.127C190.601 105.106 190.595 105.066 190.616 105.037C190.636 105.008 190.677 105.002 190.706 105.023C191.913 105.897 193.169 104.916 193.181 104.906C193.209 104.883 193.25 104.888 193.272 104.916C193.294 104.944 193.29 104.984 193.262 105.006C193.253 105.013 192.613 105.514 191.794 105.514Z" fill="#020202"/>
<path d="M190.576 105.393C190.543 105.393 190.516 105.369 190.512 105.336C190.495 105.168 190.564 104.975 190.719 104.762L190.727 104.751C190.746 104.722 190.786 104.713 190.816 104.732C190.845 104.751 190.854 104.79 190.836 104.82C190.834 104.823 190.83 104.829 190.823 104.838C190.655 105.07 190.631 105.23 190.64 105.323C190.644 105.358 190.618 105.39 190.583 105.393C190.58 105.393 190.578 105.393 190.576 105.393Z" fill="#020202"/>
<path d="M146.308 92.3619C146.308 93.1024 146.007 93.7736 145.521 94.2588C145.036 94.7415 144.369 95.0426 143.628 95.0426C142.887 95.0426 142.22 94.7415 141.734 94.2588C141.249 93.7736 140.948 93.1025 140.948 92.3619C140.948 90.883 142.148 89.6812 143.628 89.6812C145.107 89.6812 146.308 90.883 146.308 92.3619Z" fill="#56335B"/>
<path d="M142.641 91.5503C142.641 91.0058 143.083 90.5645 143.627 90.5645C144.172 90.5645 144.614 91.0059 144.614 91.5503C144.614 92.0948 144.172 92.5361 143.627 92.5361C143.083 92.5362 142.641 92.0948 142.641 91.5503Z" fill="#CFD3A3"/>
<path d="M145.523 94.2619C145.038 94.7446 144.371 95.0458 143.63 95.0458C142.889 95.0458 142.222 94.7446 141.736 94.2619C141.964 93.4282 142.724 92.8154 143.63 92.8154C144.535 92.8154 145.296 93.4282 145.523 94.2619Z" fill="#CFD3A3"/>
<path d="M164.537 94.56H150.35C149.735 94.56 149.231 94.0566 149.231 93.4413V91.2877C149.231 90.6724 149.735 90.1689 150.35 90.1689H164.537C165.152 90.1689 165.655 90.6724 165.655 91.2877V93.4413C165.655 94.0566 165.152 94.56 164.537 94.56Z" fill="#56335B"/>
<path d="M154.402 91.8483H150.693C150.609 91.8483 150.54 91.7796 150.54 91.6957V91.6248C150.54 91.5409 150.609 91.4722 150.693 91.4722H154.402C154.486 91.4722 154.555 91.5409 154.555 91.6248V91.6957C154.555 91.7796 154.486 91.8483 154.402 91.8483Z" fill="#96B4E0"/>
<path d="M156.094 92.7417H150.723C150.622 92.7417 150.54 92.6597 150.54 92.5593V92.5482C150.54 92.4478 150.622 92.3657 150.723 92.3657H156.094C156.194 92.3657 156.276 92.4478 156.276 92.5482V92.5593C156.276 92.6597 156.194 92.7417 156.094 92.7417Z" fill="#96B4E0"/>
<path d="M162.109 92.7418H157.374C157.28 92.7418 157.202 92.6646 157.202 92.5702V92.5373C157.202 92.443 157.28 92.3657 157.374 92.3657H162.109C162.203 92.3657 162.281 92.443 162.281 92.5373V92.5702C162.281 92.6647 162.203 92.7418 162.109 92.7418Z" fill="#96B4E0"/>
<path d="M159.3 91.8483H155.591C155.507 91.8483 155.438 91.7796 155.438 91.6957V91.6248C155.438 91.5409 155.507 91.4722 155.591 91.4722H159.3C159.384 91.4722 159.453 91.5409 159.453 91.6248V91.6957C159.453 91.7796 159.384 91.8483 159.3 91.8483Z" fill="#96B4E0"/>
<path d="M146.308 83.8701C146.308 84.6107 146.007 85.282 145.521 85.767C145.036 86.2499 144.369 86.5509 143.628 86.5509C142.887 86.5509 142.22 86.2499 141.734 85.767C141.249 85.282 140.948 84.6108 140.948 83.8701C140.948 82.3912 142.148 81.1895 143.628 81.1895C145.107 81.1895 146.308 82.3912 146.308 83.8701Z" fill="#56335B"/>
<path d="M143.629 84.045C144.174 84.0436 144.614 83.6011 144.613 83.0566C144.612 82.5121 144.169 82.0719 143.624 82.0732C143.08 82.0746 142.639 82.5171 142.64 83.0616C142.642 83.606 143.084 84.0463 143.629 84.045Z" fill="#CFD3A3"/>
<path d="M145.523 85.7662C145.038 86.2491 144.371 86.5502 143.63 86.5502C142.889 86.5502 142.222 86.2491 141.736 85.7662C141.964 84.9325 142.724 84.3198 143.63 84.3198C144.535 84.3198 145.296 84.9325 145.523 85.7662Z" fill="#CFD3A3"/>
<path d="M164.536 86.0669H150.349C149.734 86.0669 149.23 85.5635 149.23 84.948V82.7946C149.23 82.1792 149.734 81.6758 150.349 81.6758H164.536C165.151 81.6758 165.654 82.1792 165.654 82.7946V84.948C165.654 85.5635 165.151 86.0669 164.536 86.0669Z" fill="#56335B"/>
<path d="M154.401 83.3566H150.692C150.608 83.3566 150.539 83.2879 150.539 83.2039V83.133C150.539 83.0491 150.608 82.9805 150.692 82.9805H154.401C154.485 82.9805 154.554 83.0492 154.554 83.133V83.2039C154.554 83.2879 154.485 83.3566 154.401 83.3566Z" fill="#96B4E0"/>
<path d="M156.093 84.2434H150.722C150.621 84.2434 150.539 84.1614 150.539 84.0609V84.0496C150.539 83.9492 150.621 83.8672 150.722 83.8672H156.093C156.193 83.8672 156.276 83.9492 156.276 84.0496V84.0609C156.276 84.1613 156.193 84.2434 156.093 84.2434Z" fill="#96B4E0"/>
<path d="M162.108 84.2435H157.373C157.279 84.2435 157.201 84.1661 157.201 84.0717V84.0389C157.201 83.9445 157.279 83.8672 157.373 83.8672H162.108C162.202 83.8672 162.28 83.9445 162.28 84.0389V84.0717C162.28 84.1661 162.202 84.2435 162.108 84.2435Z" fill="#96B4E0"/>
<path d="M159.299 83.3566H155.59C155.506 83.3566 155.437 83.2879 155.437 83.2039V83.133C155.437 83.0491 155.506 82.9805 155.59 82.9805H159.299C159.383 82.9805 159.452 83.0492 159.452 83.133V83.2039C159.452 83.2879 159.383 83.3566 159.299 83.3566Z" fill="#96B4E0"/>
<path d="M146.616 67.9761C146.616 68.7166 146.314 69.3879 145.829 69.8729C145.344 70.3558 144.677 70.6568 143.936 70.6568C143.195 70.6568 142.527 70.3558 142.042 69.8729C141.557 69.3879 141.256 68.7167 141.256 67.9761C141.256 66.4971 142.456 65.2954 143.936 65.2954C145.415 65.2954 146.616 66.4971 146.616 67.9761Z" fill="#56335B"/>
<path d="M142.949 67.1587C142.949 66.6142 143.39 66.1729 143.935 66.1729C144.48 66.1729 144.921 66.6143 144.921 67.1587C144.921 67.7032 144.48 68.1445 143.935 68.1445C143.39 68.1445 142.949 67.7031 142.949 67.1587Z" fill="#CFD3A3"/>
<path d="M145.831 69.8722C145.345 70.3551 144.678 70.656 143.937 70.656C143.196 70.656 142.529 70.3551 142.044 69.8722C142.271 69.0385 143.032 68.4258 143.937 68.4258C144.843 68.4258 145.603 69.0386 145.831 69.8722Z" fill="#CFD3A3"/>
<path d="M164.843 70.1728H150.657C150.042 70.1728 149.538 69.6694 149.538 69.0541V66.9005C149.538 66.2852 150.042 65.7817 150.657 65.7817H164.843C165.459 65.7817 165.962 66.2852 165.962 66.9005V69.0541C165.962 69.6694 165.459 70.1728 164.843 70.1728Z" fill="#56335B"/>
<path d="M154.709 67.4626H150.999C150.915 67.4626 150.847 67.394 150.847 67.31V67.2391C150.847 67.1551 150.915 67.0864 150.999 67.0864H154.709C154.793 67.0864 154.861 67.1551 154.861 67.2391V67.31C154.861 67.3941 154.793 67.4626 154.709 67.4626Z" fill="#96B4E0"/>
<path d="M156.4 68.3488H151.029C150.929 68.3488 150.847 68.2667 150.847 68.1663V68.1551C150.847 68.0548 150.929 67.9727 151.029 67.9727H156.4C156.501 67.9727 156.583 68.0548 156.583 68.1551V68.1663C156.583 68.2667 156.501 68.3488 156.4 68.3488Z" fill="#96B4E0"/>
<path d="M162.415 68.3489H157.68C157.586 68.3489 157.509 68.2716 157.509 68.1772V68.1443C157.509 68.05 157.586 67.9727 157.68 67.9727H162.415C162.51 67.9727 162.587 68.05 162.587 68.1443V68.1772C162.587 68.2716 162.51 68.3489 162.415 68.3489Z" fill="#96B4E0"/>
<path d="M159.607 67.4626H155.897C155.813 67.4626 155.744 67.394 155.744 67.31V67.2391C155.744 67.1551 155.813 67.0864 155.897 67.0864H159.607C159.691 67.0864 159.759 67.1551 159.759 67.2391V67.31C159.759 67.3941 159.691 67.4626 159.607 67.4626Z" fill="#96B4E0"/>
<path d="M169.087 100.752C169.087 101.492 168.786 102.163 168.301 102.648C167.816 103.131 167.148 103.432 166.407 103.432C165.666 103.432 164.999 103.131 164.514 102.648C164.029 102.163 163.728 101.492 163.728 100.752C163.728 99.2726 164.928 98.0708 166.407 98.0708C167.887 98.0708 169.087 99.2725 169.087 100.752Z" fill="#56335B"/>
<path d="M167.399 99.9421C167.4 99.3976 166.96 98.9551 166.415 98.9537C165.87 98.9522 165.427 99.3925 165.426 99.937C165.424 100.481 165.865 100.924 166.41 100.925C166.954 100.927 167.397 100.487 167.399 99.9421Z" fill="#E28569"/>
<path d="M168.299 102.646C167.813 103.129 167.146 103.43 166.405 103.43C165.664 103.43 164.997 103.129 164.512 102.646C164.739 101.813 165.5 101.2 166.405 101.2C167.311 101.2 168.071 101.813 168.299 102.646Z" fill="#E28569"/>
<path d="M159.949 102.947H145.762C145.147 102.947 144.644 102.443 144.644 101.828V99.6745C144.644 99.0591 145.147 98.5557 145.762 98.5557H159.949C160.564 98.5557 161.068 99.0591 161.068 99.6745V101.828C161.068 102.443 160.564 102.947 159.949 102.947Z" fill="#CFD3A3"/>
<path d="M149.811 100.237H146.101C146.017 100.237 145.949 100.168 145.949 100.084V100.013C145.949 99.9295 146.018 99.8608 146.101 99.8608H149.811C149.895 99.8608 149.963 99.9296 149.963 100.013V100.084C149.963 100.168 149.895 100.237 149.811 100.237Z" fill="#96B4E0"/>
<path d="M151.503 101.123H146.131C146.031 101.123 145.949 101.041 145.949 100.941V100.93C145.949 100.829 146.031 100.747 146.131 100.747H151.503C151.603 100.747 151.685 100.829 151.685 100.93V100.941C151.685 101.041 151.603 101.123 151.503 101.123Z" fill="#96B4E0"/>
<path d="M157.517 101.123H152.782C152.688 101.123 152.611 101.046 152.611 100.952V100.919C152.611 100.824 152.688 100.747 152.782 100.747H157.517C157.612 100.747 157.689 100.824 157.689 100.919V100.952C157.689 101.046 157.612 101.123 157.517 101.123Z" fill="#96B4E0"/>
<path d="M154.708 100.237H150.999C150.915 100.237 150.846 100.168 150.846 100.084V100.013C150.846 99.9295 150.915 99.8608 150.999 99.8608H154.708C154.792 99.8608 154.861 99.9296 154.861 100.013V100.084C154.861 100.168 154.792 100.237 154.708 100.237Z" fill="#96B4E0"/>
<path d="M169.088 75.9791C169.088 76.7196 168.786 77.3909 168.301 77.876C167.816 78.3588 167.149 78.6598 166.408 78.6598C165.667 78.6598 164.999 78.3588 164.514 77.876C164.029 77.3909 163.728 76.7197 163.728 75.9791C163.728 74.5002 164.928 73.2983 166.408 73.2983C167.887 73.2983 169.088 74.5002 169.088 75.9791Z" fill="#56335B"/>
<path d="M165.42 75.168C165.42 74.6234 165.862 74.1821 166.407 74.1821C166.952 74.1821 167.393 74.6235 167.393 75.168C167.393 75.7125 166.952 76.1538 166.407 76.1538C165.862 76.1538 165.42 75.7125 165.42 75.168Z" fill="#E28569"/>
<path d="M168.299 77.8785C167.813 78.3613 167.146 78.6624 166.405 78.6624C165.664 78.6624 164.997 78.3613 164.512 77.8785C164.739 77.0448 165.5 76.4321 166.405 76.4321C167.311 76.4321 168.071 77.0448 168.299 77.8785Z" fill="#E28569"/>
<path d="M159.949 78.1733H145.762C145.147 78.1733 144.644 77.6699 144.644 77.0545V74.901C144.644 74.2857 145.147 73.7822 145.762 73.7822H159.949C160.564 73.7822 161.068 74.2857 161.068 74.901V77.0545C161.068 77.6699 160.564 78.1733 159.949 78.1733Z" fill="#CFD3A3"/>
<path d="M149.811 75.4645H146.101C146.017 75.4645 145.949 75.3958 145.949 75.3119V75.2409C145.949 75.1571 146.018 75.0884 146.101 75.0884H149.811C149.895 75.0884 149.963 75.1571 149.963 75.2409V75.3119C149.963 75.3958 149.895 75.4645 149.811 75.4645Z" fill="#96B4E0"/>
<path d="M151.503 76.3585H146.131C146.031 76.3585 145.949 76.2765 145.949 76.1761V76.1649C145.949 76.0645 146.031 75.9824 146.131 75.9824H151.503C151.603 75.9824 151.685 76.0645 151.685 76.1649V76.1761C151.685 76.2765 151.603 76.3585 151.503 76.3585Z" fill="#96B4E0"/>
<path d="M157.517 76.3586H152.782C152.688 76.3586 152.611 76.2813 152.611 76.1869V76.1541C152.611 76.0597 152.688 75.9824 152.782 75.9824H157.517C157.612 75.9824 157.689 76.0596 157.689 76.1541V76.1869C157.689 76.2814 157.612 76.3586 157.517 76.3586Z" fill="#96B4E0"/>
<path d="M154.708 75.4645H150.999C150.915 75.4645 150.846 75.3958 150.846 75.3119V75.2409C150.846 75.1571 150.915 75.0884 150.999 75.0884H154.708C154.792 75.0884 154.861 75.1571 154.861 75.2409V75.3119C154.861 75.3958 154.792 75.4645 154.708 75.4645Z" fill="#96B4E0"/>
<path d="M163.697 135.955L146.047 135.366L126.045 135.885L125.995 137.392L145.342 136.53C147.287 136.595 148.805 138.375 148.734 140.505C148.663 142.635 147.029 144.309 145.084 144.244L125.787 143.599L125.75 144.712L163.362 145.969C165.886 146.053 168.007 143.88 168.1 141.115C168.192 138.35 166.221 136.04 163.697 135.955Z" fill="url(#paint3_linear_5_264)"/>
<path d="M150.45 140.525C150.543 137.76 148.572 135.45 146.047 135.366L126.045 135.885L125.995 137.392L145.342 136.53C147.287 136.595 148.805 138.375 148.734 140.505C148.663 142.635 147.029 144.309 145.084 144.244L125.787 143.599L125.75 144.712L145.713 145.379C148.237 145.463 150.358 143.29 150.45 140.525Z" fill="url(#paint4_linear_5_264)"/>
<path d="M145.342 136.535L125.995 137.392C127.74 137.672 128.267 139.445 128.51 140.391C129.001 142.31 127.548 143.416 125.788 143.578L125.787 143.604L145.084 144.249C147.028 144.314 148.662 142.64 148.733 140.51C148.805 138.38 147.286 136.6 145.342 136.535Z" fill="#E6EDFF"/>
<path d="M128.581 141.276L128.577 141.381L144.152 141.901L144.156 141.796L128.581 141.276Z" fill="#2F1A31"/>
<g opacity="0.4">
<path d="M148.579 144.906C148.511 144.906 148.444 144.873 148.403 144.813C148.339 144.716 148.365 144.585 148.461 144.521C148.477 144.511 149.997 143.456 150.242 140.508C150.485 137.579 148.431 136.455 148.41 136.444C148.307 136.39 148.269 136.262 148.323 136.16C148.378 136.057 148.505 136.018 148.607 136.072C148.702 136.122 150.927 137.34 150.661 140.542C150.398 143.709 148.764 144.825 148.694 144.872C148.659 144.895 148.618 144.906 148.579 144.906Z" fill="#436E8E"/>
</g>
<path d="M140.475 140.147L128.51 140.336L128.512 140.442L140.477 140.253L140.475 140.147Z" fill="#2F1A31"/>
<g opacity="0.4">
<path d="M154.804 143.863C154.802 143.863 154.799 143.863 154.797 143.863L151.024 143.737C150.951 143.735 150.883 143.693 150.847 143.629C150.811 143.564 150.812 143.485 150.85 143.421C150.856 143.409 151.507 142.282 151.886 140.766C152.251 139.307 151.256 137.789 151.246 137.774C151.202 137.708 151.199 137.623 151.237 137.555C151.276 137.486 151.342 137.451 151.428 137.447L155.007 137.566C155.073 137.569 155.135 137.602 155.173 137.656C157.412 140.856 154.989 143.76 154.964 143.789C154.924 143.836 154.865 143.863 154.804 143.863ZM151.377 143.328L154.706 143.439C155.06 142.98 156.672 140.633 154.887 137.984L151.793 137.88C152.093 138.451 152.598 139.656 152.295 140.868C152.016 141.985 151.604 142.882 151.377 143.328Z" fill="#436E8E"/>
</g>
<path d="M126.193 144.812H143.852L163.826 145.999V147.506L144.518 145.999C142.573 145.999 140.996 147.727 140.996 149.858C140.996 151.989 142.573 153.717 144.518 153.717H163.826V154.83H126.193C123.668 154.83 121.62 152.587 121.62 149.821C121.62 147.054 123.668 144.812 126.193 144.812Z" fill="#424263"/>
<path d="M139.279 149.821C139.279 147.054 141.327 144.812 143.852 144.812L163.826 145.999V147.506L144.518 145.999C142.573 145.999 140.996 147.727 140.996 149.858C140.996 151.989 142.573 153.717 144.518 153.717H163.826V154.83H143.852C141.327 154.83 139.279 152.587 139.279 149.821Z" fill="#424263"/>
<path d="M144.52 146.003L163.827 147.506C162.073 147.727 161.487 149.482 161.214 150.42C160.659 152.321 162.073 153.474 163.827 153.695V153.721H144.52C142.574 153.721 140.997 151.994 140.997 149.862C140.997 147.731 142.574 146.003 144.52 146.003Z" fill="#E6EDFF"/>
<path d="M161.106 151.296H145.522V151.401H161.106V151.296Z" fill="#2F1A31"/>
<path d="M140.89 154.224C140.822 154.176 139.226 153.005 139.069 149.832C138.91 146.622 141.174 145.479 141.271 145.432L141.455 145.811L141.363 145.622L141.456 145.811C141.37 145.853 139.345 146.887 139.489 149.811C139.566 151.357 140.01 152.382 140.368 152.969C140.756 153.604 141.131 153.879 141.135 153.881L140.89 154.224Z" fill="#2F1A31"/>
<path d="M149.256 149.77L149.251 149.875L161.202 150.474L161.207 150.369L149.256 149.77Z" fill="#2F1A31"/>
<path d="M134.826 146.923H138.407C138.407 146.923 137.294 148.481 137.632 150.059C137.971 151.637 138.6 152.802 138.6 152.802H134.826C134.826 152.802 132.551 149.952 134.826 146.923Z" fill="#2F1A31"/>
<path d="M153.881 111.559C153.881 113.355 152.44 114.613 150.651 114.644C150.632 114.644 150.613 114.644 150.594 114.644C150.534 114.644 150.474 114.642 150.415 114.64C148.682 114.547 147.129 113.315 147.129 111.559C147.129 109.743 148.788 108.258 150.594 108.069C153.051 107.812 153.881 109.743 153.881 111.559Z" fill="#CFD3A3"/>
<path d="M148.405 110.06C148.405 110.06 149.197 109.471 149.847 109.634C150.497 109.796 152.285 111.665 152.509 112.173C152.732 112.681 152.448 113.516 152.143 113.505C151.838 113.494 150.985 112.844 151.066 112.58C151.147 112.316 151.574 112.255 151.513 112.051C151.452 111.848 149.969 110.446 149.847 110.507C149.725 110.568 149.542 111.076 149.075 110.893C148.608 110.711 148.227 110.177 148.405 110.06Z" fill="#E28569"/>
<path d="M162.593 111.559C162.593 113.356 161.152 114.614 159.363 114.644C159.344 114.644 159.325 114.645 159.306 114.645C159.246 114.645 159.186 114.643 159.127 114.64C157.394 114.547 155.886 113.368 156.018 111.357C156.137 109.545 158.001 108.046 159.817 108.046C161.633 108.046 162.593 109.744 162.593 111.559Z" fill="#E28569"/>
<path d="M156.731 112.184C156.731 112.184 156.905 111.212 157.491 110.886C158.076 110.559 160.659 110.699 161.169 110.916C161.68 111.134 162.044 111.938 161.814 112.138C161.584 112.338 160.517 112.448 160.395 112.2C160.274 111.952 160.543 111.615 160.36 111.509C160.176 111.402 158.136 111.395 158.089 111.523C158.041 111.651 158.256 112.146 157.79 112.332C157.324 112.519 156.681 112.391 156.731 112.184Z" fill="#CFD3A3"/>
</g>
<defs>
<linearGradient id="paint0_linear_5_264" x1="411" y1="-50" x2="-6.11692e-06" y2="200" gradientUnits="userSpaceOnUse">
<stop stop-color="#342083"/>
<stop offset="1"/>
</linearGradient>
<linearGradient id="paint1_linear_5_264" x1="192.281" y1="124.253" x2="192.281" y2="151.235" gradientUnits="userSpaceOnUse">
<stop stop-color="#4D169A"/>
<stop offset="1" stop-color="#1A0734"/>
</linearGradient>
<linearGradient id="paint2_linear_5_264" x1="252" y1="55.5" x2="136.5" y2="138.5" gradientUnits="userSpaceOnUse">
<stop stop-color="#59279E"/>
<stop offset="1" stop-color="#200E38"/>
</linearGradient>
<linearGradient id="paint3_linear_5_264" x1="146.926" y1="135.366" x2="146.926" y2="145.971" gradientUnits="userSpaceOnUse">
<stop stop-color="#371C5E"/>
<stop offset="1" stop-color="#AB6FFF"/>
</linearGradient>
<linearGradient id="paint4_linear_5_264" x1="138.102" y1="135.366" x2="138.102" y2="145.381" gradientUnits="userSpaceOnUse">
<stop stop-color="#371C5E"/>
<stop offset="1" stop-color="#AB6FFF"/>
</linearGradient>
<clipPath id="clip0_5_264">
<rect width="300" height="200" fill="white"/>
</clipPath>
</defs>
</svg>
