<svg width="487" height="496" viewBox="0 0 487 496" fill="none" xmlns="http://www.w3.org/2000/svg">
<path d="M33.5543 370.283C33.5543 373.715 36.3116 377.981 39.7131 379.81L212.242 472.628C215.642 474.458 221.157 474.458 224.557 472.628L460.623 345.627C464.023 343.797 466.781 339.531 466.781 336.1C466.781 332.666 464.025 328.401 460.623 326.571L288.094 233.753C284.694 231.923 279.18 231.923 275.78 233.753L39.7103 360.755C36.3102 362.584 33.5543 366.851 33.5543 370.283Z" fill="#37474F"/>
<path d="M104.735 325.772L39.7101 360.755C36.3101 362.585 33.5528 366.85 33.5528 370.282C33.5528 373.714 36.3101 377.981 39.7116 379.809L212.24 472.627C213.941 473.542 216.169 474 218.398 474V325.772H104.735Z" fill="#6B33B8"/>
<path d="M27.7777 360.959C24.5881 359.243 22.0014 354.884 22.0014 351.226L22 159.374C22 155.715 24.7573 151.266 28.1574 149.436L264.224 22.4347C267.624 20.6048 272.968 20.5134 276.159 22.2294C279.35 23.9453 281.936 28.3035 281.936 31.9621V223.814C281.936 227.473 279.179 231.922 275.779 233.752L39.7099 360.755C36.3098 362.583 30.9673 362.676 27.7777 360.959Z" fill="url(#paint0_linear_1_2)"/>
<path d="M50.8843 168.289L23.8047 153.719C22.6912 155.517 22.0015 157.545 22.0015 159.375L22.003 351.227C22.003 354.885 24.5882 359.244 27.7792 360.96C30.9688 362.676 36.3128 362.584 39.7129 360.754L66.6389 346.268L50.8843 168.289Z" fill="#F6954B"/>
<path d="M33.5528 165.591V357.443C33.5528 361.101 36.3101 362.585 39.7101 360.755L275.778 233.754C279.178 231.924 281.936 227.475 281.936 223.816V31.9644C281.936 28.3058 279.178 26.8218 275.778 28.6517L39.7101 155.653C36.3101 157.483 33.5528 161.932 33.5528 165.591Z" fill="#37474F"/>
<path d="M39.7102 367.381L212.24 460.199C215.64 462.029 221.155 462.029 224.555 460.199L460.622 333.196C464.024 331.366 464.024 328.401 460.622 326.571L288.094 233.753C284.694 231.923 279.179 231.923 275.779 233.753L39.7102 360.755C36.3101 362.584 36.3101 365.551 39.7102 367.381Z" fill="url(#paint1_linear_1_2)"/>
<path d="M43.0235 166.298L272.466 42.8615C274.507 41.7644 276.161 42.6535 276.161 44.8492V210.927C276.161 213.123 274.507 215.793 272.466 216.89L43.0235 340.324C40.9829 341.421 39.3291 340.532 39.3291 338.336V172.261C39.3291 170.065 40.9829 167.397 43.0235 166.298Z" fill="url(#paint2_linear_1_2)"/>
<path d="M59.7381 362.41L278.86 244.527C280.56 243.613 283.316 243.613 285.017 244.527L296.224 250.556C297.925 251.471 297.925 252.955 296.224 253.869L77.0697 371.734C75.369 372.648 72.6117 372.648 70.9124 371.734L59.7381 365.723C58.0373 364.809 58.0373 363.326 59.7381 362.41Z" fill="#893FC2"/>
<path d="M88.6221 377.949L307.741 260.064C309.442 259.15 312.198 259.15 313.898 260.064L382.834 297.152C384.535 298.066 384.535 299.55 382.834 300.465L163.965 418.188C162.265 419.102 159.506 419.106 157.802 418.197L88.6278 381.254C86.9242 380.343 86.9214 378.864 88.6221 377.949Z" fill="#893FC2"/>
<path d="M285.043 313.102L291.903 309.412C292.195 309.254 292.178 308.99 291.865 308.822L283.931 304.554C283.618 304.385 283.128 304.376 282.836 304.533L275.975 308.224C275.683 308.381 275.701 308.644 276.015 308.813L283.948 313.081C284.261 313.249 284.75 313.258 285.043 313.102ZM271.504 298.436L264.643 302.126C264.351 302.284 264.368 302.548 264.681 302.716L272.615 306.984C272.928 307.152 273.418 307.162 273.71 307.005L280.57 303.313C280.861 303.157 280.844 302.893 280.531 302.725L272.598 298.457C272.285 298.289 271.796 298.279 271.504 298.436ZM249.339 310.36L237.728 316.607C237.436 316.763 237.454 317.027 237.766 317.195L245.7 321.463C246.013 321.631 246.503 321.641 246.795 321.484L258.406 315.238C258.697 315.082 258.68 314.818 258.367 314.65L250.434 310.381C250.12 310.213 249.63 310.204 249.339 310.36ZM261.477 303.83L254.616 307.522C254.326 307.678 254.342 307.942 254.656 308.11L262.589 312.378C262.902 312.547 263.393 312.556 263.683 312.4L270.543 308.709C270.834 308.552 270.817 308.289 270.504 308.121L262.571 303.853C262.258 303.682 261.767 303.674 261.477 303.83ZM234.563 318.311L227.703 322.001C227.411 322.159 227.428 322.421 227.741 322.589L235.675 326.858C235.987 327.026 236.477 327.035 236.77 326.879L243.631 323.187C243.922 323.031 243.905 322.767 243.591 322.599L235.659 318.331C235.343 318.162 234.853 318.153 234.563 318.311ZM224.534 323.705L217.675 327.396C217.383 327.552 217.4 327.816 217.713 327.984L225.646 332.252C225.959 332.42 226.45 332.431 226.741 332.273L233.603 328.583C233.894 328.425 233.877 328.163 233.564 327.994L225.631 323.728C225.317 323.558 224.826 323.547 224.534 323.705ZM255.739 341.061L262.601 337.369C262.891 337.213 262.875 336.949 262.561 336.781L254.629 332.513C254.316 332.345 253.825 332.335 253.534 332.492L246.674 336.182C246.383 336.34 246.4 336.602 246.712 336.772L254.646 341.04C254.957 341.208 255.448 341.217 255.739 341.061ZM245.713 346.455L252.573 342.765C252.864 342.607 252.847 342.345 252.533 342.175L244.601 337.909C244.288 337.74 243.797 337.731 243.506 337.888L236.644 341.579C236.353 341.736 236.37 342.001 236.683 342.168L244.616 346.436C244.931 346.603 245.421 346.612 245.713 346.455ZM235.686 351.85L242.547 348.158C242.839 348.002 242.822 347.738 242.509 347.57L234.577 343.302C234.264 343.134 233.773 343.124 233.482 343.281L226.622 346.971C226.33 347.129 226.347 347.391 226.662 347.559L234.594 351.827C234.904 351.997 235.393 352.006 235.686 351.85ZM225.658 357.244L232.519 353.554C232.811 353.398 232.794 353.134 232.479 352.966L224.547 348.698C224.234 348.529 223.744 348.52 223.452 348.676L216.592 352.367C216.301 352.523 216.318 352.787 216.631 352.955L224.564 357.222C224.877 357.391 225.366 357.401 225.658 357.244ZM275.017 318.496L281.876 314.805C282.168 314.648 282.151 314.385 281.838 314.216L273.905 309.948C273.592 309.78 273.103 309.771 272.811 309.927L265.951 313.617C265.66 313.775 265.677 314.039 265.989 314.207L273.923 318.475C274.234 318.643 274.724 318.653 275.017 318.496ZM265.768 335.665L281.072 327.431C281.363 327.274 281.346 327.011 281.032 326.843L261.766 316.478C261.453 316.31 260.963 316.301 260.671 316.457L252.755 320.716C252.463 320.873 252.48 321.136 252.793 321.305L262.993 326.793C263.306 326.961 263.323 327.225 263.032 327.381L256.699 330.788C256.408 330.944 256.425 331.208 256.738 331.376L264.671 335.644C264.986 335.814 265.476 335.823 265.768 335.665ZM214.508 329.1L207.646 332.791C207.355 332.948 207.372 333.211 207.686 333.38L215.62 337.648C215.933 337.816 216.422 337.825 216.715 337.669L223.576 333.978C223.867 333.821 223.85 333.557 223.536 333.389L215.604 329.121C215.288 328.951 214.799 328.943 214.508 329.1ZM204.481 334.494L197.62 338.184C197.328 338.342 197.345 338.604 197.658 338.774L205.59 343.042C205.903 343.21 206.394 343.22 206.685 343.063L213.545 339.372C213.836 339.215 213.819 338.95 213.507 338.783L205.573 334.515C205.262 334.347 204.772 334.338 204.481 334.494ZM154.374 394.985C154.687 395.154 155.176 395.163 155.469 395.006L162.33 391.315C162.622 391.158 162.604 390.893 162.291 390.725L154.357 386.457C154.044 386.289 153.554 386.279 153.262 386.436L146.402 390.126C146.111 390.284 146.128 390.546 146.441 390.716L154.374 394.985ZM124.263 377.651L117.401 381.341C117.11 381.497 117.127 381.761 117.44 381.929L125.373 386.196C125.686 386.364 126.177 386.375 126.468 386.217L133.33 382.527C133.621 382.37 133.604 382.107 133.29 381.939L125.356 377.672C125.045 377.502 124.554 377.493 124.263 377.651ZM140.401 390.308C140.714 390.476 141.205 390.485 141.496 390.329L148.358 386.637C148.649 386.481 148.631 386.217 148.318 386.049L140.386 381.781C140.073 381.613 139.584 381.603 139.291 381.76L132.431 385.45C132.139 385.608 132.156 385.87 132.469 386.038L140.401 390.308ZM172.078 398.264L178.94 394.573C179.231 394.415 179.214 394.153 178.901 393.985L170.968 389.717C170.655 389.548 170.164 389.539 169.873 389.697L163.013 393.387C162.723 393.544 162.739 393.807 163.053 393.976L170.986 398.244C171.296 398.411 171.787 398.42 172.078 398.264ZM160.957 403.637C161.27 403.805 161.76 403.814 162.05 403.658L168.912 399.966C169.203 399.81 169.186 399.546 168.873 399.378L160.94 395.11C160.627 394.942 160.138 394.932 159.845 395.089L152.983 398.78C152.692 398.937 152.709 399.2 153.023 399.369L160.957 403.637ZM134.291 372.255L127.43 375.945C127.138 376.103 127.155 376.365 127.469 376.534L135.401 380.802C135.714 380.97 136.205 380.979 136.496 380.823L143.356 377.131C143.648 376.975 143.631 376.711 143.318 376.543L135.384 372.275C135.072 372.108 134.581 372.098 134.291 372.255ZM184.426 345.283L177.565 348.973C177.275 349.131 177.29 349.393 177.605 349.561L185.538 353.83C185.851 353.998 186.34 354.007 186.633 353.851L193.494 350.159C193.786 350.003 193.769 349.739 193.456 349.571L185.522 345.303C185.207 345.136 184.718 345.126 184.426 345.283ZM144.318 366.862L137.456 370.552C137.165 370.708 137.182 370.972 137.495 371.14L145.428 375.409C145.741 375.577 146.232 375.587 146.523 375.43L153.383 371.739C153.675 371.582 153.658 371.319 153.343 371.151L145.411 366.883C145.1 366.713 144.609 366.704 144.318 366.862ZM194.453 339.888L187.593 343.58C187.301 343.736 187.318 344 187.633 344.168L195.566 348.436C195.879 348.605 196.368 348.615 196.661 348.458L203.522 344.767C203.814 344.61 203.797 344.347 203.484 344.179L195.551 339.911C195.235 339.74 194.744 339.732 194.453 339.888ZM174.399 350.677L167.538 354.368C167.246 354.524 167.263 354.788 167.576 354.956L175.51 359.224C175.823 359.392 176.313 359.403 176.605 359.245L183.465 355.555C183.756 355.398 183.739 355.135 183.426 354.966L175.493 350.698C175.18 350.53 174.691 350.521 174.399 350.677ZM164.371 356.072L157.511 359.763C157.22 359.92 157.237 360.183 157.55 360.352L165.483 364.62C165.796 364.788 166.287 364.797 166.578 364.641L173.439 360.951C173.729 360.793 173.712 360.529 173.4 360.361L165.467 356.093C165.153 355.925 164.663 355.915 164.371 356.072ZM154.344 361.466L147.483 365.156C147.192 365.314 147.209 365.578 147.521 365.746L155.455 370.014C155.768 370.182 156.258 370.192 156.55 370.035L163.411 366.344C163.703 366.187 163.686 365.924 163.371 365.754L155.438 361.486C155.126 361.319 154.636 361.31 154.344 361.466ZM205.603 368.033L212.464 364.341C212.756 364.185 212.739 363.92 212.426 363.753L204.492 359.485C204.179 359.317 203.689 359.307 203.397 359.464L196.536 363.154C196.245 363.312 196.262 363.574 196.576 363.744L204.509 368.012C204.822 368.18 205.311 368.189 205.603 368.033ZM293.669 286.511L286.809 290.203C286.518 290.359 286.535 290.623 286.848 290.791L294.781 295.06C295.094 295.228 295.585 295.237 295.876 295.081L302.736 291.39C303.028 291.233 303.011 290.97 302.698 290.801L294.764 286.533C294.451 286.363 293.961 286.355 293.669 286.511ZM281.531 293.041L274.671 296.733C274.379 296.889 274.397 297.153 274.709 297.321L282.641 301.59C282.954 301.758 283.445 301.767 283.736 301.611L290.598 297.92C290.889 297.763 290.872 297.5 290.559 297.331L282.626 293.063C282.313 292.893 281.822 292.885 281.531 293.041ZM303.696 281.117L296.836 284.807C296.545 284.964 296.562 285.227 296.875 285.397L304.808 289.664C305.121 289.832 305.612 289.841 305.902 289.685L312.763 285.995C313.054 285.837 313.037 285.573 312.725 285.405L304.792 281.137C304.478 280.97 303.989 280.959 303.696 281.117ZM251.795 330.988L258.655 327.297C258.946 327.14 258.929 326.877 258.615 326.708L250.683 322.44C250.37 322.271 249.879 322.262 249.588 322.418L242.726 326.11C242.435 326.267 242.452 326.53 242.765 326.699L250.698 330.967C251.014 331.136 251.503 331.145 251.795 330.988ZM314.818 275.744C314.505 275.576 314.014 275.566 313.723 275.723L306.863 279.413C306.571 279.571 306.588 279.833 306.901 280.001L314.835 284.269C315.148 284.438 315.637 284.447 315.928 284.291L322.79 280.599C323.081 280.443 323.064 280.179 322.751 280.011L314.818 275.744ZM215.631 362.639L222.491 358.948C222.782 358.791 222.765 358.528 222.451 358.36L214.518 354.092C214.205 353.924 213.716 353.914 213.423 354.071L206.561 357.762C206.27 357.919 206.287 358.182 206.6 358.351L214.532 362.619C214.849 362.786 215.34 362.795 215.631 362.639ZM338.596 296.484L345.455 292.794C345.747 292.637 345.73 292.372 345.417 292.204L337.484 287.937C337.171 287.769 336.682 287.76 336.389 287.916L329.529 291.606C329.237 291.763 329.254 292.028 329.567 292.196L337.501 296.464C337.813 296.632 338.304 296.642 338.596 296.484ZM317.235 295.783L324.095 292.091C324.387 291.935 324.37 291.671 324.055 291.503L316.122 287.235C315.809 287.067 315.32 287.057 315.028 287.214L308.167 290.904C307.875 291.062 307.892 291.324 308.205 291.492L316.139 295.761C316.453 295.93 316.944 295.939 317.235 295.783ZM326.151 281.841C325.839 281.672 325.348 281.663 325.056 281.819L318.195 285.511C317.905 285.667 317.921 285.931 318.235 286.099L326.168 290.367C326.481 290.536 326.972 290.545 327.262 290.389L334.123 286.698C334.415 286.541 334.398 286.278 334.085 286.11L326.151 281.841ZM328.262 280.705L347.527 291.07C347.84 291.238 348.331 291.247 348.622 291.091L355.482 287.401C355.774 287.243 355.757 286.979 355.444 286.811L336.178 276.446C335.865 276.278 335.375 276.269 335.083 276.425L328.223 280.115C327.932 280.272 327.949 280.537 328.262 280.705ZM305.003 292.608L298.142 296.299C297.85 296.455 297.867 296.719 298.18 296.887L306.114 301.155C306.426 301.323 306.917 301.334 307.209 301.176L314.068 297.486C314.36 297.328 314.343 297.066 314.03 296.897L306.098 292.629C305.784 292.461 305.293 292.452 305.003 292.608ZM229.536 333.209L222.674 336.9C222.383 337.057 222.4 337.32 222.713 337.489L230.646 341.757C230.959 341.925 231.45 341.934 231.741 341.778L238.603 338.088C238.894 337.93 238.877 337.668 238.563 337.499L230.629 333.231C230.316 333.062 229.827 333.052 229.536 333.209ZM327.474 301.859C327.785 302.027 328.276 302.036 328.569 301.88L335.43 298.189C335.72 298.032 335.705 297.769 335.39 297.601L327.457 293.333C327.144 293.165 326.653 293.155 326.363 293.312L319.502 297.003C319.21 297.16 319.228 297.423 319.54 297.592L327.474 301.859ZM239.562 327.814L232.701 331.505C232.41 331.662 232.428 331.925 232.741 332.093L240.674 336.361C240.987 336.529 241.477 336.539 241.769 336.382L248.631 332.691C248.922 332.534 248.905 332.27 248.592 332.102L240.66 327.834C240.343 327.667 239.854 327.658 239.562 327.814ZM164.401 389.59C164.714 389.758 165.204 389.767 165.496 389.611L172.357 385.92C172.647 385.763 172.632 385.5 172.317 385.332L164.384 381.064C164.071 380.896 163.582 380.886 163.29 381.043L156.429 384.734C156.138 384.891 156.155 385.154 156.467 385.323L164.401 389.59ZM149.317 376.365L142.456 380.057C142.165 380.213 142.182 380.477 142.496 380.645L150.429 384.913C150.742 385.082 151.233 385.091 151.524 384.935L158.386 381.244C158.677 381.086 158.66 380.824 158.347 380.655L150.414 376.386C150.098 376.217 149.609 376.208 149.317 376.365ZM175.521 384.216L182.383 380.526C182.674 380.37 182.657 380.106 182.344 379.938L174.411 375.67C174.098 375.501 173.607 375.491 173.316 375.648L166.454 379.339C166.164 379.495 166.18 379.759 166.494 379.927L174.428 384.195C174.741 384.363 175.231 384.374 175.521 384.216ZM185.549 378.822L192.411 375.132C192.702 374.974 192.685 374.712 192.372 374.543L184.439 370.275C184.127 370.107 183.637 370.098 183.344 370.254L176.484 373.944C176.192 374.102 176.21 374.364 176.524 374.533L184.457 378.801C184.767 378.969 185.258 378.978 185.549 378.822ZM195.576 373.428L202.437 369.737C202.729 369.579 202.712 369.317 202.399 369.148L194.466 364.879C194.153 364.711 193.664 364.702 193.371 364.86L186.511 368.55C186.219 368.706 186.236 368.971 186.549 369.138L194.481 373.406C194.795 373.575 195.285 373.585 195.576 373.428ZM159.344 370.971L152.484 374.661C152.193 374.818 152.21 375.081 152.523 375.251L160.456 379.519C160.769 379.687 161.258 379.696 161.551 379.54L168.413 375.85C168.704 375.693 168.687 375.428 168.374 375.26L160.441 370.992C160.126 370.824 159.636 370.813 159.344 370.971ZM169.372 365.576L162.511 369.267C162.22 369.424 162.237 369.687 162.549 369.855L170.483 374.123C170.796 374.291 171.286 374.301 171.578 374.144L178.439 370.453C178.729 370.296 178.714 370.033 178.399 369.864L170.466 365.596C170.153 365.428 169.662 365.419 169.372 365.576ZM209.481 343.999L202.619 347.689C202.328 347.847 202.345 348.109 202.659 348.279L210.593 352.546C210.906 352.714 211.395 352.723 211.688 352.567L218.548 348.876C218.839 348.72 218.822 348.455 218.509 348.287L210.576 344.019C210.261 343.85 209.772 343.841 209.481 343.999ZM199.453 349.392L192.591 353.084C192.3 353.24 192.317 353.505 192.63 353.672L200.562 357.94C200.875 358.108 201.365 358.118 201.657 357.961L208.518 354.271C208.81 354.113 208.793 353.851 208.48 353.681L200.546 349.413C200.235 349.245 199.744 349.236 199.453 349.392ZM219.508 338.603L212.646 342.293C212.355 342.451 212.372 342.713 212.685 342.882L220.617 347.15C220.93 347.318 221.42 347.327 221.712 347.171L228.573 343.479C228.865 343.323 228.847 343.059 228.533 342.891L220.6 338.623C220.29 338.456 219.799 338.447 219.508 338.603ZM179.399 360.181L172.538 363.872C172.246 364.029 172.263 364.292 172.576 364.461L180.51 368.729C180.823 368.897 181.312 368.906 181.605 368.75L188.466 365.06C188.758 364.902 188.74 364.64 188.428 364.471L180.494 360.205C180.181 360.035 179.691 360.024 179.399 360.181ZM189.426 354.788L182.565 358.478C182.273 358.636 182.29 358.898 182.604 359.066L190.538 363.334C190.851 363.503 191.34 363.512 191.631 363.356L198.491 359.664C198.783 359.508 198.766 359.244 198.453 359.076L190.519 354.807C190.208 354.639 189.717 354.63 189.426 354.788ZM182.105 392.869L188.965 389.177C189.257 389.021 189.24 388.757 188.927 388.589L180.993 384.321C180.68 384.153 180.191 384.143 179.898 384.3L173.038 387.99C172.747 388.148 172.764 388.41 173.077 388.58L181.009 392.848C181.325 393.016 181.814 393.025 182.105 392.869ZM123.264 387.333L115.331 383.065C115.018 382.897 114.529 382.887 114.236 383.044L107.376 386.735C107.085 386.892 107.102 387.155 107.414 387.324L115.348 391.592C115.661 391.76 116.151 391.769 116.443 391.613L123.303 387.923C123.594 387.765 123.576 387.501 123.264 387.333ZM138.291 391.443L130.358 387.175C130.045 387.007 129.555 386.996 129.263 387.154L118.708 392.832C118.417 392.988 118.434 393.252 118.748 393.42L126.682 397.687C126.994 397.855 127.484 397.866 127.777 397.708L138.331 392.03C138.621 391.874 138.604 391.612 138.291 391.443ZM111.092 379.082L103.158 374.815C102.845 374.647 102.356 374.636 102.063 374.794L93.6193 379.336C93.3278 379.492 93.3449 379.757 93.6577 379.924L101.59 384.192C101.903 384.361 102.393 384.37 102.685 384.214L111.129 379.671C111.423 379.514 111.405 379.25 111.092 379.082ZM117.566 375.599C117.879 375.768 118.368 375.777 118.66 375.621L125.52 371.929C125.811 371.772 125.794 371.509 125.481 371.341L117.548 367.072C117.235 366.904 116.744 366.895 116.453 367.051L109.593 370.742C109.301 370.899 109.319 371.162 109.631 371.33L117.566 375.599ZM152.262 396.12L144.329 391.851C144.016 391.683 143.526 391.674 143.234 391.832L130.04 398.929C129.749 399.086 129.766 399.349 130.08 399.517L138.012 403.785C138.325 403.953 138.814 403.963 139.107 403.806L152.301 396.708C152.592 396.552 152.575 396.289 152.262 396.12ZM158.846 404.772L150.913 400.504C150.602 400.336 150.111 400.325 149.819 400.483L141.375 405.025C141.084 405.182 141.101 405.447 141.414 405.614L149.347 409.882C149.66 410.05 150.151 410.059 150.442 409.903L158.886 405.361C159.176 405.204 159.158 404.941 158.846 404.772ZM192.119 335.49C192.432 335.659 192.921 335.668 193.213 335.512L200.073 331.82C200.364 331.664 200.347 331.4 200.034 331.232L192.101 326.964C191.788 326.795 191.297 326.786 191.006 326.942L184.146 330.633C183.854 330.79 183.871 331.053 184.184 331.221L192.119 335.49ZM172.064 346.279C172.377 346.448 172.868 346.457 173.159 346.3L180.021 342.609C180.312 342.452 180.295 342.189 179.981 342.02L172.047 337.752C171.734 337.584 171.245 337.575 170.952 337.731L164.091 341.421C163.799 341.579 163.816 341.842 164.129 342.011L172.064 346.279ZM127.593 370.204C127.906 370.372 128.397 370.382 128.688 370.225L135.549 366.534C135.841 366.378 135.824 366.114 135.511 365.946L127.577 361.678C127.265 361.51 126.775 361.5 126.482 361.657L119.621 365.347C119.33 365.504 119.347 365.767 119.66 365.935L127.593 370.204ZM182.091 340.885C182.404 341.053 182.894 341.064 183.186 340.906L190.047 337.216C190.339 337.059 190.32 336.796 190.007 336.627L182.075 332.359C181.763 332.191 181.273 332.182 180.98 332.338L174.121 336.028C173.829 336.185 173.846 336.448 174.159 336.617L182.091 340.885ZM162.038 351.674C162.35 351.842 162.841 351.851 163.132 351.694L169.992 348.003C170.284 347.847 170.267 347.582 169.954 347.414L162.022 343.145C161.709 342.977 161.218 342.968 160.927 343.124L154.066 346.815C153.774 346.972 153.791 347.236 154.105 347.404L162.038 351.674ZM164.357 405.467C164.044 405.298 163.553 405.288 163.262 405.445L152.708 411.123C152.416 411.28 152.433 411.544 152.746 411.712L160.679 415.98C160.992 416.148 161.482 416.159 161.774 416.001L172.329 410.323C172.62 410.167 172.603 409.903 172.289 409.735L164.357 405.467ZM147.647 359.415C147.959 359.583 148.449 359.592 148.742 359.436L155.603 355.746C155.894 355.588 155.877 355.326 155.564 355.156L147.631 350.888C147.318 350.72 146.827 350.71 146.536 350.867L139.675 354.558C139.383 354.715 139.4 354.978 139.713 355.147L147.647 359.415ZM137.62 364.811C137.933 364.979 138.423 364.988 138.715 364.832L145.575 361.14C145.866 360.984 145.849 360.72 145.536 360.552L137.603 356.284C137.29 356.115 136.799 356.106 136.508 356.262L129.647 359.953C129.355 360.11 129.372 360.373 129.686 360.541L137.62 364.811ZM350.123 305.526C349.81 305.358 349.321 305.349 349.028 305.505L332.141 314.591C331.849 314.748 331.867 315.011 332.179 315.181L340.113 319.449C340.424 319.617 340.915 319.627 341.208 319.47L358.094 310.384C358.386 310.228 358.369 309.964 358.056 309.796L350.123 305.526ZM327.957 317.451C327.645 317.282 327.155 317.273 326.862 317.43L320.001 321.12C319.71 321.278 319.727 321.54 320.039 321.71L327.972 325.978C328.284 326.146 328.775 326.155 329.067 325.998L335.926 322.307C336.218 322.151 336.201 321.887 335.887 321.719L327.957 317.451ZM192.133 387.475L198.995 383.784C199.286 383.627 199.269 383.363 198.955 383.195L191.021 378.927C190.709 378.758 190.219 378.749 189.926 378.905L183.067 382.597C182.775 382.753 182.792 383.017 183.105 383.185L191.038 387.454C191.351 387.622 191.842 387.631 192.133 387.475ZM307.904 328.24C307.591 328.071 307.1 328.062 306.809 328.218L299.948 331.909C299.656 332.066 299.673 332.33 299.987 332.498L307.92 336.766C308.232 336.935 308.723 336.944 309.014 336.788L315.876 333.096C316.167 332.94 316.15 332.676 315.837 332.508L307.904 328.24ZM360.151 300.131C359.838 299.962 359.347 299.953 359.056 300.109L352.194 303.801C351.904 303.957 351.92 304.221 352.234 304.389L360.168 308.658C360.481 308.826 360.971 308.835 361.263 308.679L368.124 304.988C368.416 304.831 368.399 304.568 368.086 304.4L360.151 300.131ZM378.111 299.006L358.844 288.64C358.531 288.471 358.042 288.462 357.749 288.618L350.888 292.31C350.596 292.466 350.613 292.73 350.926 292.898L370.192 303.264C370.505 303.433 370.994 303.442 371.287 303.286L378.148 299.594C378.441 299.438 378.424 299.173 378.111 299.006ZM270.433 348.398C270.12 348.23 269.63 348.221 269.34 348.377L260.896 352.919C260.604 353.076 260.621 353.341 260.934 353.509L268.868 357.776C269.181 357.944 269.671 357.953 269.963 357.797L278.407 353.254C278.698 353.098 278.681 352.833 278.368 352.666L270.433 348.398ZM295.765 334.77C295.453 334.601 294.962 334.592 294.67 334.748L284.115 340.428C283.823 340.584 283.84 340.848 284.153 341.016L292.087 345.284C292.399 345.452 292.89 345.462 293.182 345.305L303.736 339.627C304.027 339.471 304.01 339.207 303.696 339.039L295.765 334.77ZM247.213 360.89C246.9 360.721 246.41 360.712 246.118 360.868L189.649 391.249C189.358 391.405 189.375 391.669 189.688 391.837L197.621 396.105C197.934 396.273 198.423 396.284 198.716 396.126L255.185 365.747C255.476 365.59 255.459 365.326 255.146 365.158L247.213 360.89ZM187.577 392.974C187.264 392.806 186.774 392.796 186.482 392.953L178.038 397.495C177.747 397.651 177.764 397.915 178.078 398.085L186.012 402.353C186.324 402.521 186.815 402.53 187.107 402.373L195.551 397.83C195.841 397.674 195.825 397.41 195.511 397.242L187.577 392.974ZM258.822 354.644C258.51 354.476 258.019 354.467 257.727 354.623L249.283 359.166C248.992 359.323 249.009 359.586 249.322 359.754L257.255 364.022C257.568 364.192 258.059 364.201 258.35 364.043L266.794 359.5C267.086 359.343 267.069 359.08 266.755 358.911L258.822 354.644ZM175.966 399.219C175.653 399.051 175.164 399.041 174.871 399.198L166.427 403.74C166.136 403.898 166.154 404.16 166.467 404.328L174.399 408.597C174.712 408.765 175.201 408.774 175.494 408.618L183.938 404.075C184.23 403.918 184.213 403.655 183.9 403.486L175.966 399.219ZM282.044 342.152C281.731 341.983 281.242 341.973 280.949 342.13L272.505 346.673C272.215 346.829 272.232 347.093 272.545 347.261L280.479 351.529C280.791 351.698 281.282 351.707 281.572 351.55L290.016 347.008C290.308 346.852 290.291 346.588 289.976 346.42L282.044 342.152ZM317.931 322.845C317.618 322.677 317.127 322.668 316.836 322.824L309.976 326.516C309.684 326.672 309.701 326.936 310.016 327.104L317.949 331.372C318.262 331.54 318.751 331.55 319.044 331.393L325.904 327.703C326.195 327.545 326.178 327.283 325.866 327.113L317.931 322.845ZM339.901 307.976L346.761 304.286C347.052 304.128 347.035 303.865 346.722 303.696L338.789 299.43C338.476 299.261 337.987 299.252 337.694 299.408L330.833 303.099C330.543 303.255 330.558 303.519 330.873 303.688L338.806 307.957C339.12 308.124 339.611 308.133 339.901 307.976ZM295.07 307.707L301.93 304.017C302.221 303.861 302.204 303.597 301.892 303.429L293.958 299.161C293.645 298.992 293.155 298.982 292.863 299.139L286.003 302.83C285.712 302.988 285.729 303.25 286.043 303.418L293.975 307.686C294.288 307.855 294.779 307.864 295.07 307.707ZM272.35 344.318L292.405 333.529C292.697 333.373 292.68 333.109 292.365 332.941L284.433 328.673C284.12 328.505 283.63 328.495 283.338 328.652L263.283 339.44C262.992 339.597 263.009 339.861 263.322 340.029L271.255 344.296C271.57 344.465 272.059 344.476 272.35 344.318ZM328.781 313.35C329.094 313.518 329.584 313.527 329.874 313.371L336.736 309.681C337.027 309.523 337.01 309.26 336.697 309.091L328.764 304.823C328.451 304.654 327.962 304.645 327.67 304.802L320.809 308.493C320.517 308.65 320.536 308.913 320.847 309.082L328.781 313.35ZM318.541 307.274L325.402 303.582C325.692 303.426 325.676 303.162 325.362 302.994L317.429 298.726C317.116 298.558 316.625 298.548 316.334 298.705L309.474 302.395C309.182 302.553 309.199 302.815 309.512 302.984L317.446 307.252C317.76 307.421 318.251 307.431 318.541 307.274ZM262.322 349.713L269.183 346.021C269.475 345.864 269.458 345.601 269.145 345.433L261.211 341.164C260.899 340.996 260.408 340.987 260.117 341.143L253.255 344.835C252.964 344.991 252.981 345.255 253.295 345.423L261.227 349.691C261.541 349.86 262.031 349.87 262.322 349.713ZM306.614 325.275C306.927 325.444 307.418 325.453 307.709 325.297L314.569 321.605C314.86 321.449 314.843 321.185 314.531 321.017L306.597 316.748C306.284 316.58 305.795 316.571 305.502 316.727L298.641 320.418C298.349 320.575 298.366 320.838 298.679 321.006L306.614 325.275ZM212.187 376.686L219.047 372.994C219.338 372.838 219.321 372.574 219.008 372.406L211.075 368.138C210.762 367.97 210.273 367.96 209.98 368.117L203.12 371.808C202.829 371.965 202.846 372.228 203.158 372.397L211.092 376.665C211.406 376.833 211.895 376.842 212.187 376.686ZM222.214 371.29L229.075 367.6C229.366 367.442 229.349 367.18 229.035 367.011L221.102 362.743C220.789 362.575 220.3 362.566 220.008 362.724L213.147 366.414C212.855 366.57 212.872 366.834 213.185 367.002L221.119 371.27C221.433 371.439 221.924 371.448 222.214 371.29ZM202.16 382.079L209.021 378.389C209.313 378.232 209.296 377.969 208.983 377.8L201.05 373.534C200.737 373.365 200.246 373.355 199.955 373.512L193.095 377.203C192.803 377.359 192.82 377.623 193.133 377.791L201.067 382.059C201.379 382.227 201.869 382.237 202.16 382.079ZM242.269 360.501L249.128 356.811C249.42 356.653 249.403 356.39 249.09 356.221L241.157 351.953C240.844 351.785 240.353 351.776 240.062 351.932L233.2 355.624C232.909 355.78 232.926 356.044 233.239 356.212L241.171 360.48C241.486 360.65 241.977 360.659 242.269 360.501ZM232.242 365.896L239.102 362.205C239.393 362.049 239.376 361.785 239.063 361.617L231.13 357.349C230.817 357.181 230.326 357.171 230.035 357.328L223.174 361.018C222.882 361.176 222.899 361.44 223.213 361.608L231.147 365.876C231.46 366.044 231.95 366.053 232.242 365.896ZM252.295 355.107L259.157 351.417C259.448 351.26 259.431 350.997 259.118 350.828L251.185 346.56C250.872 346.392 250.381 346.381 250.09 346.539L243.228 350.229C242.937 350.386 242.954 350.649 243.268 350.818L251.202 355.086C251.515 355.255 252.004 355.265 252.295 355.107ZM298.17 275.304C298.483 275.472 298.974 275.481 299.265 275.325L306.126 271.633C306.418 271.477 306.401 271.213 306.088 271.045L303.976 269.908C303.663 269.74 303.173 269.731 302.881 269.887L296.021 273.579C295.731 273.735 295.747 273.999 296.061 274.167L298.17 275.304ZM248.834 304.978C249.147 305.146 249.636 305.157 249.929 304.999L256.79 301.309C257.082 301.152 257.065 300.889 256.752 300.72L248.818 296.454C248.506 296.284 248.015 296.275 247.723 296.432L240.862 300.124C240.571 300.28 240.588 300.544 240.901 300.712L248.834 304.978ZM268.889 294.189C269.202 294.357 269.692 294.367 269.983 294.21L276.844 290.52C277.135 290.362 277.118 290.1 276.805 289.93L268.872 285.662C268.559 285.494 268.069 285.485 267.777 285.641L260.916 289.333C260.626 289.489 260.641 289.754 260.956 289.921L268.889 294.189ZM236.59 311.565C236.903 311.733 237.392 311.742 237.685 311.586L244.547 307.896C244.838 307.739 244.821 307.476 244.507 307.307L236.575 303.039C236.262 302.871 235.771 302.862 235.48 303.019L228.618 306.71C228.327 306.866 228.344 307.13 228.657 307.299L236.59 311.565ZM258.861 299.583C259.174 299.752 259.664 299.761 259.956 299.605L266.816 295.913C267.106 295.757 267.09 295.493 266.776 295.325L258.842 291.056C258.529 290.888 258.039 290.879 257.749 291.035L250.889 294.726C250.597 294.883 250.614 295.146 250.927 295.314L258.861 299.583ZM216.535 322.355C216.848 322.523 217.338 322.532 217.63 322.375L224.49 318.684C224.782 318.528 224.765 318.264 224.452 318.095L216.518 313.828C216.206 313.66 215.715 313.65 215.423 313.807L208.562 317.497C208.271 317.655 208.289 317.917 208.602 318.087L216.535 322.355ZM226.562 316.96C226.875 317.129 227.366 317.138 227.657 316.982L234.519 313.29C234.81 313.134 234.793 312.87 234.479 312.702L226.547 308.434C226.234 308.265 225.743 308.256 225.452 308.412L218.592 312.103C218.3 312.26 218.317 312.523 218.63 312.692L226.562 316.96ZM278.115 286.093C278.428 286.261 278.919 286.27 279.21 286.114L286.071 282.422C286.363 282.266 286.346 282.002 286.033 281.834L283.921 280.698C283.608 280.53 283.118 280.521 282.828 280.677L275.966 284.369C275.675 284.525 275.692 284.789 276.005 284.957L278.115 286.093ZM308.197 269.909C308.51 270.078 309 270.087 309.292 269.931L316.153 266.24C316.445 266.083 316.428 265.82 316.113 265.652L314.002 264.515C313.689 264.347 313.2 264.338 312.907 264.495L306.045 268.186C305.754 268.342 305.771 268.607 306.085 268.775L308.197 269.909ZM324.862 278.875C325.174 279.043 325.665 279.053 325.957 278.896L332.816 275.206C333.108 275.048 333.091 274.786 332.778 274.618L324.845 270.349C324.532 270.181 324.041 270.172 323.75 270.328L316.888 274.02C316.597 274.176 316.614 274.44 316.927 274.608L324.862 278.875ZM349.929 302.582L356.79 298.89C357.082 298.734 357.065 298.47 356.752 298.302L348.819 294.034C348.506 293.866 348.015 293.856 347.724 294.013L340.864 297.703C340.572 297.861 340.589 298.123 340.904 298.291L348.836 302.559C349.147 302.729 349.636 302.738 349.929 302.582ZM288.143 280.698C288.456 280.867 288.945 280.877 289.238 280.719L296.1 277.029C296.391 276.873 296.374 276.609 296.061 276.441L293.949 275.305C293.637 275.137 293.146 275.126 292.854 275.284L285.993 278.974C285.703 279.132 285.719 279.394 286.033 279.563L288.143 280.698ZM206.509 327.749C206.822 327.918 207.312 327.927 207.604 327.77L214.465 324.08C214.757 323.922 214.739 323.66 214.427 323.492L206.493 319.224C206.18 319.055 205.69 319.046 205.398 319.203L198.537 322.894C198.247 323.051 198.262 323.314 198.577 323.483L206.509 327.749Z" fill="#6B33B8"/>
<path d="M247.281 385.82L322.373 345.422L368.584 370.283L293.491 410.681L247.281 385.82Z" fill="#893FC2"/>
<path d="M85.2092 174.377L296.715 64.1781C300.851 62.0225 304.236 63.7863 304.236 68.0962V215.933C304.236 217.935 302.664 220.391 300.743 221.392L83.8623 334.389C81.9415 335.39 80.3701 334.571 80.3701 332.57V181.941C80.3701 179.167 82.5477 175.763 85.2092 174.377Z" fill="#F5F5F5"/>
<path d="M304.235 71.6371V68.0962C304.235 63.7863 300.85 62.0225 296.714 64.1781L85.2081 174.377C82.5467 175.763 80.3692 179.167 80.3692 181.94V188.276L304.235 71.6371Z" fill="url(#paint3_linear_1_2)"/>
<path d="M272.696 79.7093C271.266 80.4541 270.106 82.2676 270.106 83.7572C270.106 85.248 271.266 85.8521 272.696 85.1061C274.127 84.3613 275.287 82.549 275.287 81.0582C275.287 79.5674 274.127 78.9633 272.696 79.7093Z" fill="white"/>
<path d="M282.975 74.3536C281.545 75.0984 280.385 76.9119 280.385 78.4015C280.385 79.8923 281.545 80.4964 282.975 79.7516C284.405 79.0056 285.565 77.1933 285.565 75.7025C285.565 74.2129 284.405 73.6088 282.975 74.3536Z" fill="white"/>
<path d="M293.254 68.9976C291.824 69.7436 290.664 71.5559 290.664 73.0467C290.664 74.5376 291.824 75.1417 293.254 74.3957C294.685 73.6508 295.845 71.8373 295.845 70.3465C295.843 68.8569 294.685 68.2528 293.254 68.9976Z" fill="white"/>
<path d="M125.516 269.071L117.815 265.059L98.9516 294.543L106.652 298.556L125.516 269.071Z" fill="#37474F"/>
<path d="M125.521 269.072L121.671 267.066L102.807 296.551L106.658 298.557L125.521 269.072Z" fill="#263238"/>
<path d="M78.2777 352.13C74.7643 357.628 58.1699 348.89 61.6393 343.46L104.977 282.468C105.22 282.125 105.719 282.016 106.109 282.22L114.812 286.754C115.202 286.957 115.347 287.401 115.14 287.762L78.2777 352.13Z" fill="url(#paint4_linear_1_2)"/>
<path opacity="0.1" d="M78.2776 352.13L115.138 287.764C115.346 287.403 115.201 286.959 114.811 286.756L110.849 284.691L68.5665 352.48C72.4371 354.188 76.6914 354.614 78.2776 352.13Z" fill="black"/>
<path d="M205.656 208.529C205.644 208.064 205.618 207.61 205.581 207.155C205.555 206.701 205.518 206.259 205.467 205.816C205.442 205.521 205.405 205.226 205.367 204.93C205.279 204.159 205.153 203.398 205.015 202.671C204.952 202.342 204.889 202.002 204.813 201.672C204.75 201.355 204.675 201.048 204.599 200.742C204.386 199.901 204.159 199.084 203.895 198.301C203.757 197.926 203.631 197.552 203.493 197.188C203.467 197.132 203.442 197.075 203.43 197.018C203.279 196.655 203.14 196.303 202.989 195.962C202.813 195.565 202.637 195.168 202.436 194.793C202.297 194.509 202.159 194.237 201.996 193.964C201.908 193.76 201.794 193.567 201.669 193.374C201.543 193.136 201.404 192.897 201.253 192.67C201.216 192.613 201.191 192.557 201.153 192.511C201.027 192.307 200.889 192.103 200.75 191.898C200.662 191.762 200.562 191.637 200.474 191.512C199.807 190.57 199.09 189.707 198.31 188.913C198.172 188.776 198.033 188.64 197.907 188.504C197.794 188.39 197.681 188.288 197.568 188.186C197.429 188.05 197.278 187.925 197.127 187.789C196.7 187.403 196.272 187.051 195.819 186.733C195.605 186.563 195.379 186.404 195.153 186.256C194.926 186.097 194.7 185.95 194.461 185.802C194.096 185.564 193.719 185.337 193.341 185.144C193.241 185.087 193.14 185.03 193.039 184.974L192.976 184.928C192.964 184.928 192.964 184.928 192.964 184.928L175.139 175.642C175.127 175.642 175.127 175.642 175.114 175.642L175.013 175.585C171.743 173.905 167.969 173.031 163.818 173.031C157.981 173.031 151.39 174.757 144.408 178.389C120.433 190.888 100.985 221.277 100.985 246.275C100.985 258.739 105.816 267.503 113.627 271.613L113.703 271.647C113.703 271.647 113.703 271.647 113.703 271.658L131.54 280.933C131.54 280.944 131.54 280.944 131.552 280.944L131.628 280.989V280.978C131.703 281.012 131.766 281.046 131.842 281.08C132.181 281.262 132.521 281.421 132.873 281.568C133.301 281.761 133.741 281.932 134.182 282.091C134.571 282.238 134.974 282.374 135.377 282.488C135.59 282.556 135.804 282.613 136.018 282.658C136.245 282.738 136.471 282.794 136.71 282.84C136.949 282.908 137.175 282.953 137.414 282.999C137.59 283.044 137.754 283.078 137.93 283.101C138.232 283.158 138.559 283.214 138.874 283.248C138.949 283.271 139.012 283.282 139.087 283.282C139.465 283.339 139.842 283.385 140.22 283.419C146.685 284.032 154.207 282.386 162.258 278.197C186.247 265.698 205.694 235.297 205.694 210.311C205.694 209.71 205.681 209.119 205.656 208.529ZM176.562 190.854C177.707 194.373 177.933 198.006 177.933 200.39C177.933 222.435 160.058 250.373 138.9 261.396C135.466 263.178 132.12 264.438 129 265.108C127.868 261.589 127.629 257.956 127.629 255.561C127.629 233.515 145.504 205.578 166.662 194.555C170.095 192.772 173.441 191.524 176.562 190.854Z" fill="url(#paint5_linear_1_2)"/>
<path opacity="0.1" d="M130.938 280.624L113.626 271.607C105.815 267.486 100.984 258.722 100.984 246.28C100.984 235.132 104.859 222.918 111.261 211.702L129.096 220.983C122.681 232.199 118.819 244.414 118.819 255.562C118.819 267.754 123.415 276.401 130.938 280.624Z" fill="black"/>
<path opacity="0.4" d="M205.657 208.529C205.644 208.064 205.619 207.61 205.581 207.156C205.556 206.702 205.518 206.259 205.468 205.816C205.443 205.521 205.405 205.226 205.367 204.931C205.279 204.159 205.153 203.398 205.015 202.672C204.952 202.342 204.889 202.002 204.814 201.673C204.751 201.355 204.675 201.048 204.6 200.742C204.386 199.902 204.16 199.084 203.896 198.301C203.757 197.926 203.631 197.552 203.493 197.189C203.468 197.132 203.443 197.075 203.43 197.018C203.279 196.655 203.141 196.303 202.99 195.963C202.814 195.565 202.638 195.168 202.436 194.793C202.298 194.51 202.16 194.237 201.996 193.965C201.908 193.76 201.795 193.567 201.669 193.374C201.543 193.136 201.405 192.898 201.254 192.67C201.216 192.614 201.191 192.557 201.153 192.512C201.027 192.307 200.889 192.103 200.751 191.899C200.663 191.762 200.562 191.637 200.474 191.513C199.807 190.57 199.09 189.708 198.31 188.913C198.172 188.777 198.034 188.641 197.908 188.504C197.795 188.391 197.681 188.289 197.568 188.186C197.43 188.05 197.279 187.925 197.128 187.789C196.7 187.403 196.273 187.051 195.82 186.733C195.606 186.563 195.379 186.404 195.153 186.257C194.927 186.098 194.7 185.95 194.461 185.802C194.096 185.564 193.719 185.337 193.342 185.144C185.454 180.819 174.435 181.33 162.259 187.676C138.27 200.174 118.823 230.564 118.823 255.561C118.823 268.218 123.804 277.062 131.842 281.08C132.182 281.262 132.521 281.421 132.874 281.568C133.301 281.761 133.742 281.932 134.182 282.091C134.572 282.238 134.974 282.375 135.377 282.488C135.591 282.556 135.805 282.613 136.018 282.658C136.245 282.738 136.471 282.795 136.71 282.84C136.949 282.908 137.176 282.953 137.415 282.999C137.591 283.044 137.754 283.078 137.93 283.101C138.232 283.158 138.559 283.215 138.874 283.249C138.949 283.271 139.012 283.283 139.088 283.283C139.465 283.339 139.842 283.385 140.22 283.419C146.686 284.032 154.208 282.386 162.259 278.197C186.247 265.698 205.694 235.297 205.694 210.312C205.694 209.71 205.682 209.12 205.657 208.529ZM157.856 271.318C152.472 274.122 147.289 275.597 142.862 275.597C134.547 275.597 130.723 270.478 128.999 265.108C127.867 261.589 127.628 257.956 127.628 255.561C127.628 233.515 145.503 205.578 166.661 194.555C170.095 192.773 173.441 191.524 176.561 190.854C178.347 190.468 180.045 190.275 181.656 190.275C195.405 190.275 196.876 204.284 196.876 210.312C196.876 232.357 179.014 260.295 157.856 271.318Z" fill="white"/>
<path opacity="0.1" d="M196.876 210.312C196.876 232.358 179.014 260.295 157.856 271.318C152.472 274.122 147.289 275.598 142.861 275.598C134.547 275.598 130.723 270.478 128.999 265.108C132.119 264.438 135.465 263.178 138.899 261.396C160.057 250.373 177.932 222.436 177.932 200.39C177.932 198.006 177.706 194.373 176.561 190.854C178.347 190.468 180.045 190.275 181.655 190.275C195.404 190.275 196.876 204.284 196.876 210.312Z" fill="black"/>
<path opacity="0.7" d="M189.279 206.463C189.279 228.509 171.416 256.446 150.258 267.469C144.874 270.273 139.692 271.749 135.264 271.749C134.333 271.749 133.452 271.681 132.635 271.556C130.899 269.717 129.754 267.447 128.999 265.108C127.867 261.589 127.628 257.956 127.628 255.561C127.628 233.515 145.503 205.578 166.661 194.555C170.095 192.773 173.441 191.524 176.561 190.854C178.347 190.468 180.045 190.275 181.656 190.275C182.599 190.275 183.467 190.344 184.297 190.468C188.637 195.089 189.279 202.502 189.279 206.463Z" fill="white"/>
<path d="M223 170.695V193.352C223 195.047 224.319 195.735 225.946 194.887L390.48 109.16C392.107 108.313 393.426 106.251 393.426 104.555L393.425 81.8979C393.425 80.2023 392.106 79.5156 390.479 80.3629L225.946 166.091C224.32 166.938 223 169 223 170.695Z" fill="white"/>
<path d="M225.947 166.091L255.248 150.824L255.245 179.624L225.947 194.888C224.32 195.736 223.001 195.049 223.001 193.353V170.697C223 169 224.32 166.938 225.947 166.091Z" fill="url(#paint6_linear_1_2)"/>
<path d="M245.555 163.396C243.701 162.431 241.363 162.586 238.969 163.833C234.617 166.1 231.209 171.429 231.209 175.963C231.209 177.775 231.754 179.271 232.761 180.327L229.643 185.199C229.173 185.933 229.451 186.872 230.265 187.296C230.533 187.436 230.826 187.503 231.115 187.503C231.702 187.503 232.274 187.228 232.589 186.734L235.707 181.861C236.041 181.918 236.38 181.956 236.73 181.956C237.974 181.956 239.313 181.6 240.67 180.893C245.021 178.627 248.43 173.299 248.43 168.765C248.43 166.269 247.409 164.362 245.555 163.396ZM238.969 178.234C237.692 178.899 236.529 179.059 235.784 178.67C235.038 178.282 234.611 177.294 234.611 175.963C234.611 172.541 237.385 168.203 240.67 166.492C241.489 166.065 242.259 165.847 242.903 165.847C243.265 165.847 243.586 165.916 243.854 166.056C244.601 166.445 245.028 167.431 245.028 168.764C245.028 172.186 242.255 176.523 238.969 178.234Z" fill="white"/>
<defs>
<linearGradient id="paint0_linear_1_2" x1="151.968" y1="21" x2="151.968" y2="362.189" gradientUnits="userSpaceOnUse">
<stop stop-color="#F6954B"/>
<stop offset="1" stop-color="#DD1C8A"/>
</linearGradient>
<linearGradient id="paint1_linear_1_2" x1="250.167" y1="232.38" x2="250.167" y2="461.571" gradientUnits="userSpaceOnUse">
<stop stop-color="#893FC2"/>
<stop offset="1" stop-color="#5E3081"/>
</linearGradient>
<linearGradient id="paint2_linear_1_2" x1="157.745" y1="42.3916" x2="157.745" y2="340.794" gradientUnits="userSpaceOnUse">
<stop stop-color="#F6954B"/>
<stop offset="1" stop-color="#DD1C8A"/>
</linearGradient>
<linearGradient id="paint3_linear_1_2" x1="192.302" y1="63.2581" x2="192.302" y2="188.276" gradientUnits="userSpaceOnUse">
<stop stop-color="#F6954B"/>
<stop offset="1" stop-color="#DD1C8A"/>
</linearGradient>
<linearGradient id="paint4_linear_1_2" x1="88.1997" y1="282.117" x2="88.1997" y2="353.879" gradientUnits="userSpaceOnUse">
<stop stop-color="#F6954B"/>
<stop offset="1" stop-color="#DD1C8A"/>
</linearGradient>
<linearGradient id="paint5_linear_1_2" x1="153.34" y1="173.031" x2="153.34" y2="283.543" gradientUnits="userSpaceOnUse">
<stop stop-color="#F6954B"/>
<stop offset="1" stop-color="#DD1C8A"/>
</linearGradient>
<linearGradient id="paint6_linear_1_2" x1="239.125" y1="150.824" x2="239.125" y2="195.251" gradientUnits="userSpaceOnUse">
<stop stop-color="#F6954B"/>
<stop offset="1" stop-color="#DD1C8A"/>
</linearGradient>
</defs>
</svg>
