<svg width="400" height="400" viewBox="0 0 400 400" fill="none" xmlns="http://www.w3.org/2000/svg">
<path d="M114.956 309.706L121.584 305.919C121.584 305.919 124.763 288.4 122.386 273.34C119.043 252.167 104.627 244.863 99.391 246.968C94.155 249.073 92.925 255.345 102.38 267.579C107.959 274.797 115.135 290.055 114.956 309.706Z" fill="#F6954B"/>
<g opacity="0.1">
<path d="M114.956 309.706L121.584 305.919C121.584 305.919 124.763 288.4 122.386 273.34C119.043 252.167 104.627 244.863 99.391 246.968C94.155 249.073 92.925 255.345 102.38 267.579C107.959 274.797 115.135 290.055 114.956 309.706Z" fill="black"/>
</g>
<path d="M117.358 301.296C117.336 301.296 117.315 301.294 117.293 301.291C117.035 301.255 116.854 301.017 116.89 300.758C119.629 280.935 111.658 259.217 102.701 250.465C102.514 250.283 102.511 249.983 102.694 249.797C102.877 249.612 103.176 249.607 103.362 249.79C112.482 258.702 120.606 280.774 117.826 300.888C117.793 301.125 117.59 301.296 117.358 301.296Z" fill="white"/>
<path d="M96.566 320.33C95.519 320.931 93.36 319.617 92.533 319.062C91.118 318.112 89.971 316.768 89.209 315.246C88.323 313.476 88.099 311.579 88.377 309.621C88.521 308.606 88.805 307.616 89.088 306.63C89.366 305.662 89.645 304.694 89.923 303.726C90.198 302.771 90.475 301.783 90.349 300.798C90.095 298.812 88.332 297.421 86.73 296.221C84.958 294.894 83.113 293.143 83.123 290.752C83.131 288.907 84.086 287.194 85.229 285.747C86.372 284.299 87.729 283.02 88.762 281.492C89.506 280.392 90.086 279.1 89.965 277.777C89.89 276.955 89.549 276.181 89.156 275.456C88.312 273.899 87.198 272.474 86.616 270.801C86.034 269.129 86.117 267.049 87.422 265.852C88.493 264.87 90.085 264.733 91.536 264.829C92.878 264.918 94.188 265.523 95.362 266.176C99.157 268.286 101.324 272.781 105.351 274.405C106.904 275.031 108.606 275.169 110.226 275.596C111.845 276.024 113.496 276.851 114.246 278.349C115.724 281.302 112.981 284.941 114.02 288.075C114.94 290.849 117.635 291.91 119.149 294.41C119.811 295.504 119.964 296.767 119.857 298.041C119.676 300.197 119.361 301.779 118.326 304.177C117.471 306.158 114.958 309.705 114.958 309.705C114.893 309.768 96.726 320.237 96.566 320.33Z" fill="#F6954B"/>
<path d="M107.325 314.597C107.318 314.597 107.312 314.597 107.312 314.597C107.044 314.586 106.842 314.365 106.852 314.105C107.633 295.343 98.792 274.629 92.364 268.611C92.174 268.433 92.164 268.134 92.342 267.943C92.521 267.753 92.819 267.744 93.01 267.921C99.568 274.06 108.588 295.118 107.797 314.144C107.787 314.398 107.577 314.597 107.325 314.597Z" fill="white"/>
<path d="M104.514 292.431C104.468 292.431 104.421 292.424 104.375 292.41C98.347 290.547 90.834 290.218 90.759 290.215C90.498 290.204 90.296 289.983 90.306 289.723C90.317 289.463 90.515 289.257 90.798 289.27C90.875 289.274 98.507 289.607 104.654 291.507C104.903 291.584 105.044 291.849 104.966 292.098C104.903 292.301 104.716 292.431 104.514 292.431Z" fill="white"/>
<path d="M94.109 333.22V325.85H95.926C98.045 321.559 102.012 317.509 107.863 314.131C126.214 303.537 155.963 303.537 174.313 314.131C180.164 317.51 184.131 321.56 186.25 325.85H188.047V332.986C188.194 340.037 183.632 347.115 174.313 352.495C155.963 363.089 126.213 363.089 107.863 352.496C98.648 347.174 94.068 340.193 94.109 333.22Z" fill="url(#paint0_linear_3_152)"/>
<path d="M174.313 306.665C155.964 296.071 126.213 296.071 107.864 306.665C89.515 317.259 89.515 334.436 107.864 345.029C126.213 355.623 155.964 355.623 174.313 345.029C192.663 334.436 192.663 317.259 174.313 306.665Z" fill="url(#paint1_linear_3_152)"/>
<path d="M153.19 193.579L153.182 322.631C153.182 324.418 152.001 326.204 149.64 327.568C144.917 330.295 137.26 330.295 132.537 327.568C130.176 326.205 128.996 324.418 128.996 322.631L129.004 193.579H153.19Z" fill="white"/>
<path d="M128.996 224.086V232.828L153.186 246.761L153.19 238.08L128.996 224.086Z" fill="url(#paint2_linear_3_152)"/>
<path d="M266.682 110.192V110.201L264.617 114.331L242.474 158.736L231.965 179.819L196.391 251.161L192.473 259.024C192.243 259.042 192.012 259.052 191.782 259.052C190.335 259.052 188.887 258.729 187.79 258.093L45.992 176.076C43.789 174.804 42 171.706 42 169.162V108.016C42 77.4664 62.115 41.0904 86.94 26.7554C98.703 19.9614 109.387 19.4084 117.398 23.9074L117.426 23.8424L266.682 110.192Z" fill="url(#paint3_linear_3_152)"/>
<path d="M236.731 113.418C226.709 117.136 190.253 147.244 190.253 194.656C190.253 234.508 190.299 255.201 190.309 258.923C190.792 258.999 191.284 259.051 191.782 259.051C192.012 259.051 192.243 259.042 192.473 259.023L196.391 251.16L231.965 179.818L242.474 158.735L244.882 153.906L236.731 113.418Z" fill="white"/>
<path d="M279.717 208.95C279.717 208.959 279.717 208.968 279.708 208.968C279.413 209.493 278.851 210.056 278.058 210.563C277.929 210.655 277.791 210.738 277.652 210.821L195.774 258.093C194.852 258.628 193.681 258.941 192.474 259.024C192.244 259.042 192.013 259.052 191.783 259.052V194.652C191.783 183.664 194.401 171.938 198.9 160.728L202.938 163.06L231.967 179.819L277.036 205.852C277.036 205.852 278.069 206.451 279.341 207.179C280.021 207.577 280.122 208.231 279.717 208.95Z" fill="white"/>
<path d="M266.682 110.202C258.736 106.035 248.245 106.764 236.731 113.419C223.816 120.849 212.173 134.29 203.987 149.749C202.097 153.317 200.392 156.995 198.898 160.728C194.4 171.938 191.781 183.664 191.781 194.652V259.052C192.011 259.052 192.242 259.043 192.472 259.024C193.68 258.941 194.85 258.628 195.772 258.093L277.65 210.821C277.788 210.738 277.927 210.655 278.056 210.563C278.655 210.148 279.217 209.595 279.706 208.968C279.715 208.968 279.715 208.959 279.715 208.95C280.877 207.484 281.642 205.576 281.642 203.907V142.77C281.643 126.408 275.863 115.023 266.682 110.202ZM275.836 206.544L197.588 251.724C196.927 252.106 196.391 251.796 196.391 251.033V194.653C196.391 184.826 198.659 173.921 202.936 163.061C203.01 162.858 203.093 162.646 203.176 162.443C204.78 158.433 206.605 154.552 208.633 150.837C216.579 136.143 227.448 124.076 239.036 117.411C244.991 113.963 250.633 112.221 255.795 112.221C259.058 112.221 262.017 112.949 264.617 114.332C272.453 118.508 277.034 128.63 277.034 142.771V204.47C277.034 205.234 276.498 206.162 275.836 206.544Z" fill="url(#paint4_linear_3_152)"/>
<path d="M357.514 276.272L357.512 270.638H356.977V271.442C356.647 269.915 356.164 268.392 355.509 266.883C352.55 259.978 346.318 253.36 336.805 247.865L283.854 217.297C281.651 216.025 278.083 216.025 275.871 217.297L194.915 264.035C194.06 263.272 193.127 262.518 192.341 261.199V266.875V266.877C192.342 267.711 192.892 268.544 193.993 269.18L246.944 299.748C261.113 307.934 279.642 311.953 297.59 311.714C313.123 311.511 328.223 308.119 339.728 301.463C351.632 294.621 357.499 285.541 357.499 276.274H357.514V276.272Z" fill="url(#paint5_linear_3_152)"/>
<path d="M355.508 266.883C352.549 259.978 346.317 253.36 336.804 247.865L283.853 217.297C281.65 216.025 278.082 216.025 275.87 217.297L194.914 264.035L246.943 294.078C261.112 302.264 279.641 306.283 297.589 306.044C313.122 305.832 328.222 302.44 339.727 295.793C350.411 289.644 356.247 281.707 357.325 273.438C357.057 271.243 356.449 269.049 355.508 266.883Z" fill="url(#paint6_linear_3_152)"/>
<path d="M357.324 273.437C357.057 271.243 356.448 269.049 355.508 266.883C352.549 259.978 346.317 253.36 336.804 247.865L283.853 217.297C281.65 216.025 278.082 216.025 275.87 217.297L194.914 264.035L193.992 263.51C191.789 262.238 191.789 260.173 193.992 258.901L275.87 211.629C278.083 210.357 281.65 210.357 283.853 211.629L336.804 242.197C346.317 247.691 352.549 254.31 355.508 261.215C356.504 263.51 357.13 265.843 357.379 268.175C357.573 269.934 357.555 271.695 357.324 273.437Z" fill="white"/>
<path d="M277.034 142.77V205.852L202.936 163.06C203.01 162.857 203.093 162.645 203.176 162.442C211.122 142.595 224.517 125.762 239.036 117.41C244.991 113.962 250.633 112.22 255.795 112.22C268.894 112.22 277.034 123.927 277.034 142.77Z" fill="url(#paint7_linear_3_152)"/>
<path d="M143.627 191.147L150.145 187.385L150.151 187.382L150.197 187.355L150.202 187.363C152.435 186.103 155.498 186.293 158.887 188.249C165.711 192.189 171.243 201.771 171.243 209.651C171.243 213.584 169.863 216.349 167.635 217.642V217.644L167.625 217.65L167.623 217.651L161.557 221.125L160.464 219.296C159.335 219.036 158.16 218.634 156.92 217.918C150.097 213.978 144.564 204.396 144.562 196.516C144.562 195.346 144.72 194.315 144.95 193.36L143.627 191.147Z" fill="#E0E0E0"/>
<path d="M152.619 191.851C159.444 195.791 164.976 205.373 164.976 213.253C164.977 221.133 159.444 224.327 152.62 220.386C145.796 216.446 140.263 206.864 140.263 198.984C140.262 191.105 145.794 187.911 152.619 191.851Z" fill="#FAFAFA"/>
<path d="M152.619 209.514C150.64 209.514 149.036 207.91 149.036 205.931V104.645C149.036 102.666 150.641 101.062 152.619 101.062C154.598 101.062 156.202 102.666 156.202 104.645V205.93C156.202 207.91 154.598 209.514 152.619 209.514Z" fill="#EBEBEB"/>
<path d="M149.035 114.649L113.145 93.9292L124.381 115.548L113.145 124.195L149.035 144.916V114.649Z" fill="#F6954B"/>
<path d="M336.481 208.207C336.481 206.964 335.609 205.453 334.532 204.832L234.844 147.277C233.768 146.656 232.023 146.656 230.947 147.277L228.751 148.545C227.675 149.166 226.802 150.677 226.802 151.92V228.333C226.802 229.571 227.679 231.089 228.751 231.708L328.439 289.263C329.511 289.882 331.265 289.882 332.336 289.263L334.532 287.995C335.604 287.376 336.481 285.858 336.481 284.62V208.207Z" fill="#F6954B"/>
<path opacity="0.4" d="M335.913 206.288L330.382 209.478L227.375 150C227.725 149.392 228.214 148.857 228.749 148.543L230.952 147.28C232.021 146.653 233.773 146.653 234.842 147.28L334.53 204.831C335.074 205.145 335.562 205.679 335.913 206.288Z" fill="white"/>
<path opacity="0.1" d="M336.484 208.205V284.617C336.484 285.862 335.608 287.373 334.53 287.991L332.336 289.263C332.17 289.355 331.995 289.438 331.801 289.503C331.552 289.586 331.285 289.65 330.999 289.687C330.492 289.752 329.957 289.733 329.46 289.632C329.331 289.604 329.202 289.568 329.082 289.531C328.999 289.503 328.925 289.476 328.852 289.439C329.211 289.568 329.525 289.55 329.783 289.421C330.152 289.227 330.382 288.785 330.382 288.14V211.728C330.382 210.926 329.976 210.318 329.368 210.069L330.382 209.479L335.913 206.289C336.263 206.896 336.484 207.588 336.484 208.205Z" fill="black"/>
<path opacity="0.2" d="M330.382 209.478L284.216 226.726C280.925 227.952 277.229 226.735 275.311 223.794L267.897 212.436L227.006 149.788L266.419 212.862L226.803 228.366C226.812 228.993 227.043 229.694 227.412 230.311L266.53 213.039L275.145 226.826C277.127 229.988 281.128 231.223 284.539 229.711L290.673 227.003L329.783 289.418C330.152 289.224 330.382 288.782 330.382 288.137V286.865L290.864 226.919L330.382 209.478Z" fill="black"/>
<defs>
<linearGradient id="paint0_linear_3_152" x1="141.08" y1="306.185" x2="141.08" y2="360.44" gradientUnits="userSpaceOnUse">
<stop stop-color="#DD1C8A"/>
<stop offset="1" stop-color="#770F4A"/>
</linearGradient>
<linearGradient id="paint1_linear_3_152" x1="141.089" y1="298.72" x2="141.089" y2="352.975" gradientUnits="userSpaceOnUse">
<stop stop-color="#F6954B"/>
<stop offset="1" stop-color="#DD1C8A"/>
</linearGradient>
<linearGradient id="paint2_linear_3_152" x1="141.093" y1="224.086" x2="141.093" y2="246.761" gradientUnits="userSpaceOnUse">
<stop stop-color="#DD1C8A"/>
<stop offset="1" stop-color="#770F4A"/>
</linearGradient>
<linearGradient id="paint3_linear_3_152" x1="154.341" y1="21" x2="154.341" y2="259.052" gradientUnits="userSpaceOnUse">
<stop stop-color="#F6954B"/>
<stop offset="1" stop-color="#DD1C8A"/>
</linearGradient>
<linearGradient id="paint4_linear_3_152" x1="236.712" y1="107.616" x2="236.712" y2="259.052" gradientUnits="userSpaceOnUse">
<stop stop-color="#F6954B"/>
<stop offset="1" stop-color="#DD1C8A"/>
</linearGradient>
<linearGradient id="paint5_linear_3_152" x1="274.927" y1="216.343" x2="274.927" y2="311.724" gradientUnits="userSpaceOnUse">
<stop stop-color="#DD1C8A"/>
<stop offset="1" stop-color="#770F4A"/>
</linearGradient>
<linearGradient id="paint6_linear_3_152" x1="276.119" y1="216.343" x2="276.119" y2="306.054" gradientUnits="userSpaceOnUse">
<stop stop-color="#F6954B"/>
<stop offset="1" stop-color="#DD1C8A"/>
</linearGradient>
<linearGradient id="paint7_linear_3_152" x1="239.985" y1="112.22" x2="239.985" y2="205.852" gradientUnits="userSpaceOnUse">
<stop stop-color="#DD1C8A"/>
<stop offset="1" stop-color="#770F4A"/>
</linearGradient>
</defs>
</svg>
