<svg width="800" height="800" viewBox="0 0 800 800" fill="none" xmlns="http://www.w3.org/2000/svg">
<path d="M622.783 193.403C622.317 190.011 619.345 188.134 616.89 187.927C614.439 187.722 562.566 183.877 562.566 183.877C562.566 183.877 526.54 148.112 522.586 144.153C518.63 140.197 510.903 141.4 507.904 142.283C507.462 142.413 500.033 144.706 487.743 148.509C475.709 113.879 454.47 82.0562 417.106 82.0562C416.074 82.0562 415.013 82.098 413.951 82.1584C403.325 68.1054 390.161 62 378.792 62C291.753 62 250.17 170.807 237.132 226.099C203.311 236.579 179.285 244.03 176.216 244.994C157.337 250.916 156.74 251.51 154.261 269.299C152.396 282.767 103 664.768 103 664.768L487.903 736.885L696.457 691.768C696.457 691.768 623.243 196.794 622.783 193.403ZM466.469 155.088L433.9 165.169C433.912 162.873 433.924 160.615 433.924 158.146C433.924 136.624 430.936 119.295 426.143 105.558C445.396 107.974 458.217 129.879 466.469 155.088ZM402.261 109.825C407.613 123.237 411.094 142.485 411.094 168.458C411.094 169.787 411.082 171.002 411.07 172.231C389.89 178.792 366.874 185.915 343.807 193.061C356.758 143.075 381.036 118.932 402.261 109.825ZM376.401 85.3458C380.158 85.3458 383.942 86.6213 387.564 89.1141C359.669 102.24 329.77 135.299 317.143 201.318L263.975 217.784C278.764 167.429 313.884 85.3458 376.401 85.3458Z" fill="url(#paint0_linear_2_2)"/>
<path d="M618.309 188.082C615.917 187.882 565.288 184.13 565.288 184.13C565.288 184.13 528.429 149.946 524.569 146.082C523.125 144.644 522.569 144.082 520.838 142.866L489.069 737.582L697.069 692.582C697.069 692.582 624.51 196.737 624.061 193.426C623.606 190.116 620.706 188.284 618.309 188.082Z" fill="url(#paint1_linear_2_2)"/>
<path d="M394.579 342.838L373.342 406.011C373.342 406.011 354.735 396.08 331.926 396.08C298.488 396.08 296.806 417.064 296.806 422.352C296.806 451.204 372.016 462.259 372.016 529.841C372.016 583.011 338.292 617.249 292.821 617.249C238.255 617.249 210.351 583.29 210.351 583.29L224.961 535.017C224.961 535.017 253.644 559.643 277.848 559.643C293.663 559.643 300.096 547.191 300.096 538.093C300.096 500.457 238.393 498.778 238.393 436.935C238.393 384.885 275.753 334.515 351.166 334.515C380.224 334.515 394.579 342.838 394.579 342.838Z" fill="white"/>
<defs>
<linearGradient id="paint0_linear_2_2" x1="399.728" y1="62" x2="399.728" y2="736.885" gradientUnits="userSpaceOnUse">
<stop stop-color="#F6954B"/>
<stop offset="1" stop-color="#DD1C8A"/>
</linearGradient>
<linearGradient id="paint1_linear_2_2" x1="658.702" y1="155.871" x2="658.702" y2="736.879" gradientUnits="userSpaceOnUse">
<stop stop-color="#F6954B"/>
<stop offset="1" stop-color="#770F4A"/>
</linearGradient>
</defs>
</svg>
